<svg id="Calque_1" data-name="Calque 1" xmlns="http://www.w3.org/2000/svg" viewBox="0 0 922.21 255.79"><defs><style>.cls-1{fill:#fff;}.cls-2{fill:#ef7f98;}</style></defs><path class="cls-1" d="M633.49,464.81l-11,11.82V592.9l11,11.82V606h-63.1v-1.27l11-11.82V539.09H550.56V592.9l10.76,11.82V606H498.43v-1.27l10.76-11.82V476.63l-10.76-11.82v-1.27h62.89v1.27l-10.76,11.82v58.24h30.81V476.63l-11-11.82v-1.27h63.1Z" transform="translate(-498.43 -412.06)"/><path class="cls-1" d="M752.94,567.19v-5.62A9.35,9.35,0,0,0,752.94,567.19ZM724,565.05v-.16l-.1.16ZM680.88,463.54a19.81,19.81,0,0,0-.26,3.26c0,5.8,2.39,11.69,7.11,16.87V467.34h3.65c20.12.22,26.7,5.7,39.7,26q1.95,3,4.12,6.56l3.18,5.17c1.36,2,2.75,4.13,4.21,6.38,2.32,3.57,4.8,7.45,7.58,11.64l.23.34h1.27V463.54Zm15.48-13-2.09,7.51h1.48l27.5-17.13C712.51,441.55,702.27,444.33,696.36,450.54Z" transform="translate(-498.43 -412.06)"/><path class="cls-1" d="M752.94,561.57a9.35,9.35,0,0,0,0,5.62V606H635.6v-1.26l10.77-12V476.84l-10.77-12v-1.27h45.28a19.81,19.81,0,0,0-.26,3.26c0,5.8,2.39,11.69,7.11,16.87v48.67h2.11c11.39,0,19.62-3.38,33.13-29.13H724v61.68l-.1.16h-1c-2.34-4.24-4.54-7.89-6.63-11-9.74-14.66-17.12-18.1-26.5-18.1h-2.11v66.27h3.59c24.47,0,29.54-7.18,48.32-37.78,3.59-5.27,7.39-11.39,12-18.36h1.27Z" transform="translate(-498.43 -412.06)"/><path class="cls-1" d="M747.24,424.71V426l-19.06,11.87-4.93,3.07c-10.74.63-21,3.41-26.89,9.62l2-7.25,5.18-18.58Z" transform="translate(-498.43 -412.06)"/><path class="cls-1" d="M888.81,600.82l-3.55,3.9V606h5.27v-1.89Zm-78.89-64.47h4.85l.94,2,2.26,4.75,1.69,3.55c10.42-1.64,23.41-4.54,32.34-10.09l-16.57,1.09h0l-12.63.83v-2.11A154.55,154.55,0,0,0,843,532.77h0c3.64-3.16,6-7,6-11.71,0-3.93-1.47-5.65-4.91-5.65a18.23,18.23,0,0,0-6.19,1.12c-2.48,8.21-7.69,14.78-18.42,15.86h0a30.37,30.37,0,0,1-3.23.16h-6.33V486.28c-15.39,3.28-30.12,5.3-40.93,6.54l2.21-3.19A273.67,273.67,0,0,1,790,463.54H758.21v1.27l8.51,9.71,2,2.32V592.9l-11,11.82V606h63.1v-1.26l-11-11.82Zm63-62.39c-3.35,8.48-9.79,17.67-14,21.32l1.23,1.47c6-1.88,14.1-8.85,19.67-15.44A25.7,25.7,0,0,0,872.88,474Z" transform="translate(-498.43 -412.06)"/><path class="cls-1" d="M883.35,495.19c0,11.34-5.9,22.68-21.81,30.83A88.43,88.43,0,0,1,843,532.77c3.64-3.16,6-7,6-11.71,0-3.93-1.47-5.65-4.91-5.65a18.23,18.23,0,0,0-6.19,1.12A42.29,42.29,0,0,0,839,512a81.14,81.14,0,0,0,1.08-14.44,60.54,60.54,0,0,0-1.35-13.86,29.62,29.62,0,0,0-1.48-4.64c-2.92-7-8.56-11.68-18.9-11.68h-8.44v18.94c-15.39,3.28-30.12,5.3-40.93,6.54l2.21-3.19A273.67,273.67,0,0,1,790,463.54h34.73c14.13,0,27.19,1.31,37.39,4.91a44.25,44.25,0,0,1,8.12,3.74c.94.56,1.83,1.15,2.68,1.77-3.35,8.48-9.79,17.67-14,21.32l1.23,1.47c6-1.88,14.1-8.85,19.67-15.44A26.07,26.07,0,0,1,883.35,495.19Z" transform="translate(-498.43 -412.06)"/><path class="cls-1" d="M885.26,463.54v1.27L896,476.62v65.92l2.57-4.06c7.61-11.78,16-23.07,25.78-23.07,3.44,0,5.65,1.72,5.65,5.65,0,3.19-.5,5.15-2.46,8.83l2.21,2,7.61-7.76V476.62l10.76-11.81v-1.27Zm0,141.18V606h5.27v-1.89l-1.72-3.27Z" transform="translate(-498.43 -412.06)"/><path class="cls-1" d="M948.14,604.72V606H890.53v-1.89l-1.72-3.27L896,592.9V542.54l2.57-4.06c7.61-11.78,16-23.07,25.78-23.07,3.44,0,5.65,1.72,5.65,5.65,0,3.19-.5,5.15-2.46,8.83l2.21,2,7.61-7.76v68.8Z" transform="translate(-498.43 -412.06)"/><path class="cls-1" d="M1017.4,560.82c0,6.14,3.44,11.3,10.07,11.3a30.45,30.45,0,0,0,5.72-.52V531.07C1023.93,540.12,1017.4,550.94,1017.4,560.82Zm25.2,42.41-3.87-4.24a190.49,190.49,0,0,0-18.6,7H1044v-1.26Zm-27.89-92.49,12.51-19.88-2.7-1c-3.19,3.19-10.55,8.84-17.42,9.82l-7.12,11h-8.15v37L1012,515.16h21.19v-4.42Zm-50.82-8.34a4.45,4.45,0,0,0,0,.53c2.13-3.61,4.05-6.86,5.8-9.77C966.53,495.75,963.89,499.17,963.89,502.4Zm-12.35,21.07h.4l3.27-5.64-.15,0Z" transform="translate(-498.43 -412.06)"/><path class="cls-1" d="M1073.92,463.54v59.93h-1.27l-5-8.69c-.59-1-1.16-2-1.72-2.95-21.69-37.3-25.75-43.53-28.06-44.49h-4.64v43.4h-18.48l12.51-19.88-2.7-1c-3.19,3.19-10.55,8.84-17.42,9.82l-7.12,11h-8.15v-43.4h-4.44c-1.7.62-5,4.65-17.66,25.81a0,0,0,0,1,0,0c-3.19,2.59-5.83,6-5.83,9.24a4.45,4.45,0,0,0,0,.53c-2.59,4.4-5.48,9.35-8.71,14.9l-.15,0-3.52,5.61h-.86V463.54Z" transform="translate(-498.43 -412.06)"/><path class="cls-1" d="M1038.73,599a190.49,190.49,0,0,0-18.6,7H981.06v-1.26l10.77-11.82V547.78L1012,515.16h21.19v15.91c-9.26,9-15.79,19.87-15.79,29.75,0,6.14,3.44,11.3,10.07,11.3a30.45,30.45,0,0,0,5.72-.52v21.3Z" transform="translate(-498.43 -412.06)"/><path class="cls-1" d="M1151.55,513.94l-1-3.08-16.23-47.32H1091v1.27l9.07,25.53L1089,515.76h0l-24.61,56.3c6.67-.55,14.93-5.27,22.77-11.48l-1.72-2c-12,8.1-17.43,7.12-13-2L1091.66,526h0a121.42,121.42,0,0,1,4.95-15.26l.3-.76,4.85-13.72H1103l11,32.86,3.61,10.75,4.35,12.95h-24.51a27.59,27.59,0,0,0-.94,3.79h26.72l1.68,5c8-4,17.19-13.89,25.22-26.78,1.73-2.87,3.87-6.17,5.35-9.19h0Zm-23.66,56.28,7.34-11.85a67.3,67.3,0,0,1-8.92,7.16Z" transform="translate(-498.43 -412.06)"/><path class="cls-1" d="M1182.39,603.87V606H1125v-1.26l10.55-11.82-2.37-7-5.28-15.63h0l7.34-11.85a67.3,67.3,0,0,1-8.92,7.16l-1.33-3.95c8-4,17.19-13.89,25.22-26.78,1.73-2.87,3.87-6.17,5.35-9.19l5.39,15.71,14.27,41.62,3.31,9.66h0Z" transform="translate(-498.43 -412.06)"/><path class="cls-1" d="M1244.64,460.59c-8.36,0-53,7-66.81,48.05h0a72.12,72.12,0,0,0-2.54,9.74h0a89.5,89.5,0,0,0-1.53,16.88,85.05,85.05,0,0,0,1,13A78.72,78.72,0,0,0,1182,571.5a33.2,33.2,0,0,0,6.7.62c11.37,0,23.8-4.19,37.41-12-.77-1-1.51-2.14-2.23-3.26a105.76,105.76,0,0,1-7.77-14.3c-.75-1.68-1.48-3.39-2.16-5.12a124.7,124.7,0,0,1-5.31-16.77q-.62-2.55-1.11-5.12a101.71,101.71,0,0,1-2-19.34c0-16.88,7-24.9,16.25-24.9,16.88,0,30.18,28.7,33.77,50.65l1.05.42,41.79-34.19C1291.07,473.25,1270.81,460.59,1244.64,460.59Z" transform="translate(-498.43 -412.06)"/><path class="cls-1" d="M1297.61,531.07l-.84,78.29h-1.27l-30.18-29.54h-1c-10.76,14.77-19.42,28.7-24.06,28.7-26.23-.28-47.22-15.14-58.17-37a33.2,33.2,0,0,0,6.7.62c11.37,0,23.8-4.19,37.41-12,8.57,11.92,19.08,19.87,30.1,19.87a7.94,7.94,0,0,0,2.32-.21v-40.1l-23.93-6.42-7.51-2V530h69.43Z" transform="translate(-498.43 -412.06)"/><path class="cls-1" d="M1420.64,546.05V606H1303.31v-1.27l10.76-12V476.84l-10.76-12v-1.27h116.06v59.93h-1.26c-4.65-7-8.44-13.08-12-18.35-18.78-30.6-23.64-37.78-48.33-37.78h-2.32v65h2.11c11.4,0,19.63-3.38,33.13-29.12h1.06v61.83h-1.06c-13.29-24.06-21.73-29.12-33.13-29.12h-2.11v66.26H1359c24.48,0,29.54-7.18,48.32-37.77,3.59-5.28,7.39-11.4,12-18.37Z" transform="translate(-498.43 -412.06)"/><path class="cls-2" d="M723,565.05c-2.34-4.24-4.54-7.89-6.63-11a24.45,24.45,0,0,0-2.83,10.24c0,2.7,1.72,7.86,4.42,7.86,1,0,2-.74,3-2.21l3-4.86Zm139.79-153c-27.23,0-59.47,18.45-87.34,51.48q-4.44,5.25-8.7,11-5.94,8-11.48,16.83l-1.72,2.7c-.62,0-1.23,0-1.85.05-1.59.07-3.18.2-4.77.2a132.36,132.36,0,0,1-15.82-.92c-19.93-2.42-37.62-9.94-39.7-26a24.54,24.54,0,0,1-.21-3.25c0-.19,0-.38,0-.56a18.8,18.8,0,0,1,5.18-13l2-7.25c-10.5,4.83-16.27,12.31-17.5,20.25a19.81,19.81,0,0,0-.26,3.26c0,5.8,2.39,11.69,7.11,16.87,8.45,9.27,24.38,16.24,47.47,16.27h.16c4.66,0,9.57,0,14.73-.49l-7.5,12L724,541.27v23.62l14.27-22.72c8.3-11.86,19.12-22.56,30.46-23.28.4,0,.81,0,1.21,0,2.7,0,4.17,1.71,4.17,3.92,0,3.69-3.19,8.84-4.17,10.56l-1.21,1.94-14.25,22.85a13.21,13.21,0,0,0-1.57,3.45,9.35,9.35,0,0,0,0,5.62c1,2.9,3.69,4.93,7.95,4.93a22.2,22.2,0,0,0,7.87-1.69c5.16-2,10.78-5.56,16.19-9.85l-1.72-2c-13.26,8.84-18.41,6.88-11.05-5.15l11.05-17.92c3.93-6.14,5.4-10.56,5.4-15,0-7.85-6.14-9.82-10.31-9.82a30.23,30.23,0,0,0-9.56,1.56c-5.07,1.67-10.69,4.86-17.09,10.4-.29.24-.58.5-.88.77-.63.56-1.28,1.15-1.93,1.76l1.31-2.1,1.5-2.4,14.37-23,2.72-.36c13.09-1.79,27.2-4,41.16-6.83,9.82-2,19.56-4.25,28.82-6.88a29.62,29.62,0,0,0-1.48-4.64,268.53,268.53,0,0,1-27.34,7.26c-15.39,3.28-30.12,5.3-40.93,6.54l2.21-3.19A273.67,273.67,0,0,1,790,463.54c19.83-24.4,46.72-48.53,72.31-48.53,11.05,0,24.79,4.91,24.79,19.88,0,14.33-10.19,25.25-25,33.56a44.25,44.25,0,0,1,8.12,3.74c1.35-.65,2.68-1.31,4-2,.84-.44,1.64-.88,2.45-1.34h0c15.28-8.54,25.15-19.25,25.15-32.74C901.79,417.22,876,412.06,862.76,412.06ZM728.18,437.85l-4.93,3.07c1.66-.09,3.32-.14,5-.14,11.29,0,22.34,2.21,28.72,5.16l1.72-2.21C752.17,440.35,740.46,437.93,728.18,437.85Z" transform="translate(-498.43 -412.06)"/><path class="cls-2" d="M843,532.77h0a35.14,35.14,0,0,1-7.53,4.86h0A65,65,0,0,1,818,543.08a45.2,45.2,0,0,1-5,.56c.83-1.76,1.76-3.54,2.78-5.31,1.15-2,2.42-4,3.77-5.94h0c5.1-7.21,11.52-13.42,18.42-15.86A42.29,42.29,0,0,0,839,512c-10.21,2.63-20.74,9.3-29.09,17.54-9.65,9.53-16.39,21.15-16.39,31.08,0,8.89,8,11.43,16.39,11.53h.55a59.15,59.15,0,0,0,19.59-3.65l-2.74-5.75a39.69,39.69,0,0,1-7.27.8c-5.67,0-9-1.09-10.13-4.39a9.08,9.08,0,0,1-.43-3,24.81,24.81,0,0,1,.43-4.15,30.65,30.65,0,0,1,1-4.2c2.53-.3,5.49-.68,8.7-1.18,10.42-1.64,23.41-4.54,32.34-10.09h0c4.48-2.79,7.94-6.24,9.53-10.52A88.43,88.43,0,0,1,843,532.77Zm33.67-63.91h0c-.74-.06-1.44-.09-2.07-.09-.11.47-.23,1-.38,1.43a37.15,37.15,0,0,1-1.28,3.76c-3.35,8.48-9.79,17.67-14,21.32l1.23,1.47c6-1.88,14.1-8.85,19.67-15.44,3.15-3.73,5.48-7.35,6.1-9.84C885.42,470.24,880.52,469.17,876.64,468.86Z" transform="translate(-498.43 -412.06)"/><path class="cls-1" d="M888.81,600.82l-3.55,3.9V606h-53v-1.26l9.7-11.19-11.93-25.06-2.74-5.75-7.66-16.09c10.42-1.64,23.41-4.54,32.34-10.09h0l2.86-.19Z" transform="translate(-498.43 -412.06)"/><path class="cls-2" d="M937.38,512.87a17.56,17.56,0,0,0-9.08-2.13c-6.63,0-13,2.21-19.39,6.14-.5-3.43-3.44-6.14-8.11-6.14a18.87,18.87,0,0,0-4.78.68c-5.95,1.56-12.76,5.69-19.27,10.86l1.72,2c13.25-8.84,18.41-6.88,11,5.15l-12,18.9c-3.43,5.16-6.13,11.05-6.13,16,0,2.7,1.72,7.86,4.41,7.86,1,0,2-.74,3-2.21L896,542.54l2.57-4.06c7.61-11.78,16-23.07,25.78-23.07,3.44,0,5.65,1.72,5.65,5.65,0,3.19-.5,5.15-2.46,8.83l2.21,2,7.61-7.76,4.91-5A11.27,11.27,0,0,0,937.38,512.87Z" transform="translate(-498.43 -412.06)"/><path class="cls-2" d="M947.45,553.46,975.18,509l-2.7-1c-3.17,3.18-10.44,8.76-17.27,9.79l-.15,0-3.52,5.61L937.38,546v26.06c6.69-.53,15-5.26,22.83-11.49l-1.72-2C945.24,567.45,940.08,565.49,947.45,553.46Zm31.17-64.56c-2.18,0-5.79,1.73-8.89,4.25a0,0,0,0,1,0,0c-3.19,2.59-5.83,6-5.83,9.24a4.45,4.45,0,0,0,0,.53,8.19,8.19,0,0,0,.46,1.92,2.82,2.82,0,0,0,2.7,1.48c4.91,0,14.49-7.61,14.49-14C981.57,490.13,980.34,488.9,978.62,488.9Z" transform="translate(-498.43 -412.06)"/><path class="cls-2" d="M1014.71,510.74l12.51-19.88-2.7-1c-3.19,3.19-10.55,8.84-17.42,9.82l-7.12,11H984.27l-2.46,4.42h15.47l-5.45,8.67-21.56,34.29a11.35,11.35,0,0,0-2,6.39c0,4.17,3,7.61,8.35,7.61a36.33,36.33,0,0,0,15.17-3.35v-6.12a14.68,14.68,0,0,1-4.13.63c-3.93,0-4.42-1.72-2-5.65l6.09-9.85L1012,515.16h22.59l2.45-4.42Z" transform="translate(-498.43 -412.06)"/><path class="cls-2" d="M1099.64,508a37.6,37.6,0,0,1-3,2.69,43.3,43.3,0,0,1-7.65,5h0c-.61.32-1.22.61-1.84.88-2.7-4.42-7.61-5.9-12.77-5.9h-.43V514c2.84.36,4.61,2.3,4.61,5.82,0,3.92-4.18,10.06-7.12,15-10.56,16.94-23.08,28.72-32.41,28.72-3.68,0-5.64-3.19-5.64-7.36,0-14.69,19-36.82,34.25-41.38-.59-1-1.16-2-1.72-2.95-11.05,2.68-23.29,10.05-32.7,19.24s-15.79,19.87-15.79,29.75c0,6.14,3.44,11.3,10.07,11.3a30.45,30.45,0,0,0,5.72-.52c6.29-1.14,14-4.54,23.24-13.23-3.93,6.63-1.47,13.75,6.63,13.75q.63,0,1.29-.06c6.67-.55,14.93-5.27,22.77-11.48l-1.72-2c-12,8.1-17.43,7.12-13-2L1091.66,526h0l10.67-17Z" transform="translate(-498.43 -412.06)"/><path class="cls-2" d="M1175.21,582.94l3.31,9.66h0c10,4.73,16.84,12.15,16.84,23.21,0,17.67-18.65,23.32-37.07,23.32-11.29,0-22.33-2.21-28.72-5.16l-1.71,2.21c6.62,3.44,18.65,5.9,31.17,5.9,31.67,0,46.89-14.24,46.89-29C1205.93,601,1195.52,588.5,1175.21,582.94ZM1133,585.86h.15l-5.28-15.63-7.39,11.95c-8.65,1.15-17.79,2.49-27.08,4.07.5,1.35,1,2.67,1.6,3.94,8.43-1.37,16.17-2.38,22.54-3.1l-2.21,3.19c-18.41,29.21-56,74.63-91.08,74.63-11,0-24.79-4.91-24.79-19.89,0-17.72,15.6-30.22,36.21-39,2.25-1,4.56-1.87,6.91-2.75q4.68-1.74,9.55-3.26l2.43-5.56c-5.43,1.41-10.74,2.94-15.85,4.58a190.49,190.49,0,0,0-18.6,7c-21,9.27-35.38,21.52-35.38,37.81,0,18.91,25.78,24.06,39,24.06,34.12,0,76.1-29,107.52-79.29Zm-26.76-13.74c5.29,0,12-1.22,20-6.59l-1.33-3.95a16.35,16.35,0,0,1-7.18,1.94c-3.55,0-5.5-3-5.63-6.92,0-.14,0-.29,0-.44a19.57,19.57,0,0,1,.3-3.35,38.47,38.47,0,0,1,5.22-12.95c8-13.19,22.86-25.82,33.87-25.92h.13c3.43,0,5.64,2,5.64,5.89a14.24,14.24,0,0,1-1.77,5.77h0l5.39,15.71,14.33-22.91h0l5.85-9.36-2.69-1-.61.6h0a44.41,44.41,0,0,1-11.91,8c-2.69-4.42-7.61-5.9-12.76-5.9-.87,0-1.75,0-2.65.12-11.63,1-25.58,8.38-36.43,18.25-7.79,7.09-14,15.46-16.55,23.7a27.59,27.59,0,0,0-.94,3.79,24.34,24.34,0,0,0-.38,4.22C1096.2,567,1099.64,572.12,1106.26,572.12Z" transform="translate(-498.43 -412.06)"/><path class="cls-1" d="M1104.09,604.72V606h-54v-1.26l2.08-4.75,2.43-5.56,9.77-22.35c6.67-.55,14.93-5.27,22.77-11.48l-1.72-2c-12,8.1-17.43,7.12-13-2L1091.66,526a117.2,117.2,0,0,0-3.6,26.8h9.46a27.59,27.59,0,0,0-.94,3.79h-8.52a91.05,91.05,0,0,0,5.36,29.65c.5,1.35,1,2.67,1.6,3.94A56.19,56.19,0,0,0,1104.09,604.72Z" transform="translate(-498.43 -412.06)"/><path class="cls-2" d="M1237.64,530a15.66,15.66,0,0,0,3.14-9.45c0-8.34-8.34-9.82-14.48-9.82s-12.48,1.81-18.73,4.85c-14.06,6.84-27.2,19.89-32.85,32.67a30.8,30.8,0,0,0-2.92,12.32c0,6.65,4.47,9.74,10.24,10.92a33.2,33.2,0,0,0,6.7.62c11.37,0,23.8-4.19,37.41-12q3.82-2.19,7.76-4.74l-1.72-2.45c-2.7,1.43-5.48,2.75-8.27,3.93-9.64,4.11-19.32,6.62-25.61,6.62-7.11,0-10.55-1.72-10.55-7.36a30,30,0,0,1,1.47-8.35,159.3,159.3,0,0,0,26.92-5.21c7.15-2.17,13.88-5.15,18.49-9.3l-7.51-2V530ZM1214,537.48a63,63,0,0,1-22.79,6.16c4-8.48,10.24-17.44,17.48-22.93,4.29-3.26,8.94-5.3,13.69-5.3,3.44,0,4.91,1.72,4.91,5.65C1227.28,528.41,1221.33,533.81,1214,537.48Z" transform="translate(-498.43 -412.06)"/></svg>