<svg xmlns="http://www.w3.org/2000/svg" viewBox="0 0 207.35 178.91"><defs><style>.cls-1{fill:#CA5F77;}</style></defs><g id="Calque_2" data-name="Calque 2"><g id="Calque_1-2" data-name="Calque 1"><path class="cls-1" d="M23.33,47.46s-.1-.22-.26-.25a4.45,4.45,0,0,0-3.91.82c-1.43,1.19-2.41,1-3.26-.58-.14-.26-.24-.53-.44-1a16.71,16.71,0,0,1-4.82,3.12c-1.33.53-2.16.16-2.33-1.22a6.08,6.08,0,0,1,0-.74c-.86-.35-1,.38-1.41.68-.72.58-1.1.67-1.69,0a1.87,1.87,0,0,0-2.63-.42A10.3,10.3,0,0,1,0,48.44,6.43,6.43,0,0,1,3.8,43.8c1.32-.63,2.67-1.2,4-1.8-.06-.36-.75-.73-.1-1.12a5,5,0,0,1,1.73-.77A3.32,3.32,0,0,0,11.62,39L9.94,37.83c1.43-1.39,2.69-2.08,5.6-3a8.48,8.48,0,0,0-.78-.5c-.34-.17-.7-.31-1.26-.54l1.5-1-.48-1.4a.89.89,0,0,1,.14-.32c1.34-1.41,3.21-1.55,4.94-2,.36-.1.82.29,1.23.28A6.24,6.24,0,0,0,23.58,29c.72-.33,1.64-.09,2.51-.42a11.38,11.38,0,0,1,3.32-.45c1.16-.07,2.33,0,3.34,0a5.33,5.33,0,0,1,2.43,5.29,2.51,2.51,0,0,0,.24,1.33c.19.38,0,.56-.08.88a4,4,0,0,0,1.43,4.62,4.8,4.8,0,0,0,1.57.68c1.17.3,1.76-.2,1.77-1.46s.06-2.62,0-3.93a2.31,2.31,0,0,1,1.48-2.44,9.29,9.29,0,0,1,4.85-1.2c.48.06.87-.9,1.32-.06.44-.74.85.12,1.31,0a7.67,7.67,0,0,1,1.44,0h1.65a15.12,15.12,0,0,1,1.65,0,12.42,12.42,0,0,1,2.1.43,1.09,1.09,0,0,1,.7.64c.09.41.17.57.61.58A15.31,15.31,0,0,1,62,34.91,5.12,5.12,0,0,1,64.82,37c.45,1-.22,1.6-.95,2.27.59.62,1.22,1.07,1.07,2,0,.27.34.69.63.92a5,5,0,0,0,1.17.48,11.34,11.34,0,0,0,1.44-2c.62-1.42,2-1.81,3.14-2.51A7.84,7.84,0,0,1,74,37.59c1-.18,1.71.53,2.55.84.33.12.64.3,1.34.63l-.62-1.61a7.3,7.3,0,0,1,2.41-1.94,1.54,1.54,0,0,0,.88-.89,1.94,1.94,0,0,1,1.34-1.57c1-.41,2-.81,3-1.24a16.9,16.9,0,0,0,2.76-1.44c-2.22.11-4.42.63-6.68-.18l1.31-1.94c-2.72-.65-5.16.47-7.87,1.25a13.44,13.44,0,0,0,0-2.14c-.05-.34-.39-.83-.66-.88-.77-.14-1.6.08-2.32-.43-.07-.05-.38.23-.72.45,0-.49-.09-.95.08-1.11.45-.39.35-.85.35-1.31,0-1,0-1-1.08-1.36-.49-.15-1-.25-1.47-.42a2,2,0,0,1-.85-.42,4.38,4.38,0,0,1-1.1-1.54c-.23-.74.36-1,1-1.44.86-.59,1.8-1,2.68-1.55a5.44,5.44,0,0,0,.78-.58c.08-.07,0-.25.08-.54L70,16v-1l2.91-1.51-.52-3,1.57-1.41C75.6,9,75.6,9,75.73,6.66h3c.52-.59.06-1.31.58-1.93.68-.83,1-1.34,1.84-1,1.22.54,2.73.43,3.56,1.78a2.84,2.84,0,0,0,.88-2c0-.5.74-.88,1.28-.74,2.07.53,3.8,1.79,5.84,2.67a3.12,3.12,0,0,0,1.1-3.06,11.33,11.33,0,0,1,5.25,3L99.93,4l3.3,3.91.94-.46c1,.2.75,1.07,1,1.63.84,2.16.64,4.32.36,6.81-.26,2.29-.68,4.78,1.07,6.92a2.33,2.33,0,0,0,1.28-2.06c.09-.75-.09-1.53,0-2.27.4-2.38.28-4.85,1.22-7.13a10.26,10.26,0,0,1,2.34-4c.42-.38.63-1,1-1.4A28.06,28.06,0,0,1,114.8,4c.82-.66,1.67-1.29,2.66-2l.56.93c.86-.47,1.73-1,2.64-1.45s1.34-.27,1.66.64c.09.25.1.51.19.75s.28.57.42.85a1.31,1.31,0,0,0,1.43-.57A7.12,7.12,0,0,1,128.09.7c.91-.28,1.83-1,3-.53l-1.55,3.3c2-.68,3.59-1.84,5.64-1.26v2c.86-.36,1.57-.64,2.26-1A7.27,7.27,0,0,1,139,2.51a33.87,33.87,0,0,1,3.75-.42,1.49,1.49,0,0,1,.86.39c.33.24.34.77,0,.78-.87,0-.54,1-1.12,1.24a4.28,4.28,0,0,0-1.12,1.16c-.06.07,0,.25.06.54,2.57-.06,5.22-1.15,7.78.17l-.46.51,2.15.8c-.23,1.3-1.44,1-2.19,1.37a14.84,14.84,0,0,1-2.49.48c-.28.07-.51.39-.8.63.17.38.33.73.48,1.08a6.85,6.85,0,0,1,.35.89,1.06,1.06,0,0,1-1,1.5c-1,0-2.06,0-3.09,0h-1.66l1,.83c.57.46,1.35.85,1.11,1.73s-1.07.88-1.7,1.15a11.6,11.6,0,0,1-1.69.42,5.4,5.4,0,0,0-.58.09c-.57.24-.37,1.27-1.35,1.2a4.57,4.57,0,0,0-1.62.52,9.4,9.4,0,0,1-1.83.56,8.79,8.79,0,0,1-2.61,0,6.38,6.38,0,0,0-3.22,0,9.87,9.87,0,0,0-3.16.89,1.26,1.26,0,0,0-.81,1.38c1.65,1.43,3.64,1.21,5.53,1.07a5.72,5.72,0,0,0,2.41-1.1c1.68-1.11,3.37-2,5.49-1.76a30.24,30.24,0,0,0,3.3,0c.78,1,2.18-.17,3,.82,1.05-.15,2.11.21,3.19-.28a5.74,5.74,0,0,1,2.2-.05c.5.85-.25,1.28-.9,2,1.81-.25,2.71-1.49,3.81-2.28s2.65-1.39,2.89-3.34c-.25-.38-.68-1-1.12-1.66-1.4-2-1.49-3.66.15-5.95h2.48c1.5,2.21,1.18,4.53.56,6.94a4.52,4.52,0,0,0,3.86-1.48,23.34,23.34,0,0,0,4.11-4.48,1,1,0,0,1,.87-.42,14.7,14.7,0,0,1-1,1.77,23.54,23.54,0,0,1-2.19,2.6C161.46,16,160.28,17,159.09,18a4,4,0,0,1-2.91.63c-1.06,1.14-2.12,2.17-3.05,3.31-1.09,1.33-2.67,1.91-4,2.91-.77.59-1.68.23-2.66.52,1,1.58,2.4,1.82,4.05,2.1l-.94,2.42,3,3.58a1.88,1.88,0,0,1,.65-2.16,9.8,9.8,0,0,1,1.83-1.49c1.85-.82,3.76-1.66,5.87-1.25a2.79,2.79,0,0,1,1.66.87,4.59,4.59,0,0,1,1.11,2.65c0,1.26.12,2.67,1.44,3.48,1.67-1,1.67-1.13,1.08-3-.34-1.1-.69-2.18-1.13-3.25a3.47,3.47,0,0,1-.15-2.37,18.71,18.71,0,0,1,.76-2.78c.43-.78.83-1.58,1.25-2.37a1.48,1.48,0,0,1,.25-.31,3.77,3.77,0,0,1,2-1.2c.89-.26,1.28.57,2,1a3.67,3.67,0,0,1,2.47-2.3l.86.81L177.94,18l.33,1.62a6.82,6.82,0,0,1,4.43-2.06l.54,1.37a1.51,1.51,0,0,0,.47,0c.24-.09.44-.34.67-.35,1.64-.14,3.1-1.14,4.83-.86,1,.15,1.22.31,1.28,1.36,0,.34,0,.67,0,1.21a18.39,18.39,0,0,0,2.86-.71c.59-.25,1-.32,1.42.17s.71.44,1.33.12a2.53,2.53,0,0,1,2.28.33,12.5,12.5,0,0,1,3.33,2.38,4.09,4.09,0,0,1,.48,1.13L198.3,25l.5,1.29L196,27.45c.25.67.52,1.37.78,2a6.32,6.32,0,0,1-1.57.65c-.41,0-.84-.3-1.28-.36a14.4,14.4,0,0,0-1.75,0c.44.68.82,1.3,1.23,1.9s.84,1.15,1.27,1.73c-.43,1-1.22,1-2,.81a15.28,15.28,0,0,0-4.24-.74A4.58,4.58,0,0,0,186,34.53c-.83.53-.34,2,.76,2.65.28.16.57.29.89.46a9.8,9.8,0,0,0,1.45-1,4.37,4.37,0,0,1,3-1.16c.27,0,.55,0,.82,0,1.17-.1,2.13,0,2.52,1.42.11.4.59.59,1.13.69a9.48,9.48,0,0,1,2.48,1c.39.2.8.59.24,1.13s0,.78.27,1c.93.58,1.88,1.12,2.84,1.62a6.23,6.23,0,0,1,3,3.33l-1.78.81c1.54,1.17,1.53,3.13,2.46,4.65a1.63,1.63,0,0,1-.4,2c-.51.39-.46.82-.17,1.41a22.68,22.68,0,0,1,1.51,3.92c.42,1.61.49,1.57-.68,3.11-.18.23-.3.79-.17.91.67.68.27,1.65.74,2.41.28.44,0,1.2,0,1.69-.32.31-.76.53-.79.79-.08,1,0,1.93-.05,2.89s-.24,2-.4,2.93c-.06.33-1,.61-1.34.42a3.28,3.28,0,0,1-1-.6,19.34,19.34,0,0,1-1.78-2.35A6.18,6.18,0,0,0,199.24,68c-1.11-.79-1.34-2.08-1.68-3.23a5.11,5.11,0,0,0-1.5-2.43c-.48.58-.87,1.44-1.41,1.56a3.41,3.41,0,0,1-1.84-.39c-.6-.33-.84-.16-1.37,0a1.79,1.79,0,0,1-1.92-.25c-.18-.18-.63-.09-1-.13.12.43.34.8.26,1.08a1,1,0,0,1-.75.57c-.58,0-1.2.27-1.76-.24-.2-.18-.62-.12-.93-.17-.21.58-.4,1.12-.6,1.69l-1.54-.79-.53.71a2.26,2.26,0,0,1-.39-.1,5,5,0,0,1-2.9-2.45c-.18-.41-.66-.69-1-1-.37.38-.68,1-1.12,1.08a1.81,1.81,0,0,1-1.44-.39c-.43-.36-1.08-.64-1.07-1.4,0-.09-.31-.18-.56-.3-.56.64.22,2-1.23,2.18a3.45,3.45,0,0,0-2.82-1.3,1.53,1.53,0,0,1-1-.48c-1.11-1.21-2.33-2.41-2.18-4.24a7.47,7.47,0,0,1,.32-3,3.25,3.25,0,0,0-.4-2.86,1.18,1.18,0,0,0-1.4-.55,8.8,8.8,0,0,0-.34,5.42,31,31,0,0,1,1,4.14c.34,2.38-.63,4.48-1.63,6.54-.46.93-1.37,1.42-2.16,2.46-.46-1.44-.69-2.63-1.78-3.21-.51,1.42-1,2.93-1.61,4.41-.23.57-.39,1.25-1.27,1.34-.23,0-.41.61-.61.94-.7,1.16-1.39,2.33-2.14,3.58-1.54-1.07-1.89-2.91-3-4.14-.55,1.84-1.09,3.6-1.67,5.48a4,4,0,0,1-2.28-3.31c0-.07,0-.14,0-.21a5.32,5.32,0,0,0-.22-1.15c-.21-.48-.78-.06-.83-.1a2.42,2.42,0,0,1-1-2,10,10,0,0,1,0-2c.15-.64-1.06-1.14-.09-1.76-.11-.14-.19-.36-.33-.42-.35-.16-.73-.25-1.27-.43V65.08a.93.93,0,0,0-1-1c-.65,0-1.23,0-1.55-.83a2.54,2.54,0,0,0,.44-.77c.16-1.09.25-2.19.37-3.29a7.86,7.86,0,0,1-4.45-.65,4.5,4.5,0,0,1,1.48-4.08,6.41,6.41,0,0,0,.92-1.32l-1.06-1.67-1.17,1c-.56-.51-1.12-1.1-1.76-1.58s-1.32-.81-2.09-1.28c-.14,1.46.05,3-1.24,4.29A8.78,8.78,0,0,1,130.55,51l-1.45.3c-.24-1-.4-1.92-.68-2.77-.06-.19-.24-.63-.87-.3-.89.44-1.31,0-1.51-.92A14.91,14.91,0,0,0,124.8,43a8.84,8.84,0,0,0-.75-1c-1.24.71-.5,2.1-1.3,2.85-.06.06,0,.28,0,.38a11.94,11.94,0,0,0,2.75,4,7.87,7.87,0,0,1,3,5.1,26.48,26.48,0,0,1,.77,6.54c1.3,1.16,3.16,1.94,3.67,3.76.44,1.54,1.17,3.15.37,4.87,1,.22,2,.37,2.89.65a3.63,3.63,0,0,1,1.51.81c2,2,3.36,4.26,3.11,7.16-.2,2.29-.67,4.56-2.7,6.1a11.39,11.39,0,0,0-.92.92c-.28,1.17.27,2.5-.46,3.67-.1.15,0,.55.19.72a15.73,15.73,0,0,0,1.33,1.25c.29.25.8.39.9.69.41,1.16,1.32,1.36,2.34,1.38,1.51,0,3,.07,4.54,0,2-.11,2.38-.1,3.8,1,.41.32.64.09,1,0a9.92,9.92,0,0,1,3.17,0,4.12,4.12,0,0,0,3.76-1.54,4.22,4.22,0,0,0,.83-2.76,6.93,6.93,0,0,1,1.12-2.63c.32-.41.57-.88.89-1.28s.68-.69,1.08-1.09c1.1,0,2.26,0,3.42,0a3,3,0,0,0,2.63-1.13,5.69,5.69,0,0,0,1.67-2.83,2.75,2.75,0,0,1,1-1.79c1.29-.85,2.33-2.16,3.91-2.5.92-.2,1.83-.91,2.77-.29-1.3.54-2.67,1.06-4,1.67a5,5,0,0,0-2.59,3c-.88,2.32-2.06,4.47-4.59,5.55a4.23,4.23,0,0,1-2.12.34c-1.16-.08-1.42,0-1.92.82a30,30,0,0,0-1.64,4.28c-.51,1.32-.82,2.77-2.4,3.3-.44.84-1.23.74-2,.71a6.57,6.57,0,0,1-3.15-.38c-.36-.2-.93,0-1.6,0,.36,1.55.81,3.16,2.11,3.8s2.75,1.86,4.5,1.56c1.51-.26,2.89.55,4.38.45a3.08,3.08,0,0,0,1.88-.45,2.55,2.55,0,0,1,1.7-.41c.39,0,.94,0,1.13-.22.89-1.06,2.05-.52,3.07-.53a1.25,1.25,0,0,1,1.2,1,3.72,3.72,0,0,0,.85,1.69,6.88,6.88,0,0,0,3.63,2.21,19.66,19.66,0,0,0,4.18.39c1.32.07,2.63.31,4,.38a36.3,36.3,0,0,1,3.91.07,8.11,8.11,0,0,1,2.77.75,9.74,9.74,0,0,1,2.06,1.2c-.36,0-.8.13-1.07,0a8.06,8.06,0,0,0-4.89-1.13c-2.46.22-4.84-.56-7.27-.42-.78,0-1.64-.31-2.31.4-2.2-.17-4.55,0-5.75-2.5a8.53,8.53,0,0,0-.59-.79c-1.12-1.72-1.82-1.87-4-1.29a5.42,5.42,0,0,0-2.11.93,3.08,3.08,0,0,1-1.74.79c-.28,0-.55.32-.9.54.76.76,1.49,1.45,2.17,2.19a4.44,4.44,0,0,1,.87,1.29c.23.6.82.84,1.15,1.34a32.52,32.52,0,0,1,2.7,5.29c.36.85-.34,1.52,0,2.12a5.68,5.68,0,0,1,1,1.87,13.19,13.19,0,0,1,.38,2.11,7.57,7.57,0,0,0,.41,1.9c.21.86-.35,1.63-.64,2.4a11.35,11.35,0,0,1-1.39,2,9.67,9.67,0,0,1,.19-1.56,9.65,9.65,0,0,1,.64-1.39c.09-.17.32-.29.35-.47a1.64,1.64,0,0,0,0-1c-.83-1.57.09-3.63-1.49-5.08a7.87,7.87,0,0,0-1.45.79,3,3,0,0,1-2.1.92c-.22.82-1.62-.11-1.61,1.08a.81.81,0,0,1-.53.15,13.92,13.92,0,0,1-2.5-.44c-.41-.14-.69-.65-1-.95a5.82,5.82,0,0,1,.78-4c.78-1.17,2.13-1.45,3.26-1.92,1.31-.56,2.59.68,3.92.82.78-.84,0-1.53-.29-2a12.64,12.64,0,0,0-3.56-4,11.57,11.57,0,0,0-1.29-.86,12.32,12.32,0,0,1-4.29-3.08H156l-2-2c-1.88.27-3.49-.87-4.42-3-.33-.72-.72-1.5-1.1-2.23a1.31,1.31,0,0,0-.75-.7c-.57-.28-1.15-1-1.74-.7-1.45.69-2.94.17-4.54.42,0,.59-.06,1.25-.07,1.91a7.36,7.36,0,0,0,0,2,2.91,2.91,0,0,0,1.1,1.34c1.47,1.07,3.2,3.93,2.95,5.6-.29,1.89-.41,3.85-1.39,5.61a4.51,4.51,0,0,1-2,1.93c1.24,1.77,1.61,3.88,2.14,5.91a6,6,0,0,1-.1,2.49c1.46,1.14,2.19,3.08,2.73,5.18a2.41,2.41,0,0,1,0,2,14.52,14.52,0,0,0-.81,2.82c.23.39.46,1.26.83,1.32.94.17.54.93.85,1.33,1.22,1.57.66,3.38.65,5.08a3.92,3.92,0,0,1-1.13,2.17,8.85,8.85,0,0,1-3.72,3c-.12,0-.2.18-.44.42a8.69,8.69,0,0,1-4.16,8.07,2,2,0,0,1-1.48.44,4.1,4.1,0,0,0-1.44,0c-1.75.29-2.9-.71-4-1.8a2.93,2.93,0,0,1-.92-2.3c0-1.17,0-2.34,0-3.66-1.47-.15-3-.38-3.93-1.77-.81-1.23-2.14-2.22-1.81-4.06a7.44,7.44,0,0,1-3.21-.85,5.31,5.31,0,0,1-2.59-3.49A18.18,18.18,0,0,1,119,133c-.77.26-1.42,0-2.2.37-1.12.54-2.33-.25-3.28-.78a7,7,0,0,1-2.28-2.52,6.86,6.86,0,0,1-.85-4.18c0-.22.29-.42.52-.75l-1.44-1c-1.73,1-3.08,2.92-4.78,4.47-.07.07,0,.25-.1.36-.75,1.69-1.33,3.44-2,5.16a2.85,2.85,0,0,0,.84,2.91,11,11,0,0,1,2.2,3.84c.07.18.23.37.2.53-.25,1.5.62,2.86.44,4.34a13.48,13.48,0,0,0,2.24,1.27,2.34,2.34,0,0,0,2.44-.4,3.78,3.78,0,0,0,1.09-3c-1-.52,0-1.33-.29-2a2.3,2.3,0,0,1,.19-2.1c.36-.62.23-.75.5-.45a6.87,6.87,0,0,0,3.34,1.94,6.94,6.94,0,0,1,3.64,2.15c.65.84,1.35,1.68.59,2.82a.67.67,0,0,0-.12.36,18.33,18.33,0,0,1-.39,4.79c-.1.43.15.92.15,1.39s-.14,1-.17,1.57a2.63,2.63,0,0,1-2.81,2.42,4.34,4.34,0,0,0-1.76-4.48c-.14.37-1.3.22-.43,1.05,0,1.81,1,3.08,2.21,4.24a9.21,9.21,0,0,1,2.53,3.72,8.65,8.65,0,0,1,.25,1.54c.08.57-.38,1.1-.72,1-1-.22-1.07.61-1.2,1a6.68,6.68,0,0,1-2,2.78,4.88,4.88,0,0,0-3.48.81,3,3,0,0,1-1.07.41c-.72.12-.89.54-1,1.21-.29,1.24-.35,2.57-1.2,3.63-.16.2-.18.59-.36.66-1.34.52-1.86,1.82-2.76,2.76a18.43,18.43,0,0,1-2.46,2c-.21.16-.63,0-1,0-.11-1.06.49-1.8.71-2.65a8.49,8.49,0,0,0,.06-3.06,15.56,15.56,0,0,0-.78-2.59l-1.48.83a8.5,8.5,0,0,1-1-2.63c0-1.37-.51-2.84.34-4.17a.67.67,0,0,0,0-.6c-.66-.91-.54-1.82.43-2.88H98.1c.72-1.08,1.28-1.92,1.83-2.73-1.25-.1-1.27-.09-1.56.81l-.85,2.58a4.73,4.73,0,0,0-1.63.44,5.17,5.17,0,0,0-1.19,1.56c-.22.37-.26.86-.48,1.23a8.87,8.87,0,0,1-.84.9c-.26.33-.46.71-.84,1.29a4.24,4.24,0,0,1-.8-2.3c.06-1.79,0-3.58,0-5.37,0-.8.18-1.63-.66-2.23-.17-.12-.1-.74,0-1.08a17.31,17.31,0,0,1,1.19-2.8c.26-.46.47-.9.16-1.27-.73-.87,0-1.48.32-2.12a1.88,1.88,0,0,1,1-1c1.31-.33,1.38-1.5,1.67-2.4a10.43,10.43,0,0,1,3.12-4.91c.69-.6,1-.6,1.7,0a6,6,0,0,1,1.38,3.15c.37,1.39.81,1.83,2.15,1.79.73,0,1-.37,1.22-1a3.15,3.15,0,0,0,0-2.79c-.29-.54-.22-1.28-.46-1.86a6.18,6.18,0,0,0-1.1-1.81,13.08,13.08,0,0,1-2.29-3.54,25.49,25.49,0,0,1-3.36,2.24,7.05,7.05,0,0,1-4.16.47c-1.3,2.43-2.71,4.75-5.6,5.64.94-.94,1.89-1.85,2.8-2.82a6.89,6.89,0,0,0,1-1.43c.56-1,.41-1.39-.64-1.75l-1.07-.41a2.8,2.8,0,0,1-.82-4.37c.31-.37.67-.68,1-1h2.93c.56.73,1.47,1.14,1.53,2.3,0,.4.26.66,0,1.17s-.06,1.17-.06,2.12a5.32,5.32,0,0,1,2.46-1.75,6.92,6.92,0,0,0,3.67-4.41c.52-1.66.83-3.38,2.07-4.72.73-.79,1.37-1.65,2.09-2.53,0-.11-.09-.37-.22-.44a5.78,5.78,0,0,1-2.74-3.38,7.36,7.36,0,0,1-.25-3.53,6.36,6.36,0,0,1,.64-1.61c-5-3.52-3.34-9.12.89-11.5l-.56-1.94-4,1.06c0,.6,0,1.28,0,2-.09,1-.24,2-.42,2.93a1.22,1.22,0,0,1-.5.61,2.66,2.66,0,0,0-1.56,2.39s-.09.09-.19.19c-1.54.22-2.19-1.85-3.79-1.63l-.63,5.14-1.55,1.9c-2.28-1.16-2.48-3.7-3.47-5.75-1.36.08-1.84.54-1.94,1.68a3.82,3.82,0,0,0,2,3.62c1,.7,2.1,1.32,3.05,2.1.38.32.5,1,.72,1.49,0,.11,0,.37-.05.38-2,.46-.23,2-.76,2.83-.06.1,0,.27,0,.41a4.1,4.1,0,0,0-1.35.62,1.93,1.93,0,0,0-.29,1.3c.09,1.75-.62,3.3-1,5.12l-1.6-1.15-1.22,2.94H82.3c-.3,1.35-.6,2.66-.87,4s-.58,1.68-1.83,1.88l-1-1.5L77.1,140H75.33c-.18,2.07-.32,4-.53,5.93a4.16,4.16,0,0,1-.5,1.14c-1.77-.28-2.08-1.5-2.39-2.81s-.66-2.94-1.94-3.9c-.4-1.45.32-3-.52-4.49l-1.65.85v-1.46c0-.48,0-1,0-1.44s.36-1,.2-1.17c-.43-.53.62-.75,0-1.25H66.6v-3.21l-1-.35c.87-1.16.88-2.54,1.53-3.93-.8,0-1.4,0-2,0a1,1,0,0,1-1-1.18,2.11,2.11,0,0,1,.25-.92A16.15,16.15,0,0,1,65.91,119a1.6,1.6,0,0,0,.29-2.06c-.3-.49,0-1.35-.82-1.63-1.23.14-1,1.35-1.22,2-.28.84-.44,1.41-1.4,1.28a1,1,0,0,0-1.12.67c-.22.9-1,1.17-1.48,1.87-1.28-1.24-.21-2.83-.8-4.19l-4.65,2.74a3.31,3.31,0,0,1-.27-4c.87-1.22,1.78-2.42,2.68-3.64-.38-.73-.87-1.11-1.63-.72-1.42.74-2.82,1.52-4.32,2.33-.61-.53-1.19-.53-2,.17a8.64,8.64,0,0,0-2.46,2.47c-.16.32-.73.43-1.18.67a5.07,5.07,0,0,1-.36-5.59c.34-.69,0-.93-.2-1.52a6.36,6.36,0,0,1,2.75-2,20.32,20.32,0,0,0,3-1.51,1.16,1.16,0,0,1,1.05-1.17c-.21-.3-.31-.57-.51-.7-.59-.37-1.39-.55-1.81-1.06-1.39-1.66-2.72-3.38-4-5.17A10,10,0,0,1,44,94.9a9.55,9.55,0,0,1-.07-3.84c.25-1.19.53-2.39.74-3.6.11-.61.31-1.21.54-2.11-1.45.42-2.6.75-3.75,1.1a11.22,11.22,0,0,0-3,1.21c-1.09.72-2.39,1.27-3,2.68A15,15,0,0,1,33,93.66c-1,1.13-2.12,2.15-3.13,3.15a2.74,2.74,0,0,0,.4.91c.46.44.37,1.35,1.23,1.43a3.78,3.78,0,0,0,2.83-.63,1.77,1.77,0,0,0,.43-.84,5.17,5.17,0,0,1,2.93-3.28,1.26,1.26,0,0,1,1.08-.07,1.94,1.94,0,0,0,1.87.06c.47-.13,1.15.27,1.67.56a.8.8,0,0,1,.15,1.23,8.45,8.45,0,0,1-1,1l.94,1.71-2.63.72c.59.86,1.16,1.69,1.74,2.52l-1.29.77,2,3.65-.63,1.25s-.13.09-.14.14c-.14.79.88,1.53.09,2.37-.55.58-.49.6-.21,1.84.07.3.05.82-.13.94-.78.52-.61,1.28-.69,2a15,15,0,0,1-.48,2.49c-.08.26-.45.45-.7.69a3.51,3.51,0,0,1-1.32-2A16.2,16.2,0,0,0,37,114.37l-1.12.55a4.53,4.53,0,0,1-.64-1.31c-.06-.55-.07-.87-.77-.87a1.16,1.16,0,0,1-.88-.65c-.35-1.24-.81-2.48,0-3.76a3.5,3.5,0,0,0,.26-4.25,2.23,2.23,0,0,0-1.17,2.44,3,3,0,0,1-.82,2.75c-.2.19-.38.55-.58.56-2.05.1-1.83,2.11-3.07,3.31a1.91,1.91,0,0,0-2,1.26c-.36.83-1.3,1.39-2,2.09-.82-.61-.8-1.57-1-2.42a2.93,2.93,0,0,1,0-2.34,1.62,1.62,0,0,0,0-.62,8.26,8.26,0,0,1-.36-2.1,11.12,11.12,0,0,1,.76-1.94,2.07,2.07,0,0,0,0-1c-.25-1.41-.13-1.7.77-2.37,1.7-1.25,3.36-2.56,4.92-3.76l-.92-2.35a2.21,2.21,0,0,0-1.52.15,6.56,6.56,0,0,1-2.23.58A6.56,6.56,0,0,0,21,100,7.47,7.47,0,0,0,19,101.8a3.62,3.62,0,0,1-1.35,1.12,18.13,18.13,0,0,0-3.61,2.73,11.39,11.39,0,0,0-2,2.87,17,17,0,0,1-3.56,4.73c-.48.43-.8,1-1.51,1.41A16.72,16.72,0,0,1,7.86,113a4.93,4.93,0,0,1,1-1,7,7,0,0,0,2.33-4,5.92,5.92,0,0,1,3.18-4.44A1.35,1.35,0,0,0,15,103c1.51-2.65,4.16-4,6.54-5.61A7.5,7.5,0,0,1,25,96.3a8.75,8.75,0,0,0,6.48-3.67c.28-.36.52-.76.82-1.1A22.86,22.86,0,0,0,35,88.3a7,7,0,0,1,2.92-2.43,11.67,11.67,0,0,1,6.2-2,1.54,1.54,0,0,0,.68-.31A8.81,8.81,0,0,0,47.83,81c1.14-1.82,3.22-2.44,5-3.22a35.57,35.57,0,0,1,3.87-1.63c.85-.26,1.67-.64,2.51-.92A5.3,5.3,0,0,0,63,71.49c.34-1.19,1-2.45.6-3.63a14.83,14.83,0,0,1-.39-3.66l-1.45-1.28c-.47.94-1.07,1.88-2.42,1.49a7.37,7.37,0,0,0-.67-1,2.55,2.55,0,0,1-.8-1.94c0-.63-.23-1.07-.87-1.13a1.57,1.57,0,0,0-1.6.81c-.3.5-.56,1-.83,1.52-.67,1.22-1.64,1.29-2.48.17a3.33,3.33,0,0,0-.43-.65c-.44-.37-.4-1.28-1.4-1.1-.27.06-.68-.59-.94-.83a4.3,4.3,0,0,1,.76-3.83c.56-.89.27-1.7.29-2.54,0-.23-.43-.46-.56-.59L48,55.17c0,.11-.19.61-.3,1.11a1.69,1.69,0,0,0-.06,1c1,2.3.76,4.7.76,7.16H46.85c-.18,1-.32,2-.55,2.92a21.66,21.66,0,0,1-.83,2.55c-.11.29-.43.76-.6.74-1.34-.19-1.42.94-1.86,1.68-.22.38-.39.8-.58,1.2-1.12.36-1.43-.76-2.24-1.22l-3.54,5.12-1.17-1.75-2.55,1.29-.67-1.76a22.64,22.64,0,0,0-2.45,2,7.19,7.19,0,0,0-1.63,2.41c-.61,1.74-1.53,3.4-1.71,5.29a18,18,0,0,1-.42,2.51,3.54,3.54,0,0,1-.5.88c-1-.76-2.19-.84-2.37-2.06-1.25-.45-.42-1.93-1.39-2.65l-1.35.68a6.25,6.25,0,0,1-1-3.48c0-.41-.08-1.39-1-.63,0,0-.51-.35-.53-.56A5.37,5.37,0,0,1,18,77.75c.5-1.89.41-2.06-1.54-2.15l-2.08,1.92a4.88,4.88,0,0,1,.5-4.1A10.47,10.47,0,0,0,16.16,68a4.31,4.31,0,0,1-3.27,1C11,69,11,69,10.12,69.43c-.63-1.47.93-1.75,1.37-2.71-.19-.47-.6-1,0-1.61A17,17,0,0,0,13,63.23l-2.27-.62a5.69,5.69,0,0,1,2.86-3.17c-.09-.69-.4-1.4-.2-1.89a5.21,5.21,0,0,1,2.36-2.61c.56-.3,1.12-.62,1.7-.95l-2.08-2.08c.54-1.57,1.71-2,3.24-1.94A7.74,7.74,0,0,0,21,49.81C22.13,49.52,23.32,49.21,23.33,47.46Zm54.15-3.41a6,6,0,0,0,3.68-.61c1-.35,1-.35,1.39-1.37-1.83.13-3.35.87-1.12,1.32-.75.77-1.46,1.18-1.59,1.72s-1,1.24-.09,2.18l.6-1.06.17.08-.42,2.58c1-.69,1.47-1.3,1.35-2.31S81.43,44.82,77.48,44.05Zm7.25,64.6a1.05,1.05,0,0,1-1.06-.43,17.42,17.42,0,0,0-4.45-3.61c-.16-.11-.45,0-.72,0,.17,1.36,1.39,1.48,2.07,2.14a25.88,25.88,0,0,0,2.14,1.75c.75.6,1.22,1.58,2.44,1.91v-1.33c.67.31,1.13,1.16,2.06.83.44,1.33.85,2.68,1.33,4a5.62,5.62,0,0,0,.8,1.12c.47-1.91-1.15-3-1.25-4.56.1-.07.18-.15.21-.13,1.35.69,1.38,2.37,2.51,3.37a3,3,0,0,0-.56-2.62c-.44-.78-.84-1.58-1.31-2.47a1.34,1.34,0,0,1,1.21,1.06.77.77,0,0,0,1.19.5,5.83,5.83,0,0,0,0-.93,7,7,0,0,0-.33-1,2.27,2.27,0,0,0,2-.16c-.74-.23-1.11-.62-.63-1.44a5.93,5.93,0,0,1,1.89,2.45c.21.54.49,1.1,1.43.57-.51-.72-1-1.33-1.4-2s-.69-1.23-1-1.84c-1,.09-.63-1.34-1.7-1.37-.57,0-.89-1.14-1.73-1.23-.23-.9-1-1-1.86-1.25.92,1.49,2.47,2.15,3.11,3.9l-3.32-2.4c.21,1.66,1.6,2,2.31,2.87l-.47.6a14.81,14.81,0,0,1-1.4-.83c-.38-.29-.67-.69-1-1a2.8,2.8,0,0,0-1.48-1,7.84,7.84,0,0,0,1.76,2.09,3,3,0,0,1,1.16,2.17c-1.26-1.27-2.91-2-4-3.42l-.6.6.38.65c-.54.13-.83-.21-1.17-.54a8.77,8.77,0,0,0-2.52-1.53l-.95-1.44a2.32,2.32,0,0,1,2.36.25,2,2,0,0,0,2.7-.24,2.89,2.89,0,0,1,.82-.42,20.76,20.76,0,0,1,.33-2.77A29.89,29.89,0,0,1,87.05,95a2,2,0,0,0,0-1.62c-.8.4-.59,1.8-2,1.6a8.42,8.42,0,0,0,.48-1.33c0-.21-.15-.46-.23-.69a2.1,2.1,0,0,0-.57.38c-.4.51-.41,1.31-1.29,1.75a6.13,6.13,0,0,1,.56-2c.51-.68-.11-.69-.46-1.09l-2.07,4.65c0-.7-.13-1,0-1.2,1-2.32,1.37-4.85,2.8-6.94l-.5-.5A11,11,0,0,0,83,89.1a14.7,14.7,0,0,0-1.53,3.27c-.22,1-.88,1.73-1.07,2.66s-.21,2.11-.33,3.17c0,.11-.25.19-.27.3-.21,1.54-1.26,2.93-.79,4.67.49.24.68,1.15,1.57.94.48.54.94,1.09,1.43,1.62C82.92,106.71,83.83,107.68,84.73,108.65Zm59.42.54a1.06,1.06,0,0,0-1.47.35c-.81,1-2,1.75-2.84,3.22a8.32,8.32,0,0,0,1.47-.18,2.64,2.64,0,0,0,1.67-3.52c.1-.16.17-.44.3-.48,1.34-.37.76-1.76,1.35-2.51-.72-1.14-.66-2.65-1.66-3.65a18.29,18.29,0,0,0-1.92-1.6c-.08-.07-.43.06-.51.18a.76.76,0,0,0,.09.52c.9,0,.61,1.22,1.29,1.3,1.21.13.37,1.09.71,1.54.07.09.23.12.35.16,1,.32-.59.65,0,1l.89,1-.6,1.18c-.39-.1-.75-.19-4.18.58l.33.35c.19,0,.45.1.58,0a20.34,20.34,0,0,0,2.28-1.61,1.39,1.39,0,0,0,.25-1c-.77-.42-.65-1.35-1.11-2.08-1,.7-1.42,1.86-2.42,2.34-.11,0-.1.35-.15.54.23,0,.56.21.68.11.51-.42.9-1.06,1.62-.66-.67.66-1.37,1.34,1,1.17-.48.54-1,1.07-1.42,1.64a3.7,3.7,0,0,0-.27,1c.6-.29.93-.47,1.27-.61A6,6,0,0,1,144.15,109.19Zm-71.81,29.2c.16,1.11-.91,2.11-.27,3.25l.7.18v2.39l.68-.4c.32.64,0,1.05-.25,1.52,0,.09.3.39.79,1,0-1-.15-1.49,0-1.85.32-.62.69-1.14,0-1.74a.4.4,0,0,1,0-.38c1-1.06,0-2.1,0-3.15,1,.05,1.31-.5,1.24-1.43-1-.73-2.36-1.23-2.74-3l-1.42,4.71.25.11ZM200.86,22.94a5.45,5.45,0,0,0-4-1c-.23,0-.41.39-.63.61a11,11,0,0,1,2.4.64c.81.43,1.41.19-2.73-.19,0-.9,0-.9,1.75-1.82-.81-.08-1.41-.28-2,.27a2.83,2.83,0,0,1-1.23.45,1.47,1.47,0,0,1-.55-.05c-.08-.44-.15-.81-.23-1.23-.39.08-1,.12-1,.2-.08,1-1.1,1-1.64,1.5-.13.12-.41.09-.51.22s-.55.21-.36.47a19.29,19.29,0,0,1,4.17.62,6.93,6.93,0,0,0,4,0C197.53,23.41,196.73,23.19,200.86,22.94ZM193.17,57c-.78.21-1.21.61-1,1a8.44,8.44,0,0,1,.82,3.56c0,.27.38.52.79,1a29.88,29.88,0,0,0,0-3,4.47,4.47,0,0,0-1.21-2.6,2,2,0,0,0,.28-2c-.83.32-.86.35-1.36,1.3a12.6,12.6,0,0,1-.56-1.67c-.09-.48-.93-1,0-1.5-1-.14-.6-1.27-1.21-1.68a1.38,1.38,0,0,0-.27-.14l-.45.93a8.5,8.5,0,0,1,.7,1.18c.05.12-.23.37-.34.55l.77.78c-.7.49-.3,1.23-.8,7.69l.39-.2V60.39c0-.62.25-1.42,0-1.82-.49-.66.3-1,.06-1.56-.15-.31-.26-.64-.43-.94s-.39-.46-.05-.94c.46-.66-.61-.42-.7-.66.13-.42.37-.91.28-1a2.05,2.05,0,0,1-.79-2c0-.1-.36-.24-.54-.36-.67.92.4,1.8.09,2.29-.55.86.75,1.63-.29,2.45-.17-.55-.36-1-.46-1.49s.11-1.19-.13-1.36c-.81-.58-.68-1.4-.71-2.23-.33,0-.65,0-.67.09-.09.31-.25.8-.11.94.9.88.56,1.75,0,3l-.73-2.48c-.77.49-.7.49-.68,1a6,6,0,0,1-.17,1.93.89.89,0,0,0,.07.88,3.57,3.57,0,0,1,.22,1.08c-.5-.25-.85-.62-.83-1a13.1,13.1,0,0,0-.7-4.48c-.23.29-.54.5-.54.71,0,1.51,0,3,0,4.54,0,.1-.13.19-.21.29l-.57-.57c.13-.22.41-.59.36-.64-.76-.8,0-2-.77-2.81-.17-.2.14-.8.24-1.27l-.67-.67c.73-.7.48-1.3-.21-1.86-.31.36-1,.53-.43,1.26.29.41.24,2.87.22,3.49a12.41,12.41,0,0,0,0,3.5c.48,1.8.44,3.65.75,5.46.12.71.36,1.09,1.16,1.18-.75-2.06.12-4.18-.57-6.18l.5-.49a6.27,6.27,0,0,1,.57,1.39c.19,1.38.31,2.78.42,4.17.06.71.36,1.1,1.14,1.07l-.65-2.33c.86-.72-.11-1.86.6-2.62a1.57,1.57,0,0,1,.38,0c.18.82.75,1.54.61,2.44-.1.59.17,1,.87,1.3V60.75c1.71-.06.91,1.4,1.31,2,.87-.78.68-1.82.71-2.83l1.06.49c.21.7.41,1.36,1-3.8.14.11.37.2.4.33.3,1.39.55,2.8.86,4.19.05.2.37.33.69.59.46-1.86-.87-3.45-.07-5.18A5.25,5.25,0,0,0,193.17,57ZM71.45,62.93c-1-1-1.7-1.64-2.38-2.39s-1.79-.94-2.42-1.84a6.84,6.84,0,0,0,.51,2c.28.64.67,1.23,1,1.85-.69.69.38,1.2,0,1.83,1.52.12,2.2.29,2.78,1.5.32.68.87.61,1.22,1a1.15,1.15,0,0,0-.29-1.45,20.25,20.25,0,0,1-1.46-1.86.65.65,0,0,1-.08-.28c.27-.09.51-.17-1.75-3.4.87-.18,1.1.66,1.64,1a4.43,4.43,0,0,0,1.07.27A6.63,6.63,0,0,0,69,58.65c-.47-.33-.82-.81-9-8.08,0,.07,0,.15,0,.19a7.59,7.59,0,0,1,.39.66c.63,1.51,2.09,2.28,3.07,3.47,0,0,.12,0,.18,0,1.42.28,2.52,1.24,3.73,1.91a20.91,20.91,0,0,1,2.24,1.29c.7.49,1.48.88,2.24,1.32.36-.71-.19-1-.53-1.19-.51-.37-1.14-.56-1.67-.92-2-1.3-3.89-2.65-5.91-4a4,4,0,0,1,3,1.18,2,2,0,0,0,2,.3c-1-1.55-2.7-2.39-.89,2.62-1.11.06-1.79-1.07-3-1.06a2.86,2.86,0,0,0,1.52,1.52C67.24,58.27,68.16,58.87,71.45,62.93Zm72.36,65.14v-1.16l-1.21-.19.52-1a2.5,2.5,0,0,0-2.55.91,1.71,1.71,0,0,0-.46,1c0,1.06-.65-.35-.89.25a10.81,10.81,0,0,1-1.12,1.78l.21.16,1.78-1.12c-.16.7.39,1.12-.49,1.52-.67.31-1.07,1.24-1.56,1.91-.06.09.1.34.19.62a9.74,9.74,0,0,0,2.45-2.18,1.2,1.2,0,0,1,1.06-.42c.15.57-.24.86-.57,1.21a15.15,15.15,0,0,0-.91,1.24c1.83-.34,2.39-2,4-2.63-.14.49-.14.9-.3,1-.71.35-1.4.65-1.37,1.78a4.28,4.28,0,0,0,1.37-.54,18.47,18.47,0,0,0,1.34-1.67c.45-.53-.22-1.41.57-1.82a6.39,6.39,0,0,0-3.05-5.76,25.17,25.17,0,0,0,.93,2.37c.12.23.54.3.83.45-.25.3-.33.51,0,.9s.18,1-.14,1.81ZM77.3,16.53l1,.45,1-1.44c.3.22.48.45.71.5s.44-.11.66-.18a4.93,4.93,0,0,0-.19-.54s-.12,0-.18,0c-.51,0-.55-.34-.37-.67.06-.1.45,0,.68,0s.52.18,1.22.43c-2.34-2.63-5.33-3.2-7.77-4.7-.06,0-.23.08-.46.17,1.46,1.14,3.27,1.66,4.5,3a3.6,3.6,0,0,1-1.24-.32c-.84-.34-.58.79-1.06.81s-1.1.22-1.52-.34c0-.06-.41.14-.63.22.13.18.23.47.4.53a7.1,7.1,0,0,1,2.49,1.67,3.2,3.2,0,0,1-.76-.15c-.92-.43-1.84-.85-2.79-1.22-.71-.29-.69.14-1,.38.88.65,2.32.4,2.82,1.94l-2.42-1a2.06,2.06,0,0,0,2.31,1.73c.89-.14,1.75-.4,2.63-.61Zm86.85,46.23.28-.06a7,7,0,0,0,0-2.2,35.51,35.51,0,0,1-2-6.38,11.65,11.65,0,0,1-1.83-3.66,34.18,34.18,0,0,1-1.6-4.08c0-.08-.34-.08-.51-.11-.59.85,0,1.55.24,2.27a25.25,25.25,0,0,0,2.07,6.14,35.32,35.32,0,0,1,2.71,6.1c.22.66.45,1.32-1-6.67.73-.12,1-.38.79-.93-1-3-1.74-6-2.88-8.92-.09-.24,0-.54-.13-.77s-.35-.08-.64-.14c-.31,1.36.52,2.41.77,3.58a20.17,20.17,0,0,0,.94,3.73C161.75,51.8,162.37,52.85,164.15,62.76ZM26.07,104.11c-.53.73-1.1,1.45-1.57,2.23-.11.18.12.57.23,1-.22.48-1.19.66-1.13,1.72.73-.18,1.24-.93,2.31-.71a10.89,10.89,0,0,0-1.16.73c-.28.25-.67.55-.71.86a18.46,18.46,0,0,1-.37,2.52c-.2.71.27,1.61.47,2.57.77-1.9.45-4,1.82-5.48-.29,1.63-1,3.2-.58,5a4.54,4.54,0,0,0,1.53-4,13.76,13.76,0,0,1,0-1.44c-.08-1.95-.1-2,.63-3.31.21-.39.48-.75.72-1.14a3,3,0,0,0,.72-1.75c.26-.33.52-.67.79-1l1-1.17a1,1,0,0,0-1.56.06,8.34,8.34,0,0,1-2,1.56A12.43,12.43,0,0,0,25,104.11ZM23.41,79.73A7,7,0,0,0,22,81.87c-.11.17,0,.49.06.75a2.69,2.69,0,0,0,.71,0,8.23,8.23,0,0,0,1-.46l-.9,2c.26.76,1.09-.06,1.31.55a12.64,12.64,0,0,1,.41,1.69A1.28,1.28,0,0,0,25,84.63c-.68-1.57-1.1-3.25-2.27-4.48a1.08,1.08,0,0,1,.69-1.22c1.13,1.34.73,3.3,2.05,4.57a3.48,3.48,0,0,0-.3-2.76A19,19,0,0,1,24,77.93a4.64,4.64,0,0,0-1.61-2.87c.36-.87.75-1.62-3.14.12.81-.82,1.5-2,2.49-2.38s1-.91.93-2l-4.13,3.68.55.54s.1.07,3.22-2.35c-.46,1.13-1.88,1.53-2.19,2.79,0,.06-.24.11-.35.09-1-.17-.57.62-.8,1-.37.57-.52,1-.21,1.47.87.16,1-1.19,1.92-.62-.47.55-1.34,1-.49,2a6,6,0,0,1,.9-.72,3.61,3.61,0,0,1,1.07-.18l-2.05,3.41a3.85,3.85,0,0,0,1-.35C21.67,81.13,22.21,80.63,23.41,79.73Zm50.78,45.8c2,3.74,3.94,7.44,5.71,11.29.3-.3.59-.53.57-.57-.57-1,0-2.21-.77-3.1a1.86,1.86,0,0,1-.48-1.79l1.52,2.52a6.64,6.64,0,0,0-.16-2.68c-.27-.89-1-1.66-.72-2.86l1.68,3.06a7.17,7.17,0,0,0-1.3-5.14c-.28-.43-.58-.86-.87-1.29s-.67-1-1-1.43a5.21,5.21,0,0,0-2.1-1.53,28.17,28.17,0,0,1,3.47,6.06c-.22,0-.33,0-.36,0-.27-.32-.53-.66-.79-1s-.58-.72-.86-1.09c-.54-.73-1-1.5-1.63-2.2-.15-.18-.52-.16-1-.31.89,2.19,2.46,3.72,2.92,5.85-.32-.31-.82.34-1.13-.45a13.79,13.79,0,0,0-1.75-2.78c-.19-.26-.59-.37,2.71,10,.84-1.12.88-1.31.53-1.82a20.54,20.54,0,0,1-2.48-3.69,1.15,1.15,0,0,0-1.12-.62C75.72,131.92,76.71,133.9,74.19,125.53Zm63.45-13c-.21-.08-.34-.18-.44-.16a66.7,66.7,0,0,0-5.38,4.44c1.34.42,2-.79,2.93-1.21,1.24-.57,2.58-1.3-4.16.26l.24.32L133,114.7a17.62,17.62,0,0,1,3.76-2.36c1-.38,1.6-1.31,1.21-2.08a5.26,5.26,0,0,1-.37-2.32A3.17,3.17,0,0,0,135.2,105c-.45,1.23,1.05,1.49,1.24,2.5s.64,2,.79,3.22l-1.34-.1c.52-1,.52-1-.09-1.58l-.2-.25c.76-.41-.32-.74,0-1.12l-1.24-.47c.14-.22.65-.43.12-.71s-1.25-.35-1.3-.62c-.17-1-1-.64-1.25-.5-.93.63-2.2.92-2.66,2.47l2.05-.57-1.05,1.7,1,.59-.22,1.57,2-.5c-.06,1.24-2.19.95-1.42,2.59,1.53-.41,2.49-1.81,4-2.49-.33,1.52-1.75,1.61-2.45,2.48S131.47,115,137.64,112.54Zm3.66,2.83c.35,1.06.63,2.14,1.06,3.17a2.2,2.2,0,0,1-.63,2.74c-1.41,1.34-2.75,2.73-4.15,4.14.2.11.27.18.31.16,1.92-.59,2.84-2.54,4.56-3.4.08,0,.05-.26.12-.36.72-1,.32-2.08.4-3.12.11-1.39-.65-2.41-.78,1.76,0-.23,0-.91-.19-.95-.57-.16-.75-.3-.3-.78-.56-.11-.09-1.24-1-1l.06-.68c-.36-.08-.36-1.26-1.27-.58,0,0-.1-.06-.15-.09l-.25-1.33c-2,.87-3.24,2.75-5.31,3.31l.48.94-1.24.23c.52.7,1.54.81,1.63,1.84l-1.2.18.13,1.13c1.12.13,1.19-1.44,2.39-1.15l-2.57,3.23c.48,0,1.09,0,1.19-.14.76-1.36,2.35-1.61,3.34-2.66-.42,1.56-2,2.23-2.9,3.74a4.62,4.62,0,0,0,1.42-.43c1.58-1.37,3.1-2.81,4.66-4.2C141.38,120.83,141.76,120.7,141.3,115.37Zm-6.2-32.88c.27.07.44.17.51.12,1-.76,1.95-1.52,2.88-2.34a1.48,1.48,0,0,0,.34-.86c0-.15-.11-.47-.2-.48a.77.77,0,0,0-.59.19,7.29,7.29,0,0,1-4.3,2.74,3.2,3.2,0,0,0,.63-.34c1-.86,1.91-2,3.07-2.53s1-.9,1-1.67l-1.94-.21,1.11-.41V75.35a23.83,23.83,0,0,0-2.22-2.17,17,17,0,0,0-2.5-1.32,2.7,2.7,0,0,1-.61.64c-.62-.27-.65.59-1,.58-.59,0-.51.42-.73.71s-.78.45-1.09.76a5.35,5.35,0,0,0-.6,1c-.25.36-.53.69-.79,1l.19.27,1.57-.48a4.67,4.67,0,0,1-.1.76.68.68,0,0,1-.2.27c.47,1.48,1.24,0,2.05.41-.69.21-.21,1.17-1.12,1.16a12.06,12.06,0,0,0-.27,1.55c1.12-.87,1.7-1.84,3.15-2.12l-1.64,2.27.34.77c.9-.84,1.52-1.8,3-2.06l-1,1.27C133.76,81,133.14,81.21,135.1,82.49Zm-80.94,27.4v1.57c1.15-1,2-1.83,2.9-2.58.18-.15.52-.12,1.13-.24l-1.08,1.57.23.2.94-.68,1.2.42c-.49.49-.73.71-.95.95s-.39.5-.58.74a3.64,3.64,0,0,0,1.6-.91c.19-.13.5-.1,1.05-.18a27.37,27.37,0,0,0-5.18,6,1.34,1.34,0,0,0,1-.27c1.1-1.42,2.6-2.41,3.79-3.74.2-.22.6-.27.9-.4l.16.27-3.89,3.89a4.93,4.93,0,0,0,1.27-.18,4.36,4.36,0,0,0,2.15-1.94,2.26,2.26,0,0,1,.75-.91A15.27,15.27,0,0,0,64.42,111c.22-.19.59-.21,3.68-1.86,0,0-.11-.1-.16-.09-1.16.1-1.3,1.81-2.62,1.65l-4.58,4.88.17,1.39c1.4-1.41,3-2.5,3.85-4s2.85-2,.56-2.28c-.19-.78.52-1,.86-1.5s1-.55.67-1.37l-2.18,1.27-.2-.25,1.72-1.71c-1.47-.68-1.67,1.13-2.85,1.09-.15-1.24,1.14-1.5,1.6-2.47-.42,0-.87-.07-1.16.11-.7.42-1.54.67-1.81,1.67-.13.49-.6.43-.87-.27a14.11,14.11,0,0,0,1.08-1.1,3.25,3.25,0,0,0,.26-1l-3.2,2.15-.38-.9c-1.53,1.08-2.91,2-4.28,3v-1.66a7.53,7.53,0,0,1,1.32-1.21c.66-.38,1.49-.46,2.11-.87a7.06,7.06,0,0,1,4.87-1.23,12.69,12.69,0,0,1,4.53,1,2.68,2.68,0,0,0,1,.19c1.76.16,3.46.06,4.86-1.23a2.8,2.8,0,0,1,.42-.23l-2-1.5c.06-.48.21-.81.12-1.05a5.69,5.69,0,0,0-2.58-2.62c-.07,0-.08-.18-.11-.28.14,0,.29-.13.38-.09a4.71,4.71,0,0,1,.66.35c.57-1.48-1.16-1.73-1.54-2.95l1.59.59V95.59l-1.56-.78.06-.23,1.51.26V93.42l-1.71-.14c.49-.46.84-.88.21-1.24a23.31,23.31,0,0,0-2.42-1.15c-.61-.25-1.26-.43-2.09-.72.62-.69,1-.59,1.55-.31a3,3,0,0,0,.94.12c-.68-1.49-1.18-2.81-2.53-3.6l-.23,1.35c-.43-.53-1-.93-1-1.36,0-.9-.66-1.15-1-1.61l-1.09.55c.22.22.36.38.51.51s.51.53.16.83c-.11.1-.52,0-.67-.12C60.16,86,59.61,85.35,59,84.8c-.14-.12-.45,0-1-.08a13.19,13.19,0,0,0,4.06,3.93c-1.09.55-2-.78-3.07,0,.19.2.33.5.54.56a15.84,15.84,0,0,1,5.63,2.17,5.84,5.84,0,0,1-1.48-.26c-1.66-1-3.63-.87-5.39-1.45-.11,0-.35.34-.61.61a22.53,22.53,0,0,1,8.89,3c-1.38.18-2.25-.85-3.37-1s-2.31-.49-3.47-.58-2.27-.91-3.6-.24c.09.2.19.58.27.58a11.24,11.24,0,0,1,3.09.26c2.24.76,4.48,1.5,6.7,2.29.17.06.23.44.42.87-.76-.21-1.25-.33-1.73-.49a5.17,5.17,0,0,1-1.6-.58c-.67-.53-.55.4-.92.4A5.69,5.69,0,0,1,66,97.14l-5-1.88c.24.57.27.9.43,1,.91.45,1.87.81,2.77,1.28.26.13.77.26.55.83l-5.31-1.79c.15.46.2.87.28.88,1.86.13,3,1.71,4.66,2.24.09,0,.06.44.1.81-1.71-.5-2.77-1.93-4.67-2.18.71,1.36,2.28,1.35,3,2.56a10.26,10.26,0,0,1-1.19-.3,21.35,21.35,0,0,1-2.4-1.18c-.65-.39-1.17-.28-2.15.13l5.77,2.67-.15.43c-2.35-.92-4.6-2.24-7.22-2.19,0,.21,0,.29,0,.34s.18.42.29.43c1.87.13,3.38,1.14,5,2-.49.1-1.07.25-1.38,0-.49-.35-.7-.19-1.2,0s-.54.63-.85,1c-.52,0-1.07,0-1.62,0-.19,0-.53.06-.54.12-.15,1.13-1.33.55-1.8,1.11a1.39,1.39,0,0,1-.36.23l.43.43a3.36,3.36,0,0,1-.61.53c-.27.13-.79,0-.63.51.08.27.48.43.83.71-1.18.31-2.19-.88-3.32-.18-.94.59-2,1.07-2.94,1.59a1.63,1.63,0,0,0,1.07.32c.33,0,.65.1,1,.14l0,.23H47.1l-1.52,1.89v3.2l2.49-2.48-1,1.79.25.19L49,112.79a4.89,4.89,0,0,1,1-1c.49-.25.16-1.08,1-1.12.38,0,.74-.51,1.11-.78.17,1-.87,1.22-1.23,1.93l.92.65,1.34-2.17A.94.94,0,0,1,54.16,109.89ZM40,52.91c.32-.74-.41-.93-.63-1.39a2,2,0,0,0-.94-1.15c-.4-.21-.61-.76-1-1.11s-.77-.69-1.15-1c-.2.19-.38.34-.36.36,1,1.51,2.44,2.59,3.37,4.13.1.16.48.14.75.16l-.18,1.55c-1.77-1.53-2.65-3.55-4.83-4.68a4,4,0,0,0,.3,1.09c1.14,1.46,2.32,2.88,3.45,4.35a2.84,2.84,0,0,1,.31,1c-1.54.15-1.21-2-2.75-2,.67,1,1.31,2,1.88,3s1,1.8,1.4,2.72a8.28,8.28,0,0,1,1.16,3c0,1.16.78,1.91,1,2.94a21.64,21.64,0,0,0,1.31,3.6,1,1,0,0,0,.66-1.53c-.28-.64-.21-1.31-.42-1.9A50,50,0,0,0,39,56.66c.87-.24,1.23.49,1.45.9,1,1.8,1.79,3.66,2.6,5.52.66,1.53,1.22,3.09,1.92,4.89.23-.76.62-1.35.47-1.69-.38-.84-.36-1.77-.73-2.58-.91-2-1.26-4.17-2.69-5.91-.2-.25-.11-.75-.15-1.14a48.3,48.3,0,0,1,3.67,6c.18.33.39.64.59,1a2.89,2.89,0,0,0,0-2c-.83-1.58-1.32-3.36-2.59-4.7.1-.81-1.17-1-.87-1.9.25,0,.64,0,.73.15.62,1,1.15,2,1.77,2.95.42.65.94,1.22,1.42,1.83-1.17-3.43-3.53-6.09-5.3-9.14-.27.27-.64.49-.62.66,0,.34.26.91.48,1,1,.15.64.82.69,1.36a5.71,5.71,0,0,0-.77-.55A3.21,3.21,0,0,0,40,52.91Zm90.19,72.68c-.6-.06-.65.85-1.46.67,1.25-1.4-.3-2.63.18-4l-1,.4-.06-1.17.94-.32c-.62.06-.51-.9-1.17-.34-.21.18-1,.17-1,0-.49-.84-1.11-.21-1.65-.24s-1-.21-1,.62a.73.73,0,0,1-.51.18c-.37-.09-.71-.28-1.07-.39s-.81-.19-1.37-.32l1.09,2.58a1.56,1.56,0,0,0-1.43,2l-.7-.62v1.73c.88-.72,1.41-1.56,2.58-1.45-.39.47-.7.8-1,1.17-.09.14,0,.37,0,.55l1.51.39-2.35,2.46.62.58a7.94,7.94,0,0,1,3.16-2.14c-.2,1.28-1.27,1.61-1.69,2.42a1.06,1.06,0,0,0,1.43-.27c.93-1,1.91-1.93,3-3a1.51,1.51,0,0,1-.46,1.73,2.68,2.68,0,0,0-1.15,1.6,21.41,21.41,0,0,0,4.42-3.7c.22-.26.16-.76.25-1.13.42-.68,1.11-1.41.69-2.2a3.43,3.43,0,0,1-.35-1.9,3.17,3.17,0,0,0-1.27-2.74c-.18-.15-.52-.1-1-.18.6,1,.71,2,1.83,2.17a2,2,0,0,0-.12,2c.06.18.21.48.16.52C129.16,124.05,130.33,124.82,130.23,125.59Zm-1.71-9.92.3-1.15-.64-.64c.43-.78.66-1.56-.19-2.24-.26-.21-.33-.38,0-.59l-.61-.62c-.34.41-.66.4-1,0-.5-.59-1-.83-1.72-.24a1.14,1.14,0,0,1-1.07-.13c-1-.71-1.17-.76-1.84-.21a10.47,10.47,0,0,1-1.69,1.38c-.6.32-.91,1.2-1.35,1.85l1.43.33c-.66.79-1.11,1.56-1.85,1.81-.93.31-.35.79-.41,1.17,1.42,0,1.73-1.91,3.36-1.89-.58,1.54-2.19,2-2.79,3.66.48-.11.82-.09,1-.25.67-.59,1.29-1.24,1.91-1.88a.89.89,0,0,1,1.38-.14c-.73.73-1.48,1.45-2.18,2.2a2.54,2.54,0,0,0-.31.77,6.6,6.6,0,0,0,2-1.29,3.33,3.33,0,0,1,2.34-1.1c-1,1-1.72,1.69-2.43,2.46a2.61,2.61,0,0,0-.3.82c.32,0,.5.1.58,0,1.36-1,2.69-2.1,4.06-3.13.18-.14.5-.11.75-.16A6.23,6.23,0,0,0,126,118c-.23.61-1.5.22-1.08,1.46.71-.54,1.79-.19,2.1-1.31,1.71.17,1.59-1.8,2.72-2.31.17-1.52.79-3,.35-4.55-.33-1.07-.6-2.32-1.71-3-.16-.1-.46.05-.7.09,0,.18.08.53.14.53.63,0,.65.42.71.94a12.72,12.72,0,0,0,.5,2.68,8.57,8.57,0,0,1,.24,3.08Zm-22.67,55.77H105a5,5,0,0,1-1.22,3.21c-.15.18,0,.62.08,1.3l.9-1.23.25.13-.58,1.85c1.91-1.67,1.22-3.48-.51-4.48a2.53,2.53,0,0,0,1.17-2c.1-.69.06-1.5-.3-1.58-.9-.2-.78-.84-.52-1.15.44-.52.26-1,.31-1.54a9.29,9.29,0,0,1,1-3.51c.77-1.47,1.63-2.89,2.47-4.37l-1-.46c.34-.16.52-1,1.06-.2a6,6,0,0,0-1.59-7.39l-1.9,1.78c.43.58.86,1,.41,1.83s.27.88.7,1L100.89,160c.29.78.87.28,1.29.62l-1.39,2.28,1.17-.47c.52,1.1-.17,1.75-.91,2.39-.51.45-.93.92-.46,1.57a4.88,4.88,0,0,1,.76-.31c.09,0,.21.12.06,0,0,1.1-1,1.72-.86,3.14l2.09-1.74c-.39,1-.47,1.68,0,2.18l1.52-.48C103.11,170.49,103.3,171.37,105.85,171.44Zm17.3-86.34c.19.67-.35,1-.72,1.34a2.21,2.21,0,0,0-.84,2c1.37-.9,2.16-2.25,3.52-3.1.93-.57,1.47-1.79,2.16-2.73,0,0-.1-.22-.23-.45a7.42,7.42,0,0,1-.92.62,5.59,5.59,0,0,1-.9.3c.68-.9.37-1.94.4-2.92s-.17-1-1.2-1.22a3.8,3.8,0,0,1-.52-.24l.32-.64-.8-1.13-1.19.87c-.37-.44-.36-.92-1.13-1a11.42,11.42,0,0,1-3-1.38l.46,1.6-1-.52a9.73,9.73,0,0,0-1.17,1.28c-.15.23,0,.66.08,1.28-.11.23-1.06-.58-1.09.36,0,.59-1.12.66-.73,1.51l1.29.2a4.58,4.58,0,0,0-.53.9,3.49,3.49,0,0,0,0,.85c1.13.86,1.44-.92,2.4-.58-.51.87-.93,1.71-1.45,2.48-1.22,1.81-1.24,1.79-1.12,2.75,1.55-1.31,2.23-3.34,4.34-4.2-.7,1.91-2.53,2.82-3,4.93,1.88-.91,2.7-2.55,4.21-3.38A6.43,6.43,0,0,1,120,86c-.24.45-.36,1-.61,1.39s-.63.55-.8,1A2.09,2.09,0,0,0,121,86.93,4.17,4.17,0,0,1,123.15,85.1Zm-8.28,9.53c.47,0,.86,0,1.1-.11.72-.45,1.12-1.24,2-1.63a6.25,6.25,0,0,0,1.81-1.75c.11-.13,0-.45,0-.71-2.29.63-3.67,2.16,3.78-.29-1.21-.46-1.62,1.11-2.67.77a9.31,9.31,0,0,1-1.92,1.85,6.49,6.49,0,0,0-2,1.74c-.55.67-1,1.38-1.75,2.29,1.42-.37,2.1-1.65,3.58-1.74-.67,1.42-1.86,2.07-2.64,3.07.53.47.51.42,1,.24a1.27,1.27,0,0,0,.68-.51,10.59,10.59,0,0,1,1.91-1.51l.2.19-2.37,3.27c1.21.38,1.57-.74,2.32-1s.94-1.44,2.36-1.19l-2.53,2.77a3.2,3.2,0,0,0,.26.3s.14.09.17.08l4.95-3.44c0,.35.15.7.05.79-.75.65-1.25,1.58-2.28,1.95-.34.12-.88.53-.24,1.22a11.55,11.55,0,0,1,2.19-1.51,3.06,3.06,0,0,0,2-1.6c.15-.35.7-.56,1.11-.73A2.84,2.84,0,0,0,129.33,96c.07-.13-.05-.36-.09-.55l-1.4.73-.59-.59,2.55-1.3a12,12,0,0,0-.49-2.66,23.79,23.79,0,0,0-1.78-3.18.88.88,0,0,0-1-.46.9.9,0,0,0-.44.29.42.42,0,0,0,0,.37c1.26.4,1.2,1.69,1.69,2.58a3.4,3.4,0,0,1,.7,2.4l-2.36.52-.08-.2,2-1.49-1-.81-1.29.5c.64-.87.19-1.3-.49-1.73l-1.65.84C123.59,90.88,123.56,90.55,114.87,94.63Zm.43,15.67c-.39.6-.78,1.19-1.16,1.79s-1.38.87-1.3,1.92l7-5.62c-.17-2.54-.3-5.12-3.32-6.31a1,1,0,0,0,.8,1.21c.13,0,.22.19.32.28-.76.45.49.73.09,1.14,1,.2.8,1,.83,1.69a1.1,1.1,0,0,0,.16.54c.65.82-.12,1-.58,1.3a3.69,3.69,0,0,0-.25-1.35,14.6,14.6,0,0,0-1.79-3.38c.15-.8-1.1-.63-1-1.41-.41,0-.81,0-1.21-.07-.11,0-.2-.15-.38-.3V100.6a4.17,4.17,0,0,1-1.35.56,8.09,8.09,0,0,1-1.48-.34,1.16,1.16,0,0,0-.75.15c-1.48.87-3.08,1.63-3.78,3.66,1.28-.22,1.59-1.64,2.68-1.8,0,.14.15.28.11.33a9.74,9.74,0,0,1-2.52,2.6c-.6.4-1,.9-.49,1.64.71-.53,1.14-1.36,2-1.71.15.16.33.28.31.34-.46,1.32-1.9,1.86-2.62,3.21l.88.54c.78-.78,1.64-1.67,2.54-2.52.18-.17.52-.17,1.06-.34l-3.59,4.25a3.94,3.94,0,0,0,1.36-.32c.65-.51,1.17-1.16,1.77-1.73a3.47,3.47,0,0,1,2-.93c-1.16,1.36-2.17,2.49-3.11,3.68a6,6,0,0,0-.52,1.64c1.77-1.56,2.9-3.12,4.79-3.82-1.06,1.2-1.76,2.64-2.74,3.53l.33.79c1.43-1.26,2.74-2.42,4.08-3.55C114.72,110.32,115.05,110.35,115.3,110.3Zm-15.7-31a3.25,3.25,0,0,1-.85,1.89c-.32.52-.6,1.07-1.08,1.93a7.33,7.33,0,0,1,1.14-.5c.36-.07.82.13.82-.56,0-.29.33-.58.33-.86a2.57,2.57,0,0,1,.7-1.57,2.54,2.54,0,0,0,.6-2c.21-.15.61-.3.61-.44,0-1,.95-1.26,1.47-1.84.32-.36.71-.66,1-1,.14-.19.11-.52.2-1.06l-2.1,1.32-.84-.42c2.07-1.52,2.07-1.52,2-2.82-.32.18-.57.36-.84.48s-.65.24-1,.36L101.6,71h-1.52l-.14-1.26A9.57,9.57,0,0,0,98.8,70c-.54.18-1,.44-1.6.62-.13,0-.32-.1-.42-.13l1-1.51a5,5,0,0,0-1.07,0c-1,.3-2.35,1.6-3.33,2.5s-1.3,2.13-2.27,3a1.47,1.47,0,0,0-.23,2.14L93,74.54c0,1.45-2,2.23-1.54,4.07l3-3a.86.86,0,0,1,0,.82c-.57.86-1.2,1.69-1.71,2.59-.16.28-.14,1,0,1.06.52.31.49-.26.71-.55.58-.76,1.59-1.28,1.92-2.1s.76-.47,1.34-.53c-1.07,1.43-2.46,2.58-2.47,4.68.42-.22.74-.27.84-.45.87-1.58,2.33-2.62,3.53-3.89.19-.21.58-.24,1.29-.5-2.41,2.41-3.5,4.23-3.41,5.64.37-.28.83-.44,1-.74A5.36,5.36,0,0,1,99.6,79.32Zm3.31,16.94,1.22-1.57L103,94l.51-.91L102,92.8V91.71a6.9,6.9,0,0,0-1.3,0,5.93,5.93,0,0,0-1.19.55c.24-1.22,1.56-1.2,1.67-2.16l-2-.15c.17-.51-.29-1.18.6-1.18.09,0,.18-.46.33-.89-.43.12-.66.11-.79.23-.53.48-1.45.46-1.62.1-.54-1.17-1.17-.52-1.89-.36a10,10,0,0,0-2.29.94c-1.55.76-2,2.16-2.44,3.66a17.61,17.61,0,0,0,1.51-1.32c.19-.17.52-.17,1.08-.34-1.15,1.33-2.09,2.36-2.95,3.46-.2.25-.13.71-.21,1.25l3.11-2.24.24.26-3.06,3.73,1,.45c1-.74,1.74-2.07,3.06-2.77.12.13.22.2.21.22-.62,1.6-2.07,2.64-3.1,4.38a10.17,10.17,0,0,0,1.45-.19c0-.91,1-.69,1.38-1.27a7.3,7.3,0,0,1,1.58-1.61c.17-.15.51-.11,1-.2C94.56,99,93.94,99.9,94,100.82c1.56-.58,2.59-1.84,3.75-2.93a5.21,5.21,0,0,1,1.3-.54C97.59,99,96.38,100.2,96,102a11.05,11.05,0,0,0,1.94-1.79c.56-.7,1.53-1,1.91-1.85,0-.07.38,0,.59,0,.19.78-.53,1-.86,1.5s-1,.55-.7,1.3a5.74,5.74,0,0,0,2.46-1.83,8.71,8.71,0,0,1,1.5-1.36c1.13-.66,1.28-.81,1.15-2Zm81.38-73.12c0,.36-.17.92.51.8a2.25,2.25,0,0,0,1-.48c.77-.63,1.49-1.32,2.23-2,.4-.35.81-.69,1.22-1a1.49,1.49,0,0,0-1.24,0c-.86.57-1.66,1.22-2.49,1.84.1-.3.11-.7.31-.9.95-.92,1.95-1.79,3-2.8-2,.08-3.16,1.36-4.8,2.74.25-.66.33-.88.41-1.1s.16-.44.25-.66l-.25-.2-3.33,2.68c-.06-.92.77-1.42.55-2.46-.55.87-1.15,1.34-1.62,2A36.91,36.91,0,0,0,177.71,26c-.29.55-.46.52-.85.23a2.09,2.09,0,0,0,.4-.45c1.05-2.12,1.74-4.43,3.3-6.29.06-.07-.09-.33-.17-.56-.66.71-1.33,1.31-1.86,2s-.77,1.5-1.28,2.14,0,1.77-1.29,2c.54-1.51,1.07-3,1.58-4.39l-.53-.53c-.61,1.43-1.21,2.82-1.81,4.21-.21.51-.44,1-1.1.73a4.54,4.54,0,0,1,.3-1.28,1.76,1.76,0,0,0,.39-1.29c-.12-.61.46-.77.69-1.16a8.27,8.27,0,0,0,.47-1.1c-1.8,1.54-2.59,3.65-3.37,5.79l-.57-.57a26.53,26.53,0,0,1,1.51-4c.28-.46-.08-1-.61-1.27l-.42.4c0,.5.16.89,0,1.17a34.46,34.46,0,0,0-2.88,8.7c-.78-3.12,1.08-5.54,1-8.49-.4.47-.7.68-.79.95-.45,1.33-.91,2.67-1.23,4a19.68,19.68,0,0,0-.42,3.34c-.07,1.23,0,2.47,0,3.71a2.5,2.5,0,0,1-.18,1.36c-.49.67.41.54.4.81,1.26-.4.18-1.72,1-2.57.14.24.32.39.31.52,0,.31-.19.61-.25.92a6.89,6.89,0,0,0,0,.94,5.37,5.37,0,0,1,.61-.53,6.2,6.2,0,0,0,2.81-3.13c.31-.65-.44-.91-.12-1.37.72-1,.25-2.21.51-3.39l.77.13c-.56,1.55-.56,1.66-.28,4A20,20,0,0,1,177.85,27c.36-.3.59-.43.7-.94.19-.89.54-.94,1.44-.39.64-.82,1.34-1.55,2.55-1.29.19,0,.46-.19.67-.34C183.58,23.73,183.93,23.43,184.29,23.14ZM71,107.7c.54.14,1,.43,1.29.31A28.88,28.88,0,0,0,75,106.6c.85-.47,1.93-.38,2.73-1.11-.33-1.35.59-2.53.78-3.95-1.48.77-1.55.94-1.75,3.84-.73,0-1.74-.3-2.14.06-1,1-2.51,1.11,3.72,1.5a9.33,9.33,0,0,0-1.06-.76c-.44-.21-.45.34-.7.5a28.58,28.58,0,0,1-2.46,1.52c-.35.17-.7.24-.51.61.09.18.57.24.88.23s.44-.19.66-.3a2.29,2.29,0,0,1-.54,1.14c-.24.35-.9.51-.54,1.13l1.42-.32c-2.22,2-4.91,2.59-6.79,4.48,2-.44,3.52-2,6-1.94A50.2,50.2,0,0,1,69.14,116c-.86.31-.69,1.48-1.66,1.44,0,0-.1.23-.09.35a2.08,2.08,0,0,0,.23.43c.23-.12.45-.23.66-.36,1.09-.67,2.19-1.35,3.28-2a1.11,1.11,0,0,1,1.22,0c-.15.14-.19.2-.25.22C70,117.15,68,119,65.74,120.52c0,0,.09.35.17.66a11.75,11.75,0,0,1,3.69-1.87c-.28.36-.35.53-.48.61a17.94,17.94,0,0,0-3.19,2.3c-.26.24-.82.22-.52.72.11.18.65.24.93.14a6.55,6.55,0,0,0,1.15-.7l3.52-2a3.75,3.75,0,0,1,0,.92c-1.12.3-1.82,1.26-2.78,1.77-.76.41-.36.81-.23,1.4l2.5-1.43a9.55,9.55,0,0,1-1.56,2c-.53.65-1.61,1-1.43,2.39l3.18-2.3c0,.31,0,.55-.08.67-.61.79-1.27,1.54-1.87,2.33-.11.15,0,.46,0,.74.59-.26.75-1.2,1.75-.61a8.65,8.65,0,0,1-1.06,1.21c-.47.38-.32.85-.37,1.3s-.18.91-.27,1.36l.23.11,1.16-1.47c.15,1.64-1.31,2.73-.94,4.61.52-1,.84-1.7,1.24-2.36a6.32,6.32,0,0,1,2.1-1.63c-1,1.71-2,3.22-2.2,4.94l.49.84a17.37,17.37,0,0,1,1.79-3.37,2.06,2.06,0,0,0,.47-2.24c-.81-1.23.22-2.69-.71-3.81.69-1.24.51-2.8,1.45-3.94,0-.06,0-.19,0-.28l-.87-.28c.6-.36,1-.66,1.49-.89.78-.38,1.61-.69,1.58-1.8,0-.16.17-.34.29-.49.48-.63,1-1.24,1.45-1.88a10,10,0,0,0,1.53-3.7c.38-1.74-.46-3.44-.46-5.19,0-.28-.07-1.31-1-1.13-.17,0-.37-.09-.59-.14C77.58,107.75,77.86,107.46,71,107.7Zm37.67-60.6c.12-.05.32-.08.34-.15.18-.62-.07-1.32.48-1.88s.21-1.07.22-1.64.66-1,.29-1.59a2.19,2.19,0,0,0,.15-2.46c-.56-.9,0-1.8-.46-2.72a24.77,24.77,0,0,0-3.27-5.24,7.59,7.59,0,0,1-1.15-1.19,4.16,4.16,0,0,1-.69-1.76c0-.61.64-.74,1.13-.92,1.9-.73,3.62-1.88,5.63-2.37a2,2,0,0,0,1-.75c.74-1.07,1.62-2.13,1.25-3.46.48-.39,1.06-.65,1.21-1.06a9.42,9.42,0,0,0,.43-2.5c0-.39-.38-1-.22-1.19.33-.46.18-.9.24-1.35.14-1,.27-2,.43-2.93a1,1,0,0,1,.31-.48,3.49,3.49,0,0,0,1-2.3,3.45,3.45,0,0,1,.8-1.52c.84-1.14,1-2.56,1.7-3.77-.29-.08-.5-.18-.53-.14a19.58,19.58,0,0,0-4.57,12.73c-.42-.4-.74-.57-.72-.71a19.21,19.21,0,0,0,.36-2.1,16,16,0,0,1,1-4.54,16.17,16.17,0,0,1,2.28-5c0-.05-.12-.22-.25-.46-.47.29-1.28.52-1.33.87-.21,1.38-1.22,2.38-1.51,3.73s-1,2.62-1.39,4a7.91,7.91,0,0,0-.16,1.9c-.47-.17-.75-.44-.7-.63.45-1.74.94-3.46,1.44-5.18.19-.66.43-1.29.69-2.09-.31.14-.44.16-.49.24a13.3,13.3,0,0,0-2.42,6.2,25.67,25.67,0,0,0-.49,6.43,2.38,2.38,0,0,1-.15.72c-.53-3.33,0-6.58.39-9.93-.27.11-.55.15-.6.28-.11.29,0,.69-.18,1a8.54,8.54,0,0,0-1.1,4.71c.11,2.21.27,4.43.4,6.64,0,.1-.14.2-.27.39L109,21.56c-1.2,1-.42,2.43-1,3.93l-.26-1.67c-.78,1.11-.54,2.78-2.25,2.92-.6-1,.86-1.64.68-2.62L105,23.6a3.94,3.94,0,0,1,0,1.52c-.35.69-.15,1.73-1,2.05a2.3,2.3,0,0,1-2.27-.31,2.19,2.19,0,0,0-.46-.2l.35-.36c-.12-.09-.31-.29-.36-.26-.37.23-.72.5-1.11.78-.44-.89-1.86-.32-2.29-1.62h2.62a14.45,14.45,0,0,1-4.14-3.05,27.91,27.91,0,0,0-3-2.61A3,3,0,0,0,91.65,19c-1.45-.07-2.9-.08-4.34,0a13.08,13.08,0,0,0-4.13.49c-.93.37-2,0-2.83.69-.35.3-.7-.14-.49-.66L87.41,18c-1-.25-1.73-.48-2.48-.63a13.34,13.34,0,0,1-2.38-.24c-.63-.23-1.48.14-2.23.23-.4,0-1-.12-1.19.09-.69.62-1.52,0-2.13.36a4.73,4.73,0,0,1-2.33.37,4.19,4.19,0,0,1-1.91-.36c-.8-.35-3.9.87-4.83,1.7-.17.16-.65.28-.37.74l3.6-1.68c-.1.36-.1.72-.24.79-.68.34-1.4.6-2.1.9-.07,0-.08.18-.12.28l.59.55c1.61-.58,3-1.7,4.65-2.07-.17,1.2-2,.6-2,2.1,1.36-.2,2.21-1.65,3.8-1.14l-3,2.09.2.38c2.09-.55,3.81-2.1,6.34-2.55a11.69,11.69,0,0,1-3.63,2.16,13.25,13.25,0,0,0-3.26,2.22,15.21,15.21,0,0,0,2.52-.73,8.59,8.59,0,0,0,.88-.37c2.28-1.2,4.87-1.52,7.22-2.5.09,0,.36.34.75.74-3.76.08-6.3,2.44-9.42,3.37l.68.94c3.32-1.95,7-2.35,10.48-3.48v.91c-1.39-.24-2.54.45-3.78.77a12.75,12.75,0,0,0-3.53,1.45c-1,.64-2.55.62-3.13,2.36a6.8,6.8,0,0,0,1.44-.34c.52-.26.94-.81,1.47-.93,2.07-.45,3.87-1.89,6.12-1.68.65-.8,1.63-.09,2.29-.45A4.86,4.86,0,0,1,88.93,24a32.2,32.2,0,0,1,4.59.32c1.35.19,2.66.47,4.08.61a1.3,1.3,0,0,1-1.66.6,16.07,16.07,0,0,0-3.22-.69c-3-.34-5.89.41-8.78,1.11a4.55,4.55,0,0,0,2.33-.07,2.68,2.68,0,0,1,2.15-.17c1.14.51,2.25.24,3.37.34.25,0,.5,0,1.08,0-1.59.81-1.59.82-2.46.82H85.66c-.65,0-.6.35-.35.83,2.12,0,4.25,0,6.37,0a10.59,10.59,0,0,1,3.44.69c1.88.6,3.72,1.33,5.64,1.85a3.55,3.55,0,0,0,3,0c.18-.11.5,0,.87,0-.17.24-.22.37-.3.41a12.9,12.9,0,0,0-2.78,1.23,18.4,18.4,0,0,0-4.53,4,19.88,19.88,0,0,1-1.86,1.93c-.11.13,0,.45,0,.95.52-.4.84-.62,1.13-.86.87-.73,1.73-1.48,2.62-2.17.14-.11.46,0,.69.05-.09.22-.12.5-.28.63-.58.5-1.19.94-1.8,1.41,1.71-.16,2.78-1.74,4.88-1.84l-3.29,2.74c.3.1.46.21.54.17,1.63-.72,3.25-1.46,4.87-2.19a8.29,8.29,0,0,1,.79-.28c-1.75,1.47-3.46,2.95-5.6,3.5v1.08c1.36,0,2.28-1,3.5-1.34,0,.27.17.59.12.63A13.28,13.28,0,0,1,100,42.06c-1.11.29-.9,1-1,1.78l2.15-.92a3.1,3.1,0,0,1-1.33,1.31A12.9,12.9,0,0,0,98,45.28c-.79.72-1.74,1.19-2.54,1.85a11.05,11.05,0,0,1-2.84,1.64,2.31,2.31,0,0,0-1.07.88,7.71,7.71,0,0,1-3,3.05c-.23.13-.33.5-.5.78l1.46.7c1.77-1.7,3.29-3.56,5.55-4.51-1.55,1.85-3.74,3.11-4.85,5.34l.66,1.24c.07-.25,0-.49.17-.61,1.2-1.2,2.41-2.4,3.64-3.57.06-.06.31.1.51.16-1,1-2,1.86-2.82,2.85a23.16,23.16,0,0,0-2,2.86c-.63,1-1.62,1.81-1.82,3.28A4.81,4.81,0,0,0,91.15,59c.64-.81,1.14-1.74,1.78-2.56a1.66,1.66,0,0,1,1.44-.84c-.92,1.46-1.83,2.93-2.77,4.43l.88.55c.11-.5.82-.11,1-.81a8.44,8.44,0,0,1,2.64-4.48,16.18,16.18,0,0,1,4.63-3.28,3.4,3.4,0,0,0,.68-.36c1.49-1.06,3-2.15,4.46-3.2a2,2,0,0,1,.76-.15,4.52,4.52,0,0,1-.74.92c-1.53,1.09-3,2.22-4.67,3.17-.82.48-1.22,1.34-2.16,1.74a6.87,6.87,0,0,0-3.26,3.07c-.39.71-1.07,1.25-1.13,2.29A3.81,3.81,0,0,0,97.13,58a16.1,16.1,0,0,1,1.39-1.68c.11-.12.44,0,.67,0l.28.33a11.47,11.47,0,0,0-3.16,4.64c.37-.1.62-.09.73-.21.79-.9,1.87-1.55,2.37-2.73.1-.24.57-.32,1.17-.62a60.72,60.72,0,0,0-4.11,6.46c.56-.18,1-.2,1-.36.91-2,2.67-3.33,4.15-4.87.16-.16.52-.12,1-.22-2.23,2.31-4.66,4.14-5,7.39.51-.49.83-1.14,1.31-1.62a79.89,79.89,0,0,1,7.26-6.87.64.64,0,0,1,.35-.14c1.18,0,1.12-.94,1.2-1.61a30,30,0,0,0,0-3.29,4.67,4.67,0,0,1,.11-1.19A13.61,13.61,0,0,0,108.69,47.1ZM67.53,83.05c.42-.73,1.26-.43,2-.41a4.1,4.1,0,0,1,3.66,2.81c.2.61.49,1,1.13.89s1.55-.18,2.43-.28c.76.85.76.85.1,1.8-1,1.5-1,2,.26,3.4a5.31,5.31,0,0,0,1,.66c-1.72,1.73-1.71,3.65-1.62,5.59,0,.48,0,1,0,1.47.64.43,1,1.28,1.85,1.45a3.1,3.1,0,0,0,.45-.92c.12-1,1-1.84.25-3.14-.91-1.6-1-1.84.86-2.91a1.45,1.45,0,0,0,.28-.27,2.52,2.52,0,0,0-.78-2.59c-.26-.21-.27-.7-.43-1-.73-1.58-.58-1.9.92-2.82A4.42,4.42,0,0,1,83.08,86a3.68,3.68,0,0,0,0-1A6.76,6.76,0,0,1,83,80.79c.25-.87.59-1.71.82-2.55.3-1.12,1.14-1.51,1.84-2.09a4.7,4.7,0,0,1,2.93-1.37,1,1,0,0,0,1.09-.93A11.55,11.55,0,0,1,90.12,72c.94-2.14,2.06-4.11,4.65-4.64a9.39,9.39,0,0,0,1.92-.87,6.66,6.66,0,0,1-.8-3.84,1.23,1.23,0,0,0-.79-1.48l-2.54,1.26-1.44-.74c-.66.34-1.27.7-1.91,1-.83.38-1.5,0-1.58-.83A5.83,5.83,0,0,1,89,57a3.34,3.34,0,0,0,.34-.6,8.16,8.16,0,0,0-2-1,3.52,3.52,0,0,1-2-.91c.74-1.79,2.39-2.61,3.57-3.9-.48-.39-.62-.76-.15-1.07.86-.56,1.76-1.07,2.64-1.6,1.49-.88,3-1.72,4.47-2.66.41-.27.64-.84,1-1.22.79-1,.54-2.27,1.26-3.28l-1.3-1.18c-1.39.89-2.49,1.83-2.77,3.43,0,.13-.26.23-.33.29l-1.55-1.13c.44,1.29-1,2,0,3a1.6,1.6,0,0,1-.21.28c-.83,1-1.62,2-2.49,2.89a2.61,2.61,0,0,1-1.94.8,7.28,7.28,0,0,1-4-.86,11.93,11.93,0,0,1-2.91,1.85c-1.07.29-2,1.39-3.29.95a2.49,2.49,0,0,0,.31-.37.62.62,0,0,0,.14-.35,6.85,6.85,0,0,1,1.15-4.28c.17-.26,0-.72,0-1.12-.77,0-1.28.88-2.1.15.26-.72.49-1.52.83-2.26a.61.61,0,0,0-.22-.86,7.39,7.39,0,0,1-1.13-.75,6,6,0,0,1-.7-1.2c-3.13-.17-5.5.93-7,3.65a4.8,4.8,0,0,1,.83,1.43,2.57,2.57,0,0,1-.32,1.17,18,18,0,0,1,2.31,1.3c.75.57.75.9.17,1.67-.24.32-.58.49-.09.92.13.12,0,.79-.26,1.06a5.06,5.06,0,0,1-1.09.83c1,1,2,1.83,1.76,3.25a4.54,4.54,0,0,0-.92,0c-.31.08-.58.31-.88.36s-.39-.14-.58-.22c.07.23.07.58.21.66a9.91,9.91,0,0,1,3.49,3.58l-1.27.84c.18,1.14,1.47,2.12.43,3.43-.11.14,0,.52.11.76.21.53.66,1,.65,1.57,0,.9,1,1.69.21,2.7l-4.07-2.77A4.9,4.9,0,0,1,69,67a2.11,2.11,0,0,1-.38.35c-1.38-1.17-1.38-1.17-2.51-1.2a20.74,20.74,0,0,0,0,2.23,6.54,6.54,0,0,1-.88,4c-.73,1.25-1.18,2.82-2.8,3.36-.5.89-1.52,1-2.28,1.47a11.5,11.5,0,0,1-2.77,1.3,34.61,34.61,0,0,0-4.94,2,8.84,8.84,0,0,0-3.31,3,13.71,13.71,0,0,0-2.52,6.21c-.29,2.67-.55,3.79.08,5.65a12.35,12.35,0,0,0,2.92,5.19,13.81,13.81,0,0,1,1.18.93,15.68,15.68,0,0,1,.85,1.5c.49.74,1.77,1.28,2.37.91a4.37,4.37,0,0,1,2.4-.73c.19,0,.39-.36.63-.61L55.67,102l-1.59-.16c.5-2.59,3.05-2.86,4.55-4-.07-.3-.22-.63-.15-.69.72-.58,1.15-1.46,2.12-1.83a1.29,1.29,0,0,0,.94-1.5c-1.18.13-2.27-.42-3.46-.53s-2.42-.12-3.1-1.48a13.71,13.71,0,0,0,1.61-1.94,7.12,7.12,0,0,1,1.77-1.7c1-.8,1-.86.25-1.72s-1.4-1.73-2.25-2.78c.35-.23.56-.48.81-.51.84-.1,1.7-.4,2.51.21.27.21.86.47,1,.37.65-.67.91,0,1.33.27a13,13,0,0,0,1.49.76c.49-1,.93-1.16,1.46-.67.92.86,1.79,1.78,3,3Zm79.8-41.74c.2.24.5.44.59.71.32.91.5,1.86.87,2.74.18.42.56,1,1.17.53-.13-.7-.22-1.34-.38-2-.2-.8-.18-1.86-.93-2.25a12.43,12.43,0,0,1-2-1.66c-.67-.54-1.33-1.09-2-1.6-1-.78-2.11-1.54-3.18-2.28a13.75,13.75,0,0,0-3.37-1.83,30.15,30.15,0,0,0-5.17-1.47c-1.31-.18-2.64-.26-4-.43-.23,0-.43-.28-.65-.4a25.2,25.2,0,0,1-5.14-3.06,18.17,18.17,0,0,0-1.82-1.08c-2.38-1.73-5-1.17-7.47-1.19-.35.29.09.86-.65.6-1.24-.44-1.26-.37-2.1.75a8.1,8.1,0,0,1,.95.55c1.79,1.35,3.51,2.79,5.35,4.07,2.76,1.91,4.77,4.54,7,7-.1.67.78.82.8,1.31,0,1.24,1,2.06,1.28,3.2s.64,2.34,1,3.49H129c-.19-.23-.36-.35-.38-.49A17.19,17.19,0,0,0,125,38.76a1.73,1.73,0,0,1-.16-.66l.37-.25c.22.32.45.64.66,1a46.34,46.34,0,0,1,4.34,8.93,9.86,9.86,0,0,0,1.9,3.92c.08-.23.18-.36.16-.47a25.89,25.89,0,0,0-1.4-5.2,35.84,35.84,0,0,0-3.7-6.72,3,3,0,0,1-.25-.8,1,1,0,0,1,.76.5,45.15,45.15,0,0,1,3.29,5.65c.68,1.64,1.81,3.12,2,5,0,.26.24.51.57,1.17,0-2.49-1-4.27-1.42-6.18s-2.19-3.28-2.62-5.27a1.39,1.39,0,0,1,.73.55c1.38,2.37,2.94,4.65,3.74,7.32.05.17.36.27.75.53,0-.55.16-.93,0-1.19a50.94,50.94,0,0,0-3-6.36,66.12,66.12,0,0,0-5.18-7.78,3.68,3.68,0,0,1-.36-1.17c.39.21.68.27.82.45q1.33,1.7,2.63,3.45A19.78,19.78,0,0,1,131,37.22c1.06,1.89,2.07,3.82,3.1,5.73.48.9,1.28,1.77,1.38,2.71.12,1.15,1.2,1.93.95,3.17,0,.22.56.57,1.22,1.2-.24-.8-.31-1.14-.45-1.46A38.22,38.22,0,0,1,136,44.31a21.25,21.25,0,0,0-2.27-4.64c-.26-.44-1-.91-.49-1.73a39.13,39.13,0,0,1,5.42,11.21,2.51,2.51,0,0,0,0-1.56c-1-2.05-.81-4.43-1.89-6.44-.08-.15.07-.42.19-1,.59,1.36,1.09,2.33,1.43,3.36a19.4,19.4,0,0,1,1.28,4c0,.29.38.55.69,1a4.38,4.38,0,0,0-.61-3.22,7.61,7.61,0,0,1-.88-3.13c-.06-1-1.36-1.72-.66-3,1.1,2,2.14,4,3.19,5.94.45-1.71-.62-3-1.05-4.41a40,40,0,0,1-1.58-4.4c.3.2.44.23.48.32,1,1.87,2,3.71,2.85,5.64.56,1.27.84,2.67,1.28,4,.06.18.32.3.49.44.11-.21.33-.43.3-.62a8.81,8.81,0,0,1-.36-1.69,8.08,8.08,0,0,0-.64-3,12.46,12.46,0,0,1-.24-1.53c1.51,2.14,1.53,4.44,2.48,6.4.06.11-.22.35-.19.51.09.53,0,1.27.94,1.21.5-2.56-.72-4.94-.54-7.42.17.31.12.65.24.93a29.23,29.23,0,0,1,1.65,5.72c0,.24.27.44.4.66a3.8,3.8,0,0,1,.18.47l.38-.12C147.83,46,148.21,43.61,147.33,41.31Zm33.31-4.54c1.22-.81,2.55.16,3.26-1.16-.34-.16-.69-.47-1-.47-3.63,0-7.26,0-10.92,0v.68c2.13.19,2.13.19,2.91,1.09-2.39-.46-4.49.26-6.65.57l6.14.66v.72h-6.11c.66.43,1,.8,1.27.79,2.09,0,4.12.74,6.23.45a3.39,3.39,0,0,1,.78.11c-.38.66-.73.94-1.23.68-1.36-.7-2.79-.24-4.18-.39a1,1,0,0,0-1.18.66c1.45.78,3,.57,4.53.58s3.31.05,5,0c.91,0,1.81-.3,2.72-.38.65-.06.59.34.37.76-2.37,0-4.68.72-7.06.48a18.5,18.5,0,0,0-2.47,0c-.35,0-.69.08-1.14.13,1.5,1.49,3.35,2,5,2.72,1.39.62,1.49.61,2.93,0a4.5,4.5,0,0,1,1.91-.36c.66,0,.6.35.37.77l-1.9.15c2,1.36,4.1.36,6.57.33l-1.43.68c2.12.34,4.08.51,6,1,1.29.34,2.71.15,3.9,1.06a7.54,7.54,0,0,0,2.49.95c2.07.57,3.93,1.67,6,2.4.2-.71-.29-.87-.76-1.17a28.75,28.75,0,0,0-8.38-3.72c-.16,0-.26-.36-.61-.88l10.46,3.75c-.37-.52-.52-1-.81-1.11-1.4-.45-2.63-1.27-4-1.83s-2.63-.59-3.76-1.39a1.19,1.19,0,0,0-.75-.16,2.22,2.22,0,0,1-2-.8c.77,0,1.51.34,2.25.34.93,0,1.6,1,2.31.78s1.45.45,2.16.09c.64.61,1.47.51,2.4.86-1-1.46-2.81-1.27-3.9-2.43,1.37-.43,2.52.91,3.78.07-.3-.2-.56-.41-.84-.57-1.7-1-3.65-1.2-5.51-1.66-.75-.18-1.51-.34-2.25-.55-.08,0-.06-.34-.12-.73,1.12.16,2.13.32,3.15.45a14,14,0,0,1,3,.81c.94.35,1.92.56,3.14.9-.28-.34-.36-.56-.49-.59-1.44-.34-2.45-1.63-4.08-1.68-1,0-1.94-.71-3-.66S193,40,191.9,40c-1.68.13-3.39,0-5.48,0,.46-.46.66-.81.82-.8,2.22.17,4.44-.38,6.66.34,1,.33,2.23,0,3.34.43.63.26,1-.27.91-1.12a2.55,2.55,0,0,1-.86.28c-.22,0-.45-.36-.66-.35a51.38,51.38,0,0,1-5.41-.38c-2.67-.18-5.36-.07-8.05,0a16.21,16.21,0,0,0-2,.3l-.81-.62c1.61-.25,3,.09,4.46-.26-.74-1.05-.74-1.07-1.2-1.08C182.75,36.76,181.88,36.77,180.64,36.77ZM28.89,54.35c-1.52-.07-2.87.93-4.37.6a1,1,0,0,0-.38.07c-2.83.78-5.51,2-8.28,2.93A2.39,2.39,0,0,0,14.5,59.6c1.7-.23,2.93-1.41,4.71-1.68-.25.32-.37.62-.58.73-1.85,1-3.73,1.94-5.58,3-.13.07-.07.5-.12.9l6.43-2.91.59.62c-.41.19-.76.49-1.11.49a2.27,2.27,0,0,0-1.43.58,13,13,0,0,1-2.83,1.6,3.07,3.07,0,0,0-1.69,1.89c.22,0,.4.13.47.08,1.41-1.15,3.15-1.7,4.7-2.58A2.25,2.25,0,0,1,20,62.11c-3,2-6.42,3.1-8.8,6,.32,0,.55.12.68,0,.61-.38,1.17-.82,1.78-1.2a39.74,39.74,0,0,1,3.81-2.26c1.38-.65,2.51-1.8,4.09-2.08.62-.11,1.21-.4,1.83-.57,1.67-.44,3.36-.85,5-1.3a1.66,1.66,0,0,0,.83-.46c.61-.74,1.16-1.54,1.81-2.42a9.86,9.86,0,0,1-1.45,0c-.45-.06-1,.35-1.32-.27l3.54-.62,1.37-4c-.32,0-.51-.08-.7-.09a12.71,12.71,0,0,0-3.35.37c-1.13.29-2.41-.23-3.53.46-2.21-.15-4.23.69-6.29,1.24a13.44,13.44,0,0,0-4.91,2.34c.36.07.57.17.73.12.67-.21,1.31-.49,2-.69,1.46-.45,2.89-1,4.38-1.4a13.84,13.84,0,0,1,4.41-.79c.14,0,.33.06.4,0C27.1,53.68,28,54.31,28.89,54.35ZM17,52.07l.16.47c1.17-.3,2.33-.62,3.51-.89s2.29-.43,3.42-.7a8.18,8.18,0,0,1,3.73.2,24.85,24.85,0,0,0-8.69,2,2.74,2.74,0,0,0,1.57.06,3.19,3.19,0,0,1,1.91-.36c.78.14,1.43-.45,2.1-.39,2.32.23,4.55-.55,6.85-.46,2,.07,2,0,2-2.09,0-.11-.11-.22-.16-.34l-2.28-.1c.93-.57,2-.1,3.12-.63a2.82,2.82,0,0,0-2-1c-1.21,0-2.43,0-3.65,0a4.87,4.87,0,0,1,2.74-.4c1,0,1.93.16,2.92.25C35,46,35.65,44.12,37.77,43.3c2.14,2.22,4.48,4.18,6.22,6.94-.36.06-.69.2-.78.11s-.26-.6-.47-.82a7.91,7.91,0,0,1-1.31-1.28c-.27-.44-1.08-.43-1.12-1.15-.88,0-.71-1-1.26-1.33a4.58,4.58,0,0,0-2.29-1.16,9.92,9.92,0,0,0,1.64,2A15.67,15.67,0,0,1,40.71,49c.77.83,1.58,1.67,2.27,2.57,1.1,1.43,2,3,3.06,4.49.08.11.45,0,.94,0l-3.14-5.38c1.73.43,1.8,2.39,3.43,3-.83-1.61-1.27-3.21-2.35-4.5-.17-.2-.16-.53-.24-.8a22.56,22.56,0,0,1,3,3.52.54.54,0,0,0,.53.11.56.56,0,0,0,.19-.51,34.53,34.53,0,0,0-2.44-3.72,5.55,5.55,0,0,0-2.87-2.26c-.17.87.66,1,.93,1.51a12.22,12.22,0,0,1,.42,1.24,39.37,39.37,0,0,0-3.86-3.78c-1.2-.9-2-2.28-3.59-2.87l-.26,1.25c-.93-.28-.73-1-.69-1.57s-.23-.93-.84-1.31c0,.45-.11.8,0,1,.61.79.33,1.68.39,2.53,0,.63-.25,1-.88,1.14a5.46,5.46,0,0,1-4.2,0c-.31-.16-.8-.41-1-.28-.84.53-1.74.08-2.57.28a20.51,20.51,0,0,0-2.55.83c-.18.08-.27.42-.63,1a15.64,15.64,0,0,1,6.87-.37,24,24,0,0,0-6.43,1.23l1.81.79c-.27,0-.19,1-.79.38-.3-.28-.63-.3-.75.14,0,.13.23.37.39.52s.54.4,1.2.89C22.43,49.7,19.73,51,17,52.07ZM118,56.33c-1.77-2.15-3.3-4.37-5.82-5.54-.14,1-.08,1.31.34,1.59.26.18.71.22.82.45.69,1.38,2,2.2,2.93,3.34.17.19.15.53.3,1.09-.74-.73-1.22-1.22-1.71-1.71a9.23,9.23,0,0,1-1.57-1.62c-.35-.58-1.37-.37-1.33-1.27-.8,0-1-1.21-2.13-.95,1.54,1.7,3,3.3,4.41,4.87a3.67,3.67,0,0,1,1.07,2.4c-1.21-1.55-2-3-3.62-3.55.73,1.08,1.67,2,2.35,3.08s1.73,2,2.13,3.5c-1.07-.1-1.43-.83-1.93-1.32s-.75-1.43-1.19-1.48c-.89-.1-.53-1.37-1.54-1.23a5.14,5.14,0,0,0,.3,1.11c.24.44.55,1.12.9,1.17,1,.13.31.89.65,1.27,1.77,2,2.24,4.71,3.56,7a17.93,17.93,0,0,1,.85,2.33,10.48,10.48,0,0,0,.55,1,16,16,0,0,0-.16-4.23.88.88,0,0,0-.35-.47c-.67-.51-.49-1.17-.33-2,.5.65,1,1,1.17,1.82.21,1,.52,2,.79,3,0,.16.37.24.56.35.72-1.12-.24-2-.16-3s-1.33-1.72-.54-3.13l2,4.24c.53-.58.53-.58.34-1.13a20.88,20.88,0,0,1-.85-2.53c-.24-1.15-.91-2.11-1.16-3.27,1.4,1.47,1.7,3.65,3.24,4.95l.56-.49a32,32,0,0,0-3.55-7.2c.64-.41.93.19,1.13.51,1,1.63,2,3.31,2.92,5,.19.33.39.67.73,1.23a5.93,5.93,0,0,0-.87-3.85,29.86,29.86,0,0,0-2.27-3.2,54.55,54.55,0,0,0-7.94-9.08c-.15-.14-.5-.08-.79-.13,1.76,2.35,3.87,4.23,5.35,6.63C118.21,55.9,118.15,56,118,56.33Zm36.27-5.5c-.93.16-1.62.23-2.28.41s-.95.84-1.63.56-1.28.39-2,.41c-.24,0-.48.24-.71.23s-.39-.21-.59-.34c.16-.15.3-.36.49-.44a3.38,3.38,0,0,1,.93-.12c-.42-.33-.82-.75-.91-.69-.66.43-1.72.11-2.13,1.13l1.21.69-2.39,1.22.49.63c.9.12,1.36-1.13,2.44-.62l-3.05,2c.58.51.58.51,1.31,0,.06,0,.09-.14.15-.14l3-.48c-1.72,1.12-3.9,1.42-5.09,3.72.5-.08.88,0,1-.18.66-.75,1.59-.67,2.41-1a9.79,9.79,0,0,1-2.16,1.93,3.46,3.46,0,0,0-2,2.17c1.95-1.11,3.31-2.73,5.37-3.24-1.47,1.31-3.3,2.2-4.45,4,1.6.21,2.27-1.33,3.67-1.71,0,.35,0,.76-.07.78-.93.25-1.35,1.08-2,1.64a.86.86,0,0,0-.2,1.32l2.58-2L148,63l-1.69,2.6.23.21,1.91-1.51a3.8,3.8,0,0,1-.28.89c-.46.64-1,1.22-1.42,1.89-.16.27,0,.71,0,1.06l.31.15.6-1c0,1.51-1.18,2.66-.85,4.25l1.39-2.38c.3,1-.77,1.63-.07,2.31l.71-.64c-.23.76-.61,1.37-.44,1.63a2.6,2.6,0,0,1,.37,1.31c0,.44-.31,1,.43,1.44V73.14h.25l.29,1.46c1.28-2.58.28-5.2,1-7.63V69.2c1.56,1,1.84,2.88,2.9,4.44a4.88,4.88,0,0,0-.94-3.83,12.44,12.44,0,0,1-.65-1.58c-.55-1-.65-2.41-2-2.73,0-.64.15-1.34-.13-1.7-.52-.68.11-.7.36-1,1.62,3.37,3.3,6.71,4.66,10.25-.28-1,.57-2.09-.36-3-.7-3-2.74-5.39-4-8.16l-.94.43A12.5,12.5,0,0,1,151,55.8c.1-.24.13-.5.24-.73a9.49,9.49,0,0,1,.79-1.52C152.7,52.67,153.44,51.85,154.29,50.83Zm3.52-13.65c-.61,0-1.22,0-1.81,0s-1.3-.2-2,.23c-.32.2-1-.15-1.49-.24.07.38.22.61.38.62,2.75.23,5.48.68,8.21,1.17v.69c-.27-.17-.45-.38-.65-.4a6.14,6.14,0,0,1-2.74-.4,1.33,1.33,0,0,0-1.2,0c-.8.63-1.69.26-2.53.39-.1,0-.17.14-.25.21l.51.53c.35-.12.84-.37.9-.29.38.47.86.35,1.32.36h2.27c.56,0,1,.12,1,.93a20.27,20.27,0,0,0-2.77-.32,25,25,0,0,0-3,.38,3.7,3.7,0,0,0,.61.66c.49.29.88-.54,1.56-.06.45.33,1.33.06,2,.07s.59.36.36.78l-2.36.13c.08,1.37,1.36.22,1.63,1-.33.6-.88.54-1.42.64a8.28,8.28,0,0,0-1.62.69l2.2.16.19.78c.2-.18.43-.28.46-.43A9.08,9.08,0,0,1,159.76,42a8.34,8.34,0,0,1,1.55-1.78c.64-.43,1-1.17,1.85-1.4.47-.13.83-.63,1.26-.94a7.35,7.35,0,0,1,.87-.44,8.68,8.68,0,0,1-.08,2.79c-.16.43,0,.72-.07,1.07a4.83,4.83,0,0,0-.24,1.55,4.7,4.7,0,0,0,.43,1.24c-1,0-1,0-1.4-4.78h-.71v5.45c-.31-.27-.54-.37-.56-.5-.16-1.11-.27-2.22-.41-3.4-.24.08-.58.13-.58.19,0,1.26-.67,2.38-.18,3.79.65,1.85.91,3.84,2.1,5.81,0-2-1-3.72-.69-5.76,1.09,1.22.8,2.7,1.45,4.06l.22-2.68.47-.15a12.21,12.21,0,0,0,1.1,2.57V43.33c.74.42,1.08,1,.7,1.55-.59.93.23,1.49.42,2.21l.51-.08c0-.44,0-.9,0-1.36a3.38,3.38,0,0,0-.17-1.37c-.29-.57.35-.87.21-1.4-.08-.33.17-.75.27-1.13a2.52,2.52,0,0,0-1.13.77c-.18.18-.38.34-.89.78.1-1.19-.07-2.09.27-2.73.45-.86-.14-1.76.37-2.53.47,0,.94-.2.58-.68s-.41-.74,0-1.19c.17-.18.06-.62.09-1.29-.53.54-.87.82-1.14,1.16a1.19,1.19,0,0,1-1.49.27c-.93-.92-2.26-1.15-3.3-2,.58-1.06,1.2.41,1.74-.24.14-.61-.29-.82-.82-1.06a28.28,28.28,0,0,0-3.35-.91,15.06,15.06,0,0,0-3.37-.29c-.09,0-.23.36-.37.6l3.36.71c-.92.34-1.93.06-2.63.41s-1.88-.93-2.23.58a6.78,6.78,0,0,0,2.06.37c.68-.08,1.23.33,1.88.21s.75.28.81.81c-1.31,0-2.61,0-3.91,0-.67,0-.57.39-.27.86h3.46ZM113.05,85.73a8,8,0,0,1-1.15.49,2.8,2.8,0,0,1-.7-.06c.09-.21.15-.6.27-.62,1-.16.58-.76.35-1.19-.12-.24-.54-.31-.8-.5a1.69,1.69,0,0,1-.31-.43L111.83,82c-2.31-.18-2.67-2-3.41-3.55l-.8.46a6.66,6.66,0,0,0-1.19-1.13.67.67,0,0,0-1,.23c-.45,1.11-1.58,1.6-2.29,2.51a11.71,11.71,0,0,0-2.29,3.61c-.1.32-.26.62-.52,1.22,1.38-1,1.68-2.42,2.92-3,0,.13.12.21.1.24q-1.12,1.92-2.26,3.82a.93.93,0,0,0,.22,1.42,13.44,13.44,0,0,1,2.48-2.91c-.06.59,0,.82-.11,1-.57.87-1.16,1.72-1.75,2.58-.33.48-.38.91.22,1.51a8.08,8.08,0,0,1,.62-1.09c.3-.37.69-.67,1-1s.37-.68.61-1a1.84,1.84,0,0,1,1-.74c-.82,1.6-1.83,3-2.6,4.93.65-.14,1.25-.11,1.34-.31.72-1.67,2.33-2.68,3.12-4.28,0-.08.35,0,.68,0a8.55,8.55,0,0,1-1,1.49c-1,.94-1.22,2.27-1.93,3.35-.12.19.14.63.27,1.17.53-.68.85-1.14,1.23-1.57s.78-.79,1.18-1.19a2.55,2.55,0,0,1-.47,1.31c-.28.63-1,1.25-.07,2.41C108.62,90.42,111.59,89,113.05,85.73ZM33.18,68.27c1,.88,1.62,2.48,2.25,5.49.25-.35.55-.57.53-.77a21.94,21.94,0,0,1-.35-2.51A5.05,5.05,0,0,0,35,68.23c-.12-.26-.19-.53-.4-1.1A3.39,3.39,0,0,1,36,69.33c.35,1.29.79,2.55,1.24,3.81.07.2.4.3.95.67-.24-1.29-.4-2.17-.55-3.06a17.93,17.93,0,0,1-.39-2.51c0-.84-1-1.62-.16-2.58l2,5.42c.91-.09.61-.68.46-1.17a8.69,8.69,0,0,1-.7-3.21,5.91,5.91,0,0,0-.75-2.79c-.21-.44-.37-.9-.74-1.83.64.4,1,.48,1.05.67A21.42,21.42,0,0,1,39.7,67a17.17,17.17,0,0,0,1.66,4.88,2.74,2.74,0,0,0,.51.44c.1-.22.32-.44.29-.63-.06-.37-.39-.73-.37-1.07.1-2-.68-3.84-1.29-5.67a25.07,25.07,0,0,0-3.29-7.1c-.16-.22-.56-.28-.67-.51a4.13,4.13,0,0,1-.25-1.08h-1.1l1.32,2.62c-1.22.72-.8-1.22-1.67-.91-.54.53.95,1.85-.75,1.95-.14-1-.36-1.44-1.56-3.11.3.64-.29.51-.09,1.08a36.86,36.86,0,0,1,1.3,3.61c.18.7-.46.55-.41,1.18L32,60.34c-.19.19-.49.37-.46.48.28,1.08.59,2.15.94,3.21,0,.1.35.11.53.17l-.85,1.91A10.69,10.69,0,0,1,31,62.31c0-.89-.2-1-1.31-1,.53,1.2.62,2.5,1.32,3.6-.32,1.54.55,2.8,1.08,4.09a20,20,0,0,1,1,3.51,4.35,4.35,0,0,0,.55,1L34,73.4C33.73,71.69,33.46,70,33.18,68.27Zm71.73,4.3c1.2.46.84-.8,1.4-1.07a2.92,2.92,0,0,0,1.25-1.5c.2-.44,1-.62,1.51-.94,0,.18.06.27,0,.3-1,1.33-1.88,2.68-2.9,4a1.17,1.17,0,0,0-.18,1.55,9.77,9.77,0,0,1,1.58-2c.67-.51.55-1.89,1.93-1.76,0,1.32-1,1.91-1.58,2.59v1.54c1-.54.92-2,2.37-2.11a7,7,0,0,0-.95,1.66c-.12.57-1.14.91-.45,1.7.4.45,0,1.38.91,1.55.09-.51.15-1,.27-1.53s.28-.82.47-1.37c.58,1.34-.48,2.8.82,3.79.4-.7,1-1.53.55-2.2a3.75,3.75,0,0,1-.35-1.93,4.21,4.21,0,0,0-.36-1.51,15.41,15.41,0,0,1-.88-3.13c-.13-.57.13-1.15-.31-1.75-.22-.31.25-1.06.29-1.62a8.47,8.47,0,0,0-.11-1.81c-.11-.67-.61-1.17-.37-2,.16-.59-.48-1.4-.74-2.11-.35-1-.67-1.93-1-2.94a2.24,2.24,0,0,0-.53,0,1.23,1.23,0,0,0-.53.21c-2.14,1.66-4.39,3.22-5.91,5.53a4.13,4.13,0,0,0-1,2.59c.7-.84,1.27-1.57,1.9-2.25.17-.19.51-.23,1.07-.47-.7,1.13-1.23,1.91-1.7,2.74a.84.84,0,0,0,.34,1.26c.92-.91,1.83-1.83,2.76-2.71a4,4,0,0,1,1-.44l-2.84,3.83L103,69c1.28-.93,2-2.35,3.49-3-.17,1.59-2.06,2.13-1.86,3.86,1.52-.41,2-2.2,3.67-2.64C107.2,69.19,105.6,70.56,104.91,72.57ZM94,12.81c.24.62.46,1.08.6,1.57s.44,1.19.26,1.61c-.29.65.28.88.32,1.32a1.1,1.1,0,0,0,.6-1.47c-.24-.72-.55-1.43-.74-2.16a.93.93,0,0,1,.68-1.21c1.33.91-.28,2.76.94,3.49l.91-.44c-.55-1.67-1.15-3.13-.75-5,.88,3,1.67,5.75,2.46,8.49l.37-.08c-.14-1.61-.29-3.21-.44-4.82a1.79,1.79,0,0,1,.73,1.39,3.86,3.86,0,0,0,.44,1.49c.13.43-.07.89.26,1.35.21.28-.56.76,0,1.3.29.26.17,1,.25,1.65.3-.43.59-.67.66-1s-.22-.53-.22-.79.33-.71.22-.91c-.3-.53-.58-1,0-1.5-.63-.47-.21-1.15-.35-1.72-.22-1-.46-1.93-.71-2.95.23,0,.57,0,.58.09.22,1.4,1.16,2.63,1,4.15a4.38,4.38,0,0,0,.22,1.55,6.92,6.92,0,0,1,.18,2.68c-.06.56.18.74.82.48a5.92,5.92,0,0,0,0-.73c-.13-1.19-.28-2.37-.41-3.55a23.84,23.84,0,0,0-.48-4.35c-.31-1-.27-2.19-1.14-3.05-.32-.31-.25-1-.46-1.44s-.62-1.11-.93-1.66l-.28.1.27,1.11-.21-.21-.24.81c-.53-.73-.91-1.27-1.31-1.79s.05-1.4-1.06-1.59c.5,1.79,1.37,3.45,1.1,5.31a21.89,21.89,0,0,0-3.42-6.93,5,5,0,0,0,.77,2.69,2.76,2.76,0,0,1,.55,2.79L94,5.08c-.43,1.49.69,2.43.64,3.64-1.61-.2-1.21-2-2.54-2.56.16.55.24,1,.39,1.36.29.77.65,1.52.91,2.31,0,.13-.31.39-.67.82-.15-2.4-1.4-4-2.45-5.69,0,.64-.44,1.26.22,1.86a2.14,2.14,0,0,1,.44,1c.17.69.23,1.41.44,2.09s.5,1.17.74,1.76-.29,1.51.44,2.09c-.28.92.85,1.73.14,2.62l.51.5c.14-.13.29-.25.42-.39a.94.94,0,0,0,.2-.33c0-.13.07-.35,0-.4-.52-.4,0-1-.25-1.42C93.15,13.75,93.47,13.24,94,12.81ZM157.45,60.4c-.73-.19-1.18-.2-1.22-.33-.52-1.72-1.9-3.06-2.12-4.91,0-.23-.39-.42-.72-.76,0,.43-.13.65-.07.82a34,34,0,0,1,1.25,4.44c.13.6.84,1.21.74,1.71-.18.92.78.9.91,1.49a4.39,4.39,0,0,0,.46,1c-.26.09-.46.2-.48.17a5.32,5.32,0,0,1-1.2-1.65c-.48-1.75-1.61-3.18-2.24-4.86-.07-.2-.32-.33-.49-.5a10,10,0,0,0,.63,2.79c.79,2.08,1.34,4.26,2.79,6.09a3.64,3.64,0,0,1,.94,2.28c0,.28.78,1.19,1.21,1.56-.42-1.77-1.28-3.39-1-5.32.84.65.72,2,1.66,2.49l.52-.53c-.23-.92-.94-1.69-.64-3l1.26,1.21c.8-1.23-.69-1.94-.46-3.2.34.27.63.38.72.59.72,1.62,1.43,3.26,2.06,4.92.24.61.47.53.85.24-.94-2.67-1.87-5.33-2.82-8a2.14,2.14,0,0,1,.29-.05c.07,0,.18,0,.2,0a47.09,47.09,0,0,1,3,6.76c.25-.45.67-1,.57-1.09a9.1,9.1,0,0,1-1-3.29A29.84,29.84,0,0,0,160.18,55c-.78-1.47-1.4-3-2.1-4.53-.22,2.32,1.06,4.29,1.52,6.87-.46-.47-.71-.6-.79-.8-.47-1.32-.83-2.69-1.4-4-.31-.7-.12-1.71-1.18-2.14a5.45,5.45,0,0,0,0,1.86c.56,1.43.74,3,1.44,4.36a1.31,1.31,0,0,1-.11,1.36,24.71,24.71,0,0,1-2.23-4.66c-.05-.18-.32-.3-.48-.45a5.2,5.2,0,0,0-.32.62.53.53,0,0,0,0,.41C155.68,55.86,155.63,58.27,157.45,60.4Zm19.09,1.49.32,0V58.46c0-.69-.27-1.57.06-2a2.66,2.66,0,0,0,.27-2.33,7.19,7.19,0,0,0-.28-1.59c-.27-.61.07-1.44-.44-2.09-.08-.11.21-.5.32-.76l-.46.34,0-.92c-.13.8-1.18,1.31-.36,2.11a3.38,3.38,0,0,1-1.26-.3c-.71-.36.27-.57.11-.93a5,5,0,0,1-.41-1.27c-.06-.52,0-1.05,0-2-.84,1.5.11,2.83-.74,3.88-.06.07.27.39.31.61a1,1,0,0,1-.79,1.27c-.12-.63.23-1.41-.43-1.87a2.19,2.19,0,0,0,0-2,6.6,6.6,0,0,1-.12-2.11c-.7.92-1,1.39-.71,1.76.76,1-.71,2.15.37,3l-.63,2c-.26-.39-1-.6-.35-1.3s-.21-.78-.42-1.13A2,2,0,0,0,169.82,53a6.93,6.93,0,0,1,0,1.44c0,.66-.38.58-.86.29a8.74,8.74,0,0,1,.19-2.57c.53-1.35.07-2.69.26-4-.88-.5-.1-1,0-1.51s.12-.89-.66-.76a4.17,4.17,0,0,0-.2,2.19c.44,2.08-.41,4.13-.37,6.22-.79.72,0,1.94-.47,2.44-.79.81.09,1.21.09,1.78s.12.56,1.24,1.26a6.69,6.69,0,0,0-.18-1.83c-.26-.66.41-1.16.18-1.78,0-.07.38-.29.83-.61a14,14,0,0,0,.62,5.71c.22-.16.55-.29.56-.44,0-1.1,0-2.2,0-3.3,0-.65.35-.59.68-.41.19,1.65.37,3.24.56,4.82.08.66.42.54.88.21V57.63c.38.31.67.44.74.65a8.51,8.51,0,0,1,.19,1.16,8,8,0,0,0,.25.93,1.27,1.27,0,0,0,.82.79c0-1.18,0-2.21,0-3.23,0-.66.36-.59.69-.4ZM129.68.7c-1.08,1.09-2,2.08-3,3s-2,1.65-3,2.49c-.07-.18-.14-.27-.12-.29.93-1.11,1.87-2.2,2.86-3.36-.25,0-.51-.1-.61,0-1.13,1-2.26,1.9-3.33,2.91a16.64,16.64,0,0,0-1,1.41c-.1.12-.35.12-.53.17-.06-.22-.23-.52-.15-.67s.6-.46.68-.75c.21-.74.92-1.48.07-2.49a42.43,42.43,0,0,0-2.73,4C118,8.68,117.4,10.39,116.7,12c-.34.79,0,1.69-.53,2.48-.25.35,0,1,0,1.94.59-.83.85-1.49,1.33-1.82,1-.7,2-1.5,3-2.14a3.75,3.75,0,0,0,1.25-1.33,1.53,1.53,0,0,0,1.52,0,5.73,5.73,0,0,1,1.52-.81,7,7,0,0,0,3.5-2,16.58,16.58,0,0,1,1.85-1.47c1.2-.92,2.42-1.82,3.59-2.78.31-.26.91-.52.24-1.35-2.47,1.78-5,3.49-7.58,5.65.4-2.17,2.92-2.28,3.43-4.13-1.78.19-2.7,1.67-4.13,2.31,0-.23-.11-.43,0-.49,1-1.06,2.06-2.18,3.2-3.14A2.08,2.08,0,0,0,129.68.7Zm-17.94,45c2.66,3,5.48,5.25,7.63,8.13a104.12,104.12,0,0,1,6.12,8.81c.49-1.73-.75-2.72-.89-4-1.25-1.44-1.93-3.28-3.34-4.61-.15-.13-.13-.43-.28-1,2.92,2.6,4.43,5.78,6.43,8.59l.6-.6c-1.3-3.23-3.37-6-5.33-9.08,1.66.43,1.6,2.06,2.53,2.75s1.26,2.37,2.89,2.82c-.61-1.08-1.12-2-1.65-2.9a13.5,13.5,0,0,0-1.72-2.78c-1.29-1.3-2.47-2.7-3.81-4a87.74,87.74,0,0,0-7.28-5.94,4.07,4.07,0,0,0-.91-.35c.14.48.13.78.28.91.44.38,1,.65,1.41,1A21.33,21.33,0,0,0,116.94,46c2,1.27,3.26,3.14,4.91,4.74a.89.89,0,0,1-.72-.09c-1.76-1.59-3.51-3.18-5.23-4.81a14.43,14.43,0,0,0-3.38-2.2,8.21,8.21,0,0,1,.68,1.18c.21.68,1.18.4,1.37,1.27.12.57.9,1,1.39,1.48.92.92,1.86,1.83,2.76,2.78a3.93,3.93,0,0,1,.42,1c-1.36-1.11-2.52-2-3.59-3A9.68,9.68,0,0,0,111.74,45.7Zm92.59,9.91a5,5,0,0,0-3-3.09c-3.16-1.58-6.24-3.5-10.17-3.8a7.25,7.25,0,0,0,2.28,1.73c.74.47,1.1,1.56,1.85,2,1.8,1,2.67,2.74,3.83,4.22,1.49,1.9,1.66,4.39,2.47,6.6a10,10,0,0,1,.06,2.46A10.52,10.52,0,0,1,202,68c-.24,1.58.8,2.57,1.4,3.78a.4.4,0,0,0,.35.09c.15-.08.37-.27.34-.37-.15-.69-.36-1.36-.54-2-.26-1-1-1.85-.5-3L205,70.21a10.68,10.68,0,0,0,0-1.47c-.17-.92-1-1.75-.4-2.78-.62-.92-1.26-1.82-1.84-2.75a3.26,3.26,0,0,1-.21-1,15.84,15.84,0,0,0,1.68,1.65c.49.35.24,1.34,1.2,1.26a12.47,12.47,0,0,0-1-2.64,37.77,37.77,0,0,0-2.74-3.21c-.12-.15-.23-.31-.58-.78,1.63.5,2.06,1.92,3.24,2.33.22-.88.16-.81-.33-1.33-.68-.7-1.62-1.21-2-2.48,1.52.42,2.34,1.89,4.26,2-.69-.76-1.07-1.2-1.48-1.63s-.95-1-1.47-1.45a4.36,4.36,0,0,0-1.44-1,1.87,1.87,0,0,1-1.3-1.36A7.94,7.94,0,0,1,204.33,55.61ZM80.73,122.85l-.33.26-2.49-2.49-.34.25a77.26,77.26,0,0,1,5.77,10.19c.41-1-.27-1.73-.42-2.52s-.43-1.66-.65-2.49l.25-.07,1.59,2.07.28-.12-1-3.43c1.3,1.2,1.29,3,2.9,3.4A16.74,16.74,0,0,0,86,126a14.12,14.12,0,0,0-.72-1.57l.5-.49,1.35,2.34c.31-1.27-.28-2-.5-2.75a15.64,15.64,0,0,0-1.1-2.35c1,.36,1.06,1.55,2,1.82.59-1.25-.74-2-.7-3.52l1.49,1.86c.15-.23.59-.29.21-1a11,11,0,0,0-2.42-3.51c-1.2-.95-1.69-2.37-2.56-3.52A19.13,19.13,0,0,0,80.88,110c-.16-.11-.46,0-1,0a35.75,35.75,0,0,1,5.2,7.27,5.61,5.61,0,0,1-1.53-1.5c-.4-.62-1.34-.72-1.45-1.64,0-.3-.54-.89-1.13-.15l3.83,5.43c-.6-.1-1.29.41-1.31-.6a1.52,1.52,0,0,0-.67-.11.85.85,0,0,0-.08.53c0,.18.22.31.34.47-.6-.36-1.52,0-1.78-1a1.18,1.18,0,0,0-1.46-.88c.76,1.73,2.25,3,2.76,4.89a1.48,1.48,0,0,1-1.47-1c-.24-.74-.82-1-1.25-1.55-.17-.19-.51-.23-.88-.39C79.62,120.89,80.17,121.87,80.73,122.85ZM42.17,43.92c0,.25,0,.48,0,.5A8.14,8.14,0,0,0,44,45a20.41,20.41,0,0,0,8.51-.86,8.14,8.14,0,0,1,2.95-.34c.35,0,.72.39,1.06.37a15.7,15.7,0,0,1,4.16.44c.57.12,1.13.29,1.69.41s1.39-.31,1.89.41c1.19-.25,2.27.94,3.69.15A11.08,11.08,0,0,0,66.66,45a6.93,6.93,0,0,1-1.34-.24,16.83,16.83,0,0,0-6.23-1.41,17.81,17.81,0,0,0-1.82,0c.24-.43.33-.78.47-.8a12.4,12.4,0,0,1,2.92.34c2,.13,3.86.54,6.17.84A5.09,5.09,0,0,0,65.7,43c-.87-.25-1.82-.3-2.68-.53a17,17,0,0,0-4.64-.73,12.87,12.87,0,0,1-2.06,0c-.33,0-.62-.36-1.32-.8h2.24c.62,0,1.24,0,1.85,0s1.34.43,1.58.2c.74-.69,1,.41,1.64.24a8.92,8.92,0,0,1,2.14,0,6.92,6.92,0,0,0-1.56-.8,7,7,0,0,1-2.12-.38c-.55-.27-1.35,0-2-.07s-1.4-.34-2.1-.37c-.42,0-.89.42-1.27.34s-.91-.48-1.49-.38c-.33.06-.72-.09-1,0-1.56.59-3.22.5-4.82.82a14.85,14.85,0,0,0-1.72.53l0,.28H50a1.05,1.05,0,0,1-.76.62c-.37,0-.92-.26-1.08-.1a1.66,1.66,0,0,1-1.54.29,11.84,11.84,0,0,0-4,.7,6.24,6.24,0,0,0,1.6.15,2.28,2.28,0,0,1,1.51.36c.36.26,1.07,0,1.62.06s1-.34,1.38.4a13.89,13.89,0,0,0-3.3.06C44.36,44.12,43.34,43.49,42.17,43.92Zm43.3,33.64V78a2.14,2.14,0,0,1,1.94.86c.17.23.6.25.82.46s.4.7-.35.86l-1.29-1.28c-.58.58-1.28,1-1.51,1.58-.33.83-1.65,1.32-1,2.55.76-.47,1.13-1.68,2.45-1-.9,1.29-1.76,2.52-2.65,3.81.92.3,1.11-.39,1.48-.71a16.54,16.54,0,0,0,1.24-1.27l.57.6-2.53,3.28c.54.15,1,.09,1.12-.14a6.9,6.9,0,0,1,1.8-2.14,4.73,4.73,0,0,1,1.1-.52,9.21,9.21,0,0,0-1.5,2.2c-.21.78-1.38,1.11-1,2.18,1.28-.21,1.41-1.43,2.1-2.09s1.41-1.4,2.12-2.11l.57.62c-.56.72-1.37,1.34-1.54,2.1s-1.59,1.12-1.12,2.46c.48-.39.94-.6,1.15-1,1-1.74,2.66-2.88,4-4.33.17-.18.52-.2.93-.34l-2.84,3.64a4.46,4.46,0,0,0,1,.08c.49-1.48,1.95-1.91,3-2.82.08-.07.35.09.56.14-.32.38-.88.7,0,1.19l1.5-1.54L95.89,85c.34-1-.81-1.16-1-1.87-.09-.36-.39-.52-.88-.13s-.8-.16-.89-.66c0-.14.11-.29.17-.44l-.7.13a2.49,2.49,0,0,0-.44.2V80.63l-1.76-.21.55-1.12h-2c0-.77,0-1.41-.76-1.61-.23-.06-.54.2-.77.29l-.54-1.41ZM28.63,31c-.46,1.56,1.52,2.56,1.08,4.17-.78-.76-.62-2.52-2.8-1.85a4.55,4.55,0,0,1,1.66,3.2l-2.68-3a1,1,0,0,1-.23-.32c-.37-1.1-1.42-1.61-2.13-2.41-.2-.21-.7-.15-1.48-.29.52.52.72.75.95,1a19.78,19.78,0,0,1,4.31,6.06c.19.4.29.85.51,1.23a6.35,6.35,0,0,1,1.14,3,2,2,0,0,0,1.25,1.62,18.18,18.18,0,0,0,2.3.41c.87.06,1.75,0,2.55,0a4.75,4.75,0,0,1-.3-1.22,10.21,10.21,0,0,0-.8-4.84,22.85,22.85,0,0,1-.87-3.35,12.81,12.81,0,0,0-2.73-4.62c-.06-.07-.36.06-.49.08a41.42,41.42,0,0,1,2.68,6.87C31.21,34.84,30.73,32.42,28.63,31ZM136.43,6.46c2-1.21,3.78-2.77,6.1-3.46a7.9,7.9,0,0,0-2.7.22,28.73,28.73,0,0,0-3.36,1.85,7.23,7.23,0,0,1-2.73,1.14l.95-1.07L134.55,5a12,12,0,0,0-6.08,4.71c1.53-.91,3.07-.23,4.3-.7,1.52-.58,2.91-.06,4.46-.41l-.37.74c1.3.61,2.56,1.23,3.84,1.79a13.74,13.74,0,0,0,4.29.7v-1c-1.24-.32-2.41-.67-3.6-.92a5.54,5.54,0,0,1-3.33-1.66,7.11,7.11,0,0,1,3.16.93c1.11.45,2.18,1,3.79.4l-2-1.16a3.34,3.34,0,0,1,1.61,0,11.73,11.73,0,0,0,1.68.41,4.07,4.07,0,0,0,1.41-.22c.48-.15,1-.38,1.42-.58l-.07-.28H145.5c-.11-.7.22-1,.62-.69.75.66,1,.12,1.41-.37-2.92-.61-5.77.45-8.89.23,1-.59,2-.88,2.23-2C139.15,5,138,6.3,136.43,6.46ZM8.56,47.56a3.66,3.66,0,0,0,1-.31c1.31-1,2.54-2.12,3.91-3,2-1.32,3.79-2.91,6.1-3.66.12,0,.26,0,.38-.09a3.81,3.81,0,0,0,.46-.39,8.89,8.89,0,0,0-5.34,1.21,15.26,15.26,0,0,1-2.24,1,6.46,6.46,0,0,1-1.12.2c2.49-2,5.19-2.62,8-3.61a7.18,7.18,0,0,1-1.31-1,4.52,4.52,0,0,0-2.31-1.39c-1-.25-2.15-1.2-3.19.1l2,.72c1.14.4,1.14.41,1.45,1-1.56-.34-3.06-1.13-5-.64l3.94,1.65,0,.25h-3.2l.41,1.08c-.7-.1-1.25-.2-1.8-.26a1.27,1.27,0,0,0-1.54.72l2.08.23c-.17.45-.45.73-.63.67-1.26-.36-1.26-.38-2.13.8l.67.19a2.6,2.6,0,0,1-1.19.29c-.43.08-.85.39-1.27.38a5.21,5.21,0,0,0-4.12,1.86c1.74,1.28,3.2.56,4.51-.68l1.3,1A8.71,8.71,0,0,1,11.67,44C10.8,45.25,9.2,45.78,8.56,47.56ZM15.74,75a1.58,1.58,0,0,0,.23.15l2.17-1.75c.77-.63,1.56-1.24,2.3-1.9a5.79,5.79,0,0,1,2.39-1.71c.46-.11.94-.52.73-1-.38-.93-.11-1.34.79-1.62.22-.07.31-.53.48-.8.91-1.45,1.54-3.07,3.07-4.33A6.53,6.53,0,0,0,27,62a25.66,25.66,0,0,0-7.51,2.76c-1.35.72-2.75,1.38-4.07,2.16a1.88,1.88,0,0,0-1.06,1.39l2.27-1.37,1.15.66c-.49.53-1.27,1-.55,1.86.6,0,1.11-.86,1.79-.26-.71,1.32-3,1.36-2.85,3.55,1-.81,1.94-1.56,2.87-2.26a4.37,4.37,0,0,1,1.13-.25c-1.27,1.06-2,2.11-3.18,2.75A2.4,2.4,0,0,0,15.74,75Zm131.79,64.41a23,23,0,0,0,0-3.11c-.17-1.18-.38-2.46-1.8-2.92-.74,1,.36.73.57,1.07-.57,1.11-.57,1.11.43,1.71-.57,1.48-.57,1.48.28,1.92l-1,2.08-1.14-.93,1-.53-.43-2.72-1-.15a2.83,2.83,0,0,0,.07-1.09c-.1-.25-.47-.4-.71-.57l-1,.89-.19-.18.43-1.06a11.91,11.91,0,0,0-1.41.08c-.06.93-1.19.61-1.25.86-.2.8-.93.88-1.39,1.23a4.14,4.14,0,0,0-1.28,1.52c0,.09.06.24.11.38l1.31.23a9.87,9.87,0,0,0-.75,1.05,4.15,4.15,0,0,0-.27.82c1,.21,1.39-1.48,2.49-.58-.87.87-1.74,1.72-2.58,2.6a2.88,2.88,0,0,0-.36.77,6.11,6.11,0,0,0,2-1.24c.52-.45,1-1,1.48-1.43.13-.11.44,0,.82,0-.65,1.46-2.2,2-2.77,3.57,1.91-.56,2.77-2.48,5-2.94-1.08,1.08-1.89,1.88-2.68,2.69,0,0,0,.1,0,.14a1.69,1.69,0,0,0,.26.24,5.92,5.92,0,0,0,1.68-1.16c.62-.87,2.05-.84,2.22-2.14,0,0,.23-.12.35-.1C146.78,140.59,147,139.79,147.53,139.42Zm-73-38.63c-.74-1.19.64-1.53.75-2.42a6.86,6.86,0,0,0,.22-2.47c-.47,0-.27,1.44-1.1.57.28-1,.6-1.89.77-2.83.14-.77-.15-1.61.41-2.32,0,0-.35-.33-.68-.64-.11.9-.15,1.56-.27,2.2s-.11,1.35-.47,1.62.34,1.65-1,1.24c.29-1.28,1.06-2.42.83-3.77,1.05-.46-.37-1.42.38-2,.09-.06-.35-.67-.35-1s.36-.71.35-1.06-.37-.48-.62-.77c-.38,3.44-.41,3.51-1.3,3.68.59-1.12.25-2.32.29-3.49,0-1.74-.4-2.52-1.55-3A3,3,0,0,0,71.32,86a4.64,4.64,0,0,1,.18,2c0,.53.2,1.12-.3,1.61a8.71,8.71,0,0,0-1.2-5L69.72,86l-1.08-1.6c0,.72-.14,1.21,0,1.34,1.25,1,.87,2.68,1.59,3.9,0,.06-.35.34-.66.65a6.43,6.43,0,0,0-.31-1.76.9.9,0,0,0-1.48-.29,3.57,3.57,0,0,1,.81,3l1.61.33.16,1,1.24-.51-.41,2.79,1.29.94-1.2,1.29,1.4,1-.74.26c.93,2.34.86,2.9,3.09,3.58l1.12-2.29C74.89,99.14,75.34,100.79,74.57,100.79Zm63.36,2.52a18.93,18.93,0,0,0,1.31-2.06c.24-.5-.32-1.46.31-1.63,1.15-.31.22-1.16.64-1.66s.24-1.42.06-2.22c-.52-2.33-2.39-3.28-4-4.53-.63.65-.08,1.13.24,1.19.83.15.68,1.26,1.28,1.29,1.13,0,.45,1.07,1,1.5s.44,1.12.67,1.81H138V95.28a8,8,0,0,0-1.56-1c-.29-.11-.72-.79-1.09,0-1.11-.23-1.66.3-2.15,1.27-.41.81-1.39,1.26-1.85,2.1l1.42,1c-.76,1-.76,1-.72,2,.78-.34,1.23-1.64,2.51-.71l-2.26,1.94.56.56c.74-.59,1.48-1.21,2.25-1.78a2.88,2.88,0,0,1,.8-.25l.25.37-2.06,1.67c2.09.06,3-1.92,4.81-2.06-.74,1.41-2.65,1.53-3,3.28C137,102.87,137,102.87,137.93,103.31ZM16.16,33.39c1.25-.17,1.71.86,2.77,1.75-1.19,0-1.95-.94-2.75-.25a33.62,33.62,0,0,0,3.33,2.89c.83.55,1.56,1.53,2.68,1.44a6.66,6.66,0,0,1,3.49,1.06c.6.29,1.16.94,2,.48,0-.18.11-.41,0-.56a24,24,0,0,0-2.53-4.7A28.39,28.39,0,0,0,22,31.68c-.66-.55-1.36-1-2.06-1.51-.07-.05-.24,0-.55.13.71.7,1.39,1.31,2,2s1.61,1.18,1.88,2.5a18.68,18.68,0,0,0-3.1-2.42c-1.07-.52-1.68-1.88-3.3-1.73l3,3a1,1,0,0,1-.95-.14c-.79-.62-1.52-1.3-2.33-1.87a3.52,3.52,0,0,0-1.21-.28l-.05.23.82.38Zm8.11,36.43c-.72,3.43.19,5.22.63,8.07a12.54,12.54,0,0,0,1.36,3,8.93,8.93,0,0,0-.69-5.78c1.48.23,1,2.21,2.38,2.13.62-1.14-.44-2.67.84-3.72l.78,1.73c.21-.29.56-.7.52-.74-.63-.66-.15-1.45-.3-2.16s-.24-1.35-.39-2.22c.37.14.74.19.78.32.19.69.26,1.4.45,2.09s.25,1.24,1.09,1.51c.41-1.56-.32-2.89-.53-4.27-.27-1.86-1.53-3.36-1.91-5.19,0-.09-.42-.1-.78-.17a6.82,6.82,0,0,0,.61,2c.54.74.07,1.41.34,2.18-.4,0-.75-.07-.75-.08.09-1.11-1.35-1.69-1-2.91,0-.18-.37-.49-.6-.78a6,6,0,0,0,.62,4c.06.14-.05.37-.08.55h-1l-.72-2.54c-1.4,1.62-.08,3,0,4.09L24.75,72a4,4,0,0,1-.32-.7A12.52,12.52,0,0,1,24.27,69.82ZM52.82,45.26a7.46,7.46,0,0,1,3,1.36c.94.89,2.18,1.48,3.07,2.48a1.83,1.83,0,0,0,1,.51,15.73,15.73,0,0,1,3.58,1.28c1.07.61,2.3.65,3.35,1.49s2.34.92,3.46,1.53a1.51,1.51,0,0,0,.38.09,1.76,1.76,0,0,0-.8-1.11c-1.06-.59-2.13-1.14-3.24-1.65-.51-.23-1-.42-.85-1.18l3.87,1.3c-.28-.52-.36-.85-.54-.94-.57-.28-1.23-.39-1.77-.71a16.05,16.05,0,0,0-5.69-2.22c-.31-.05-.58-.38-.86-.58,3.14.33,5.94,1.81,9.26,2.19-.22-.37-.3-.65-.47-.75-.33-.17-.87-.13-1-.38-.36-.49-.89,0-1-.2-.66-.87-1.74-.87-2.6-1.24a13.21,13.21,0,0,0-5.78-1.47c-.51,0-.91-.56-1.56-.09-.29.22-1-.58-1.63,0C54.86,44.18,53.93,44.76,52.82,45.26ZM117.07,122a4.22,4.22,0,0,1-2.24,2.18,1.84,1.84,0,0,0,2.28-.58,5.64,5.64,0,0,1,1.22-1,4.39,4.39,0,0,0,2-2.11c-.29-.64-1.12.13-1.33-.75-.11-.44-.84-.7-1.17-1.13a6.28,6.28,0,0,1-.61-1.31l-.65.52v-1.54a5,5,0,0,1-1.39-.62c-.61-.59-1.05-.45-1.74-.07s-.91.92-1.51,1.22a6.22,6.22,0,0,0-2.36,2.44c-.07.11.08.35.13.54.52-.25.68-1.17,1.58-.66-.23.5-.4,1-.65,1.41s-.88.66-1.08,1.48c1.32-.51,1.86-1.88,3.37-1.77-.11.31-.12.58-.27.74-.5.56-1.08,1.06-1.58,1.62a3.39,3.39,0,0,0-.36,1c1.62-.35,2.32-1.89,3.95-2.13-.47,1.32-1.65,1.78-2.18,2.77,1.22.43,1.52-.92,2.24-1C115.61,123,115.81,121.58,117.07,122ZM51.29,47A7,7,0,0,0,51.72,49c.3.51,0,1,.21,1.44a1.56,1.56,0,0,1-.23,1.84c-.54.6.77,1,.23,1.81a6.53,6.53,0,0,0-.6,1.81c-.17.55-.32,1.1-.47,1.66l-.49,1.82C52,59.2,52.17,58,52.5,56.88c.24-.76.37-1.56.6-2.57.5,1.4,0,2.45-.13,3.54A8.22,8.22,0,0,1,52.11,61c-.06.12.08.36.15.61a1.32,1.32,0,0,0,1.11-1.24c.35-1.68.89-3.32,1.36-5l.35.08L54.57,61c.36-.37.58-.49.64-.67a11.34,11.34,0,0,0,.85-2.52c.19-1.46.18-2.95.25-4.59.34.17.72.29.72.37-.12,1.25.38,2.55-.36,3.77-.2.33,0,.89,0,1.35a2.43,2.43,0,0,0,.59,0,10.53,10.53,0,0,0,.63-2,5.49,5.49,0,0,0,0-2.25c-.19-.64.61-1,.12-1.78-.34-.51-.07-1.43-.07-2.34l-3.21.43-.73-2.95c-.24.2-.57.33-.58.48,0,1,0,1.92,0,2.88,0,.67-.36.59-.82.34a15.42,15.42,0,0,1,0-2c.09-.58-1.1-1.14.12-1.76ZM127.44,133c1.2-.2,1.72-1.3,2.86-1.17-.31,1.17-1.76,1.56-1.54,2.93a15.58,15.58,0,0,0,2.59-2.31,4.33,4.33,0,0,1,1-.36c-.49.75-.85,1.27-1.17,1.82s-1.27.68-.62,1.94a16,16,0,0,1,4.2-3.53,1.28,1.28,0,0,1-.28.75c-.62.64-1.27,1.25-1.88,1.91a4.36,4.36,0,0,0-.46,1c.72-.42,1.15-.89,1.57-.88a1.83,1.83,0,0,0,1.85-1.27c.29-.82,1.2-1.11,1.34-2.14.25-1.82.42-1.8-.41-4.45-.07,1,0,2-.09,3a6.13,6.13,0,0,1-.43,1.67c0,.11-.36.21-.51.17a.5.5,0,0,1-.26-.44c.09-.43.41-.87.35-1.26s-.48-.68-.79-1.09c.89,0,1-.59.8-1.07a12.09,12.09,0,0,0-1.36-1.85l-1.48,1v-1.87h-1.06a7.82,7.82,0,0,0-1.28,2.57,4.87,4.87,0,0,1-1.08,2.22C128.76,131.24,128.16,132,127.44,133ZM26.12,42.59c-.07-1.13-.9-1.06-1.31-1.21s-1,.69-1.59.18l.77-1c-2.36-.61-4.15.74-6.13,1.28-2.58,1.94-5.47,3.48-7.61,6A5.86,5.86,0,0,0,9.78,49c.88-.64,1.42-1,1.9-1.39,1.08-.9,2.08-1.9,3.2-2.73a15.35,15.35,0,0,1,2.32-1.19c.1.47,0,.78-.17.89-.52.29-1.09.48-.76,1.23l2.55-1.31.61.73c-.67.4-1.35.76-2,1.19s-.6.93-.15,1.7c3.13-3.21,7.1-3.78,11.25-4a2.27,2.27,0,0,0-3.25-1c-.78.37-.91-.14-1.45-.6Zm106,51.13a21.45,21.45,0,0,0,1.57-1.59c.34-.43,1.05-.34,1.21-1.12.12-.53,1.15-.85.29-1.59a1.77,1.77,0,0,0,.33-.19,1.9,1.9,0,0,0,.46-.48c.66-1.27.2-2.5-.26-3.67a3.54,3.54,0,0,0-2.31-2.63c.54.84.39,1.61,1,2.17s0,1.81,1,2.27c.06,0-.06.45-.09.68-.19,0-.42,0-.55-.14a5.09,5.09,0,0,1-.5-.61q-.56-.6-1.14-1.2s.21-.13.19-.19a8.29,8.29,0,0,0-2-2.63c-1.1,1.64-3.22,2.19-3.65,4.36l1.16-.52c.31-.15.38-.69.88-.61.21.94-1.49,1.28-.67,2.29l1-.39c.27.85-.9,1.44-.08,2.13.76.24.91-1.33,1.89-.61-.24,1-1.26,1.33-1.67,2.13.91.48,1.31-.18,1.76-.65s.88-.73,1.63,0l-2.8,2.8ZM88.53,35.61a18,18,0,0,1,5.31-3.16,7.94,7.94,0,0,1,4.73-1.06,8.83,8.83,0,0,0,1.36,0c0-.27.13-.48.08-.52-1.62-1.28-3.7-1.32-5.56-1.84a14.16,14.16,0,0,0-5.61.06l4.08.86c-.69.26-1.24.64-1.4.51-.48-.39-.8-.43-1.17.06l-.46-.81c-.49.41-1.15.73-1.39,1.25-.38.79-1.57.05-1.61,1.12l.78.38a3.49,3.49,0,0,1-.89.56,8.35,8.35,0,0,1-1.23,0,5.19,5.19,0,0,0-.77.14l0,.29H87.5c-.51.37-.87.75-1,.69a1.85,1.85,0,0,0-2,0,6,6,0,0,1-2.22.15C84.39,34.87,86.6,34.27,88.53,35.61Zm24.27,2c1.3,1,2.27,1.74,3.16,2.53,1.58,1.38,3.1,2.82,4.67,4.21a3.68,3.68,0,0,0,1,.36c-.68-2.33-2.72-3.28-4-5.24,1.75.62,2.27,2.23,3.87,2.85-.11-.47-.08-.81-.23-1-.86-1.06-1.76-2.09-2.89-3.42,1.86.43,2.31,2.26,4.15,2.75a18.07,18.07,0,0,0-2.24-3.21c-1-1-2.08-1.91-3.19-2.77-1.32-1-2.72-1.91-4.08-2.86-.64.83-.62,1.38,0,1.65.3.12.82,0,.93.19.65,1,2,1.45,2.58,2.78a6,6,0,0,1-1.81-.79.82.82,0,0,0-1.24.41c.71.51,1.73.75,1.83,2.09a5.63,5.63,0,0,0-1-.42A14.87,14.87,0,0,0,112.8,37.6ZM53.67,32.36c-1.08.66-2,1.17-2.82,1.74s-1.76,1.28-2.68,2a.78.78,0,0,1,.37-1.27c1.06-.38,1.52-1.33,2.22-2.06a16.74,16.74,0,0,0-5.19,3.56,1,1,0,0,1,.13-.75c.61-.65,1.28-1.25,1.87-1.92a5.73,5.73,0,0,0,.56-1.35,12.41,12.41,0,0,1-2.44,2.34c-.7.35-1,1-1.63,1.4a6.32,6.32,0,0,0-1.62,2c-.86,1.27-1.65,2.58-2.57,4a12.91,12.91,0,0,0,1.65-.3,12.61,12.61,0,0,0,2-.49,12.5,12.5,0,0,0,1.86-1c.68-.54,1.75-.73,1.9-1.83A26.63,26.63,0,0,1,52,34.29c.55-.33,1.13-.61,1.65-1C53.76,33.24,53.67,32.87,53.67,32.36Zm78.22,109.22c-.15,1.2-1,1.51-1.46,2.16a4.81,4.81,0,0,0-.33,1.14l3.56-2.28c-.84,1.19-.88,1.3-.77,2.1a10.72,10.72,0,0,1,1.51-.92,3.38,3.38,0,0,0,2.38-3.25c0-.48,0-1,0-1.45a3.13,3.13,0,0,0-1.12-2.43c-.44-.45-.86-.4-1.54,0,.4.07.74.06.76.14a9.53,9.53,0,0,0,1,2c.29.55-.27,1.37.45,1.87-.34.48-.66,1-1,1.42-.07.09-.36,0-.69-.05.22-.82.91-1.56.25-2.36l-.41.34c-.65-.43.58-.84-.06-1.34-.32-.24-1.21-1.52-1.38-1.51a3,3,0,0,0-1.9.88l-.44.44c-.23.24,0,.84-.69.77-.43,0-.06.95-.86.85-.29,0-.34.52,0,.76a2.81,2.81,0,0,0,.77.24l-1.74,2.48.53.61Zm.83,9.49.28.37c.88-.74,1.56-1.86,3.12-1.84-.76.75-1.38,1.33-1.94,2-.18.19-.2.52-.45,1.2,1.09-.7,1.79-1.13,2.46-1.59s1.11-1.49,2.58-1.74c-.93.93-1.56,1.51-2.13,2.15-.17.19-.18.52-.38,1.2l3.57-2.36c.49-.32,1.22-.58,1.39-1a26.15,26.15,0,0,0,.91-3.74,4.73,4.73,0,0,0-.91-.42,4.87,4.87,0,0,1-1.27,4.28l-1.43-.74c1.38.19,1.34-.79,1.51-1.33a9.52,9.52,0,0,0,.06-2.6l-1,.47c-.43-.23-.87-.68-1.32-.67a6.39,6.39,0,0,0-1.81.56c.13.88-.81.68-1.17,1.1s-.42,1.3-1.25,1.32c0,.23,0,.62.17.66a5,5,0,0,0,1.23,0Zm-39.35,5.16L92.24,158c1.59-.4,2.83-.42,3.51-1.54a7,7,0,0,0,.93-2.49,6.12,6.12,0,0,1,1.86-3.57c.28-.28.51-.59.79-.92a2.86,2.86,0,0,1-1.77-1.23l2.37.79c0-.15.12-.37.08-.39-1.05-.7-1.94-1.76-3.4-1.57a.25.25,0,0,0-.18.12l.35,1.31c-.59.36-1.47,0-1.66,1.06h1.95c-1.29.68-2.51.52-3.19,1.37l.75,1.46c-.5.32-1,.61-1.49.95a.57.57,0,0,0-.11.53.58.58,0,0,0,.51.19,2,2,0,0,0,.57-.34,1.34,1.34,0,0,1-.39,1.05c-.43.39-.94.69-1.41,1.05,0,0,0,.18,0,.28ZM126.79,13.05a4.66,4.66,0,0,0,.28,1.37c.57.92-1,.08-.61.77.19.33.39.75.69.9a27.83,27.83,0,0,0,6.24,2.48c.39-1.09-1.12-.73-1.06-1.6,1.37-.29,2.55,1.32,4.15.57a7.15,7.15,0,0,1-3.62-1.83c2-.05,3.41,1.35,5.59,1.08l-7.35-3.48c-.68,1.52,1.27,1.36,1.61,2.68l-2.93-1.72c.76-.43.76-.43.67-1.31-.52-.2-1-.39-1.47-.56s-1-.75-1.76-.18c.46.28.88.52,1.28.79.06.05.06.28,0,.39s-.22.24-.29.22C127.86,13.51,127.51,13.35,126.79,13.05ZM119,152a5.6,5.6,0,0,0-.36-.81c-.21-.33-.5-.62-.71-1s-.28-.58-.45-.84c-2-3-1.82-2.81-4.36-2.76a5.61,5.61,0,0,0-.82,0c-.1,0-.18.17-.31.31l.51,1-1.45-.55-.42.89c-.72-.13-1.21-.91-1.82-.27l3.75,3.26.21-.16-.77-1.93.2-.07,1.2,1.35.74-1.29a32.08,32.08,0,0,0,2.28,2.8c.83.83.78,2,1.21,3,1.2-.93,1.24-1.07.66-1.9-.34-.49-.7-1-1-1.44a5.78,5.78,0,0,1-.35-.93C117.78,151.09,117.94,152.09,119,152ZM87.57,35.94c-.44,0-.91,0-1.36,0-1.19-.09-2.38.18-3.56-.37-.74-.35-1.34,0-2,.79,1.31,0,2.54,0,3.76,0,.57,0,1,.13,1,.86-.88,0-1.75-.07-2.63-.13-.15,0-.38-.22-.42-.18-1,1-2.24.59-3.57.75.2.37.3.73.42.74a15.24,15.24,0,0,0,1.79,0l.07.36-3.75,1.45c.68.17,1.32.45,1.92-.12.12-.12.86-.32.94.34s-.38.39-.69.46c-.63.13-1.08.43-.9,1.18.25,0,.45.1.5,0a2.35,2.35,0,0,1,2.14-.84c.5.05,1-.4,1.53,0,.39.26.78-.14,1-.47a10.69,10.69,0,0,1,1.65-2.38c.79-.6,1.19-1.62,2.2-1.95A2.56,2.56,0,0,0,87.57,35.94Zm39.08,30.57c-.89,1.31.76,1.2,1,1.74-1.12,1.32-2.18,2.62-3.3,3.87-.42.47-.54.89-.2,1.38.65-.42,1.53-.58,1.65-1.54a5.53,5.53,0,0,1,.74,0l-1,1.43c-.53.77-.52.81.34,1.77a5.11,5.11,0,0,1,.27-.72c1.24-2.24,3.51-3.53,5.1-5.45,1-.07.4-.73.52-1.32l-1.7.63,1-1.68c-1.37-.34-2.07.51-2.91,1.15l-.72-1.26Zm-23.17,40.73c-.13-.77-.48-1.31.23-1.46.49-.11.58-.43.35-.68s-.85-.25-.91-.15c-.53.94-1.64,1.27-2.17,2.15a3.91,3.91,0,0,0-.14,1.35,17.75,17.75,0,0,1,1.36-1.33c.14-.1.45,0,.69.06,0,.19,0,.53-.11.54-1.32.19-1.12,1.67-2.19,2.2l1.06.6c.13.81-1.19.92-.6,1.93l1.59-1,.6.7-1.37,1.68c.4.11.68.25.75.19,1-1.07,2.5-1.54,3.21-2.85-.92-2-.93-2.08-.86-4.54,0-.14-.12-.28-.17-.4Zm-68.41-4.39c.16.33.53.71.47,1a16.45,16.45,0,0,1-1,3.9A5.68,5.68,0,0,0,34,111c.71.56,1.78.84,1.76,2.09,0,.18.56.37,1,.67a6.44,6.44,0,0,0,0-1.63c-.1-.28-.21-.37-.07-.75a13.49,13.49,0,0,0,.51-5.54c-.08-1.27-.79-3.24-2.39-3.82-.27-.1-.52-.23-.89-.4,0,.44,0,.78,0,1.11s0,.63.1,1.31Zm65.52,45.7c.87.34.82-1.07,1.72-.32.27.22,1.08-.33,1.63-.3a5.87,5.87,0,0,1,1.61.63c-.54,1-1.72,1.46-1.58,3l1.71-1.72.51-3.18c-.88.66-2,.05-2.73.77a.79.79,0,0,1-.77,0c-.92-.7-1.79-1.46-2.71-2.24.44-.24.88-.12.9-.77a1.53,1.53,0,0,0-1.27-1.68l.4-.47c-1.27-.1-1.86.14-2,1.27-.09.74-.7.48-.91.88l1.66,1.18a.83.83,0,0,1-.77.06c-.25-.07-.5-.25-.72-.22s-.44.28-.78.51C98.13,146.79,99.75,147.26,100.59,148.55ZM103.36,122c1.42-.17,1.74-1,2.36-1.46a5.56,5.56,0,0,1,1-.41c-.12,1.19-1,1.49-1.44,2.13a4,4,0,0,0-.29.87c1.66-.09,2.26-1.56,3.47-2,.18-.08.25-.58.26-.89,0-.89,0-1.79,0-2.67,0-.66.1-.66-.67-1l-.59,1L106,116.09c-3.41,3.41-3.41,3.41-3.22,4.33.51-.46.92-.89,1.39-1.24.19-.13.51-.08,1-.14Zm42.06-97a19.81,19.81,0,0,0-5.74-.59,14,14,0,0,1-2.89,0c-1-.15-1.78.49-2.72.46a16.93,16.93,0,0,0-5,.92,24,24,0,0,1-2.58.76,17.91,17.91,0,0,0-2.89.91,4.51,4.51,0,0,0,3-.08,13.5,13.5,0,0,1,4.59-.87c.28,0,.71.11.81,0,.64-.88,1.63-.18,2.45-.61s1.86-.13,2.8-.2a15.22,15.22,0,0,0,3.78-.32,3.38,3.38,0,0,1,3,.23C144.53,25.89,145.09,25.56,145.42,25Zm-23.87,1.2a4.22,4.22,0,0,0,2.31-.05,17.89,17.89,0,0,1,4-.95,14.91,14.91,0,0,0,2.7-.43c2.14-.63,4.37-.59,6.52-1.14a13.88,13.88,0,0,1,3.29,0c1.1,0,2.2,0,3.29,0s1.93-.5,3,0c.55.23.62-.28.35-.79-3.41,0-6.84.09-10.26,0-1.5-.05-2.9.45-4.36.47a.84.84,0,0,0-.52.22,4.46,4.46,0,0,1-2.89,1c-.77.05-1.53.42-2.31,0-.68.83-1.78,0-2.6.73A8.58,8.58,0,0,1,121.55,26.16ZM30.12,109.53a28.13,28.13,0,0,0,.75-3.28c.1-.76,0-.78.66-1.37l-.36,3.87c1.3-1.26.32-2.82.81-4.2l1-1v-2.92c-.65.72-1.31,1.12-1.21,2.12a5.73,5.73,0,0,1-.64,1.94l-.26-1.82a8.1,8.1,0,0,0-1.17,2.28s-.17.06-.27.08a3.33,3.33,0,0,0-.1-.4,3.59,3.59,0,0,0-.21-.35c-1.95,2.2-1.33,4.84-1.46,7.58.32-.27.54-.35.58-.49.32-1.24.61-2.49.91-3.78C30.42,107.87,29.34,109.13,30.12,109.53Zm39.77-.46c-2.65,1.51-2.43,3.94-3,6.23a33.13,33.13,0,0,1,3.69-2.48,4,4,0,0,0,2.53-2.64C72.37,108.64,71,109.13,69.89,109.07ZM123,133.8l.49-.48c.09-.1.19-.28.29-.28.39,0,.68-.06.62-.54,0-.26-.81-.5-1-.27a4,4,0,0,0-.62,1c-.26.48-.69-.53-1,.18a13.93,13.93,0,0,1-1.41,1.9c-.08.12,0,.36,0,.67l1.71-1.43c.92,1.38-.7,1.7-.86,2.52l.61.61,1.47-1.83-.16.46.86.21c.07.91-1.27,1-.57,2,1.29-.71,2.13-2,3.36-2.72.14-.09.06-.76-.1-1.06s-.54-.3-.82-.45c-.47-.26.54-.61,0-.88-.23-.1-.56-.39-.66-.33a2.82,2.82,0,0,0-.51.75ZM110.5,167.4c2.66-.28,2.82-2.42,4-4.07l-.57,3c.54-.69.92-.3,1.32-.39,0-1.69.13-3.41,0-5.1a5.28,5.28,0,0,0-1-3.08c-1.05-1.23-1.87-2.65-2.82-4-.08-.11-.45,0-1.06,0,.91.73.72,1.59,1.21,2.26a11.55,11.55,0,0,1,1,2.64l.39-1.86a9,9,0,0,0,1,2.31,2.09,2.09,0,0,1,.27,2.4A20.26,20.26,0,0,1,110.5,167.4Zm6.43-93.79c.23-3.72-1.28-6.68-2.74-9.64a16.57,16.57,0,0,0-4.79-5.64,11.86,11.86,0,0,0,2,3.24A14.24,14.24,0,0,1,114,65.86c.44,1.2.49,2.54.93,3.74C115.42,71,115.39,72.58,116.93,73.61ZM95.71,32.81A5.57,5.57,0,0,0,93,35.11c-1.08,1.55-2,3.19-3.24,4.64a11.86,11.86,0,0,0-2.15,4.08c-.35,1.09-.82,2.14-1.22,3.21,0,.1.06.24.11.42h1l2.33-5.22.3-.7a16.41,16.41,0,0,1,2.74-4.87A44.62,44.62,0,0,0,95.71,32.81Zm18.53,98.94,3.42-2.85-1.29-1,.14-1.6-1.6.5.51-1.33a4.57,4.57,0,0,1-.89.48,3.61,3.61,0,0,0-1.62,1c-.44.58-1.24.87-1.38,1.77,1,.61,1.45-1.36,2.45-.54l-1.57,2.2.25.25,2-1.46C115.38,130.29,113.19,130.67,114.24,131.75Zm-56-71.53.44.21L59.78,59c.49,1.21-.56,1.81-.65,2.62l.57.79a2.76,2.76,0,0,0,1.06-2.56,4.08,4.08,0,0,1,.41-1.69c.11-.41,0-.84-.6-.75,0,0-.1-.17-.17-.31l1.31-.2c-.85-.48-.42-1-.12-1.55h-1.5c-.2-.89-.35-1.72-.58-2.52,0-.16-.37-.25-.57-.36a2.08,2.08,0,0,0-.15.68c0,.29.31.73.22.82-.57.53-.23,1.17-.29,1.75s.22,1.38-.06,1.82C58.07,58.46,58.42,59.34,58.27,60.22Zm106.16,53.39a2.35,2.35,0,0,0-2.13.77,4.64,4.64,0,0,0-.71,1.75,1.05,1.05,0,0,0,.16.74,2,2,0,0,0,3.09.29c.34-.28.8-.44,1.12-.74s1.2-.82,1-1.64-1.1-.81-1.69-1.15C165,113.51,164.7,113.61,164.43,113.61ZM137,28.66a4.82,4.82,0,0,0,1,.25c3.44.23,6.92-.45,10.34.41.13,0,.3-.18.46-.27-.14-.18-.24-.44-.42-.53a4.43,4.43,0,0,0-1.26-.41,13,13,0,0,0-1.65,0H134.72a1,1,0,0,0-.35.14l-.2.59c-.36-.12-.7-.36-1-.3-1,.25-2,.57-2.91.92-.1,0-.07.43-.12.87.56-.26.89-.55,1.22-.55a12.53,12.53,0,0,0,2.93-.39c.67-.15,1.42-.85,2.13-.05Zm-97.29,87c0-.74,0-1.48,0-2.22,0-.21.18-.58.31-.59.86-.08.56-.77.45-1.06a19.18,19.18,0,0,0-1.25-2.29H41c-.3-.82-1.42-1-1.17-2.12l.53.46,1-1.48c-1.18-2.23-1.29-2.33-2.84-2.5.6.63,1.16,1.18,1.67,1.78.08.09-.06.36-.1.58l-1-.81-.21.21.84,1.32-.79.28.45,1.45-1.38-.53C38.62,110.77,38.58,113.26,39.7,115.62Zm79.73,28.76c-1-.5-1.94.24-2.66-.59-.64.64-1.08.47-1.4-.47.95.16,1.9-.3,2.74.43.07.06.33-.09.53-.15l-1-1h-5.2v1.07l1.14.18c.2.7-.15.77-.63.74-.65,0-.64.31-.39.83,2.27,0,4.57,0,6.86,0Zm-10-115.57c1.18.66,2.27,1.21,3.3,1.87s2,1.41,3,2.18,1.92,1.65,2.9,2.46,1.87,1.46,2.81,2.19c-2.7-4.42-6.87-7-11.22-9.46Zm-2.19,136.8c-.24.33-.56.63-.51.71.62,1,.29,2,0,3.06l-1.13-3.26a8.53,8.53,0,0,0,.29,3.51,30.52,30.52,0,0,1,.85,3.42h1.08a1.93,1.93,0,0,1,.75-1.71,1.43,1.43,0,0,0,.33-2C108.34,168.17,107.81,166.94,107.22,165.61Zm23-136.93c.71-.92,1.68-.26,2.18-.64.66-.51,1.29-.24,1.93-.36l2.1-.41a15.66,15.66,0,0,1,1.9-.4,6.83,6.83,0,0,1,2,.08,15.91,15.91,0,0,0,5.88.08c-.9-.76-2-.58-3.05-.59a12.68,12.68,0,0,1-3.49-.07,4.6,4.6,0,0,0-3,0c-1,.36-2.23-.19-3.37.34a15.82,15.82,0,0,1-3.1.71ZM112.12,159a12,12,0,0,0-1.72,2.37,7.69,7.69,0,0,0-.43,2.88,5.74,5.74,0,0,0,.72,1.76c.61-1,1.09-1.68,1.54-2.43a9.05,9.05,0,0,0,1-1.84,6,6,0,0,0,0-1.64ZM115.8,24.52c2.37.39,4.4-.94,6.62-1.4.17,0,.28-.35.62-.81a23.8,23.8,0,0,1-3.09,0c-1-.14-1.83.58-2.69.39s-1.7.89-2.34.31l-1.38,1.39c1.36.38,2.64-1.32,4.42-.59ZM92.09,34.82l-.26-.22a5.72,5.72,0,0,0-1,.87c-.67.87-1.25,1.81-1.9,2.7a24.65,24.65,0,0,0-4,7.77,3.51,3.51,0,0,0-.09,1c0,.06.2.16.32.18s.32,0,.35-.1c.17-.41.26-.86.45-1.25,1.73-3.42,3.06-7.08,5.78-9.94A3.23,3.23,0,0,0,92.09,34.82ZM151,58.89c-.54,1.15.15,1.94.48,2.69,1.46,3.3,3.42,6.37,4.41,10.1.29-.36.64-.62.6-.76a28.65,28.65,0,0,0-1.63-4.81c-.51-1-1-2-1.56-3.06s-1.12-2-1.68-3C151.47,59.72,151.3,59.37,151,58.89ZM114.89,75.62c0-1.75,0-3,0-4.32a1.42,1.42,0,0,0-.12-.57c-.36-.88-.73-1.76-1.11-2.63-.53-1.23-1.08-2.45-1.69-3.63-.22-.43-.11-1.25-1.1-1.3a6.89,6.89,0,0,1-.11,1.14c-.19.77.84.34.83.86,0,1.57,1.27,2.63,1.44,4.17s1.17,3.16,1.07,4.92C114.08,74.56,114.45,74.89,114.89,75.62ZM92.63,165.14l.3.13c.6-1.06,1.11-2.19,1.81-3.18a4.26,4.26,0,0,0,.55-3.68c-.3,1.2-.54,2.13-.78,3.07a2.33,2.33,0,0,1,.11-2.33c.15-.18,0-.62,0-.94-1.42.2-1.72.47-1.87,1.57l.94-.37.18.25-1.2,1.2ZM137.2,11.79l.12-.4c2,.65,3.87,2,6.27,1.19-1.09-.38-2-.71-2.89-1a12,12,0,0,1-2.35-.78,1.6,1.6,0,0,0-1-.18,4.59,4.59,0,0,1-1.26-.36c0,.77,1.09.86.64,1.63-.79-.17-1.43-1.1-2.41-.53.64,1.05,1.19,1.3,4.9,2.14ZM62.68,39.58c-.3-.39-.43-.72-.58-.72-1,0-2.17.25-3.06-.1s-1.84,0-2.51-.39A4.9,4.9,0,0,0,53.78,38c-.77,0-1.54.37-2.3.35a5.34,5.34,0,0,0-2.6.75c2.27.11,4.53.06,6.78.12S60.1,39,62.68,39.58Zm60.91,67.68A1.13,1.13,0,0,0,125,107c1.4-1.21,2.86-2.36,4.31-3.5.54-.43,1.13-.8,1.53-1.08-.55-1.17-.05-2.31-.41-3.34l-1.05,1.55,1,1.08A22.38,22.38,0,0,0,123.59,107.26ZM86.19,4.41c-.59,1.17.2,2,.34,2.94a7.9,7.9,0,0,0,.55,1.41c.2.54.58,1.12.5,1.62-.16.85.71.65.84,1.08.06.17-.36.57-.3.65A3.56,3.56,0,0,1,89,14s.24.09.36.07a.58.58,0,0,0,.32-.21c.47-.67-1-1.26-.1-2a.37.37,0,0,0-.1-.27c-.57-.4-.5-1-.66-1.59A21.26,21.26,0,0,0,86.19,4.41Zm1-.74c.07.54,0,1,.17,1.16,1.19,1.22,1.4,2.86,1.94,4.35.16.41.26.85.43,1.26a2.38,2.38,0,0,0,.52,1c.68.51-.53.74-.12,1.16l.6.6a1.18,1.18,0,0,0,.58-1.49c-.76-2-1.06-4.2-2.31-6C89.07,4.53,88.22,4.15,87.16,3.67Zm23.15,90.57c.11,1.06,1.11,1.21,1.2,2.33l-1.79-1.46-.65.52L113,98.41c.17-.34.24-.73.46-.86a4.72,4.72,0,0,1,1.42-.24l-1.8-1.58,1-.5c-.28-.22-.51-.52-.79-.6-.49-.14-.48.3-.52.62a1.61,1.61,0,0,0-.43-.07,5.63,5.63,0,0,0-.68.19l-.2-1.19Zm26-63.18c.26-.16.51-.43.8-.47,1-.12,2,.21,2.88-.33.93.69,2.05,0,3,.35,1.79.72,3.58.17,5.36.32-3.68-1.29-3.22-1.66-12.91-.6Zm-23.38,8.53c-.07.3-.08.36-.09.42S121,46.68,121,46.68l.55-.13c-.84-1-1.62-1.92-2.42-2.84a24.91,24.91,0,0,0-2.93-2.26C115.21,40.6,113.93,40.51,112.92,39.59Zm28.62-24.08a15.55,15.55,0,0,1-1.89-.48c-2.31-.9-4.61-1.84-6.91-2.75a3.82,3.82,0,0,0-.91-.28.5.5,0,0,0-.39.31.58.58,0,0,0,.22.48c.3.12.79,0,.93.21.69.93,1.79,1,2.7,1.49,1.75.89,3.71,1,5.53,1.59C141,16.13,141.22,15.78,141.54,15.51ZM177.68,51a5.9,5.9,0,0,1,0,2c-.25.53.7.62.22,1.21a2.53,2.53,0,0,0-.16,1.55c.05.57.32,1.12.38,1.68s0,1.37,0,2.06c0,.84,0,.84.72,1.91.47-1.8-.45-3.75.51-5.53,0-.09,0-.26-.06-.38a12.42,12.42,0,0,1-.79-4C178.48,51.39,178.12,51.27,177.68,51ZM100,32.34c-1.06-.08-1.64-.34-2.17.21-2,2.09-4.33,4-5.51,6.77a3.45,3.45,0,0,0-.14.67C94.51,37.29,96.57,34.43,100,32.34Zm13.34,44.32c-.29-1.83.08-3.3-.43-4.85a11,11,0,0,0-1.3-3.17c-.18-.26.19-1-.45-.85s-.39.76-.16,1.25c.17.34.09.91.32,1.07a2,2,0,0,1,.66,2.2c-.21,1.37.47,2.6.48,3.93C112.45,76.32,112.77,76.39,113.33,76.66Zm78.1-44.11c-.32-.33-.49-.66-.71-.7-2.35-.42-4.47-1.76-6.93-1.69-.94-.71-1,0-1.24.87,1.28-.28,2.25.59,3.41.37.56.58,1.44.18,2,.6A4.53,4.53,0,0,0,191.43,32.55Zm-23.66-.17V27.92c.73-.58.3-1.39.41-2.09a9.84,9.84,0,0,0,.37-2.3,2.22,2.22,0,0,1,1-2h-1.35a5.84,5.84,0,0,1-.15,1.44,9.2,9.2,0,0,0-.74,3.8c0,.34.14.77,0,1-.82,1.33-.2,2.78-.36,4.16C167,32.06,167.35,32.18,167.77,32.38ZM86.7,101.2a9.07,9.07,0,0,1,.68-2c1.16-1.85,1-4.11,1.88-6,.06-.14-.17-.43-.26-.65-.18.13-.45.23-.53.4-.24.52-.34,1.11-.6,1.61A11.05,11.05,0,0,0,86.7,101.2ZM38.13,98.85c-.23.82-.58,1.17-1.32,1.14a2.49,2.49,0,0,0-2,.41h2.74l-1.35,1c.58.38,1.36.65,1.36.94,0,1,.68.09,1,.37.75.61.89-.31,1.21-.79l-2.21-.71,0-.28,1.75-.23c-.46-.36-1.18-.3-.92-1a7.84,7.84,0,0,1,.73-1.25c-.93-.6-.93-.6-2.5.18ZM173.74,33.63c1.75.63,3.36,0,5,.53a9.15,9.15,0,0,0,4.72-.13C180.39,32.53,177.25,33,173.74,33.63Zm-30,.42a37,37,0,0,0,4.65,1c1.52.15,2.9,1.12,4.51.7-1.92-.63-3.58-2-5.72-1.89-.9-.62-1.92-.4-2.9-.39C144.08,33.49,143.91,33.84,143.72,34.05Zm-3.55,45c-.17-3.57-1.27-6.22-4-8a1.15,1.15,0,0,0,.41,1.62,5.43,5.43,0,0,1,2.31,3.71c.13.76.25,1.53.44,2.28C139.32,78.81,139.68,78.86,140.17,79.09ZM75.47,9.31c.19.59.2.84.32.94,1.94,1.55,4.33,2.32,6.28,3.77l.54-.53-1-1.46C79.39,12.05,77.85,10.2,75.47,9.31Zm52.32,71.44c-.47-1.27-.66-2.64-1.4-3.59s-1.21-2.37-2.71-2.92v1.43h1.13v1.42c.67.28,1.52.4.83,1.39a.21.21,0,0,0,0,.19c1.16.59.71,1.76.9,2.9ZM85.28,11.56c-.28-.32-.52-.46-.52-.6,0-2.18-1.24-3.87-2.34-5.59-.15-.23-.59-.28-1.11-.51l2.89,6.7Zm40.51,90.82c-.2.78-1,.76-1.44,1.41s-1.12.86-1.61,1.38-1.24.82-1.25,1.66a1.06,1.06,0,0,0,1.5-.3c.82-1.1,2.33-1.44,3-2.82C126.24,103.08,126.45,103.17,125.79,102.38ZM83,10.69a13.14,13.14,0,0,0-1-2.83,5.09,5.09,0,0,0-2.27-2.48c.17,1.11.32,2.06.49,3a.42.42,0,0,0,.25.27c1.19.16,1,1.37,1.55,2ZM104.18,15a8.74,8.74,0,0,0-.41-3.09c-.72-1.55-1.17-3.22-1.82-4.8-.14-.35-.55-.86-1-.42a19.57,19.57,0,0,1,1.5,3.75c.26,1.4,1,2.7.91,4.17C103.35,14.73,103.74,14.83,104.18,15ZM34.77,35.87a15.18,15.18,0,0,0-.19-2.34,12.34,12.34,0,0,0-2.16-4.22c-.16-.22-.59-.26-1.11-.46C32.86,31.2,33.27,33.76,34.77,35.87Zm13.9,9.88-.36.33a46.85,46.85,0,0,0,2.78,6.18c.27-2.62.28-2.63-1.49-5.68A3.94,3.94,0,0,0,48.67,45.75Zm55.41,106.67c-1.26.18-1.81.61-2,1.42s-.44,1.78-.66,2.65C103.53,155.79,104.12,154.93,104.08,152.42ZM130,18.68l.17-.34c-.52-.24-1.06-.43-1.55-.71s-.92-.75-1.44-1c-1.09-.5-2.21-.93-3.34-1.33-.18-.07-.45.15-.68.23.13.19.21.47.38.56a26.42,26.42,0,0,0,5.26,2.15C129.2,18.36,129.59,18.54,130,18.68ZM90.1,135.3a15.75,15.75,0,0,0,1.23,1.61,1,1,0,0,0,1.53-.24,2.56,2.56,0,0,0-.15-2.07c-.52-.54-1.3-.48-2.09.18C90.46,134.91,90.33,135.07,90.1,135.3ZM185.32,32.4a13.85,13.85,0,0,1-2.2-.76c-.78-.44-1.57-.13-2.35-.23-.54.81-1.29-.67-1.85.25,0,.57.57,1.13.9.92.69-.47,1.15.16,1.74.1a3.61,3.61,0,0,1,2.7.34C184.37,33.09,184.79,32.72,185.32,32.4ZM98.47,157.21c.66-.41,1-.58,1.17-1.25a44.14,44.14,0,0,1,1.19-5.21,3.5,3.5,0,0,0,0-.94C100,150.84,98.49,155.42,98.47,157.21ZM198.75,66.85c.46-.45.82-.64.8-.8a17,17,0,0,0-.29-3.58c-.37-1.19-.07-2.61-.75-3.81-.88-.08-.7.77-.55,1,.58.68.07,1.59.43,2.1.53.73.3,1.43.35,2.14S198.75,65.49,198.75,66.85ZM151.51,33.46c-.5-.42-.73-.78-1-.8-1.83-.08-3.5-1.16-5.39-.85a.49.49,0,0,1-.36-.09c-.63-.67-.65.13-1.1.46,2.08.85,4.28.4,6.19,1.26A5.09,5.09,0,0,0,151.51,33.46ZM74.3,131.73l-.4.3,3,5.74c0,.08.18.1.27.14l.56-1.23Zm23.86,20.56a6.25,6.25,0,0,0-.59,1.62,10.42,10.42,0,0,1-.76,3.18c-.33.85.23,1.83-.42,2.66-.08.11.35.62.54.93a3.8,3.8,0,0,0,.62-2.61c-.08-1,.5-1.87.46-2.9C98,154.31,98.64,153.46,98.16,152.29Zm11.57,15.48c.07-.27.26-.58.18-.8-.48-1.51-1.31-2.91-1.37-4.55a.86.86,0,0,0-.27-.49,3.59,3.59,0,0,0-.54-.4c-.08.21-.25.44-.22.65s.35.45.34.66C107.7,164.67,108.53,166.19,109.73,167.77ZM86,40.2A18,18,0,0,0,83,46.74c.41-.09.7-.07.76-.17.84-1.5,1.17-3.23,2.15-4.68C86.15,41.58,86,41,86,40.2Zm.27-28.95c.25-.45.61-.84.52-1a17.71,17.71,0,0,0-1.17-2.4c-.5-.69-.69-1.6-1.61-2A16.31,16.31,0,0,0,86.24,11.25ZM154.5,49.57h-2.9l.18-.83.57.4c.05-.5-.13-1-.28-1a10.27,10.27,0,0,0-1.67.32,1.58,1.58,0,0,0,.08.52c.17.31.93,0,.76.68-.12.5-.57.19-.83.33s-.31.39-.53.7C151.68,51.06,153,50.19,154.5,49.57ZM113.67,87.63c-.32,0-.56-.08-.68,0a19.34,19.34,0,0,0-3.87,4.76.58.58,0,0,0,.18.51.57.57,0,0,0,.53-.09,17.3,17.3,0,0,1,3-3.87A7.54,7.54,0,0,0,113.67,87.63ZM89.94,16.92c-.8-.6-1.35-1-1.87-1.4s-1.09-1-1.65-1.47a7.29,7.29,0,0,0-1.25-1,6.08,6.08,0,0,0-1.4-.3c.51,1.72,2.16,1.67,3,2.61A4,4,0,0,0,89.94,16.92ZM157,31.25a18,18,0,0,0,3.06.52c.91,0,1.79,1,2.74.22-.05-.22,0-.42-.11-.46a13.55,13.55,0,0,0-5.56-.88.22.22,0,0,0-.13.15A3.36,3.36,0,0,0,157,31.25ZM88.85,46.51l.37.31a7.69,7.69,0,0,0,.87-.94,14.1,14.1,0,0,0,1.25-3.6c.14-.43.26-.88.39-1.32A16,16,0,0,0,88.85,46.51Zm43.64,21.88c-.06-.59.67-.41.37-1.14-.5-1.24-1.08-2.43-1.65-3.64-1.12.39-1-1-1.69-1.18l-.51,1c.36.28,1.08.56,1.11.9.08,1,.94.26,1.25.73,0,.41,0,1.25.12,1.27C132.66,66.5,132.05,67.48,132.49,68.39ZM49.87,52.09c.08-.24.19-.4.15-.48a20.83,20.83,0,0,0-3.64-5.46,2.18,2.18,0,0,0-.76-.32C47.42,47.69,48,50.35,49.87,52.09Zm29.36,54.42-.26.15c.11.3.15.7.36.9,1.46,1.33,3,2.62,4.44,3.93.29-.59.22-1.18-.33-1.41a8.29,8.29,0,0,1-2.14-1.76Zm-20.54-69c-2.57-1.14-4.77-.61-7-.8v.8Zm136.54,24c.19-2.05.55-4.14-1.37-6.06C194.41,57.7,194.33,59.71,195.23,61.49Zm-69.44,45.9c2.18-.18,3.26-1.08,4.3-3.34C128.2,104.52,127.33,106.13,125.79,107.39ZM114.65,88.45c-.55.47-.82,1.17-1.52,1.6s-1,1.27-1.61,2.08c.4,0,.72.1.9,0a19.61,19.61,0,0,0,3.12-3ZM114.54,157a7.44,7.44,0,0,0,.81,1.43c.36.4,1.07.33,1.23,1.11a4.55,4.55,0,0,0,.89,1.45c.31.44.67.86,1,1.28C118.56,160.25,116.81,157.87,114.54,157ZM62.84,55c-.37.44-.63.61-.61.74.28,1.94-1.18,3.73-.48,5.74h.67a5.77,5.77,0,0,1,.07-2.21c.24-.54.1-1.06.29-1.58A9.38,9.38,0,0,0,62.84,55Zm44.26,58c-1.2-.82-1.26-.83-2-.17a2.87,2.87,0,0,0-1.23,2C105.55,115.29,106,113.73,107.1,113Zm44.21-75.72A5.32,5.32,0,0,0,148.6,36c-1-.31-2-.49-3.36-.79.32.38.45.68.65.76A24,24,0,0,0,151.31,37.28ZM118.1,19.63c.68.17,1.23.34,1.8.45s1,.08,1.57.17,1.12.29,1.68.39a.49.49,0,0,0,.39-.31c0-.15-.1-.46-.21-.48a10.92,10.92,0,0,1-2.47-.48c-.81-.37-1.66.13-2.39-.37Zm6.62,82.72c-.81.18-1.22.24-1.61.36-1.49.47-2,1.86-3.08,3.28C122.12,105.18,123.18,103.82,124.72,102.35Zm27.59-62.53c-1.34-1.76-3-2.09-4.54-2.62-.17-.06-.44.16-.66.26.13.18.22.46.39.53C149,38.57,150.42,39.11,152.31,39.82ZM187.8,26.36c2.27-.05,3.85,1.62,6.13,1.76a3.84,3.84,0,0,0-.5-.59c-1.54-1.07-3.39-1.34-5.13-1.89C188.24,25.62,188.05,26,187.8,26.36ZM67.9,90.93c-.8-3.75-1.22-4.46-3.09-5.77Zm62.74-8.65a7.13,7.13,0,0,0-1.59,0c-.34.06-.9.42-.89.62.05.85-.62,1.44-.82,2.5a22.65,22.65,0,0,0,2-1.51A13.89,13.89,0,0,0,130.64,82.28Z"/><path class="cls-1" d="M176.17,44.62c-.09-.19-.14-.25-.13-.3a4,4,0,0,1,.08-.56c2.29.38,4.51-.84,7-.25a21.28,21.28,0,0,1-3.36,1.07A23.58,23.58,0,0,1,176.17,44.62Z"/><path class="cls-1" d="M191.28,41.56c-1,0-2.05.51-3.08-.2-.17-.12-.68.33-1,.35a23.57,23.57,0,0,1-3.66-.12C186.1,40.88,188.7,40.42,191.28,41.56Z"/></g></g></svg>